<svg width="486" height="177" viewBox="0 0 486 177" fill="none" xmlns="http://www.w3.org/2000/svg">
<rect x="58.6956" width="427.304" height="177" rx="30" fill="#83BDFD"/>
<path d="M34.0736 127.071C22.0927 122.475 22.0927 105.525 34.0736 100.929L69.0291 87.5192C78.1974 84.0021 88.0435 90.7707 88.0435 100.59V127.41C88.0435 137.229 78.1974 143.998 69.0291 140.481L34.0736 127.071Z" fill="#83BDFD"/>
<path d="M122.276 67.448H137.538V70.178H122.276V67.448ZM120.066 83.36H141.828V86.168H120.066V83.36ZM135.718 67.448H139.15V70.308C139.15 73.688 139.15 76.964 138.292 81.904L134.834 81.618C135.718 76.99 135.718 73.558 135.718 70.308V67.448ZM147.962 80.448H164.108V89.054H147.962V80.448ZM160.702 83.126H151.368V86.324H160.702V83.126ZM160.65 65.264H164.108V79.382H160.65V65.264ZM156.88 70.204H161.378V72.96H156.88V70.204ZM144.868 75.976H146.844C151.212 75.976 154.098 75.898 157.4 75.378L157.66 78.134C154.254 78.68 151.29 78.758 146.844 78.758H144.868V75.976ZM144.842 66.382H155.71V73.766H148.3V78.264H144.868V71.192H152.304V69.112H144.842V66.382ZM179.733 67.084H182.541V70.594C182.541 76.548 180.461 82.138 175.911 84.374L173.831 81.592C177.887 79.694 179.733 75.066 179.733 70.594V67.084ZM180.435 67.084H183.191V70.594C183.191 74.91 184.907 79.304 188.755 81.176L186.675 83.932C182.333 81.722 180.435 76.366 180.435 70.594V67.084ZM189.717 65.238H193.201V89.314H189.717V65.238ZM192.421 74.494H196.685V77.38H192.421V74.494ZM204.353 79.876H207.811V83.776H204.353V79.876ZM214.883 65.238H218.341V89.314H214.883V65.238ZM198.789 85.31L198.373 82.528C202.741 82.502 208.565 82.502 213.635 81.826L213.869 84.322C208.643 85.284 203.053 85.31 198.789 85.31ZM198.841 67.89H213.323V70.594H198.841V67.89ZM206.069 71.556C209.631 71.556 212.101 73.376 212.101 76.054C212.101 78.758 209.631 80.578 206.069 80.578C202.559 80.578 200.089 78.758 200.089 76.054C200.089 73.376 202.559 71.556 206.069 71.556ZM206.069 74.156C204.509 74.156 203.391 74.832 203.391 76.054C203.391 77.302 204.509 77.978 206.069 77.978C207.681 77.978 208.799 77.302 208.799 76.054C208.799 74.832 207.681 74.156 206.069 74.156ZM204.353 65.342H207.811V69.45H204.353V65.342ZM227.725 67.63H230.533V69.164C230.533 73.688 228.401 77.874 223.773 79.382L222.031 76.652C226.009 75.352 227.725 72.18 227.725 69.164V67.63ZM228.453 67.63H231.235V69.164C231.235 71.972 232.873 74.936 236.669 76.21L234.979 78.914C230.507 77.432 228.453 73.428 228.453 69.164V67.63ZM235.265 70.984H239.841V73.792H235.265V70.984ZM222.967 66.564H235.915V69.294H222.967V66.564ZM225.905 80.656H242.311V89.314H238.853V83.412H225.905V80.656ZM238.853 65.238H242.311V79.564H238.853V65.238ZM262.667 65.238H266.151V89.314H262.667V65.238ZM255.569 67.734H259.001C259.001 75.092 256.505 81.124 247.951 85.258L246.157 82.502C253.073 79.174 255.569 74.806 255.569 68.358V67.734ZM247.431 67.734H257.207V70.464H247.431V67.734ZM282.165 70.542H288.197V73.324H282.165V70.542ZM276.653 66.226C280.267 66.226 282.997 68.644 282.997 71.972C282.997 75.326 280.267 77.718 276.653 77.718C273.013 77.718 270.283 75.326 270.283 71.972C270.283 68.644 273.013 66.226 276.653 66.226ZM276.653 69.112C274.885 69.112 273.585 70.178 273.585 71.972C273.585 73.766 274.885 74.858 276.653 74.858C278.421 74.858 279.695 73.766 279.695 71.972C279.695 70.178 278.421 69.112 276.653 69.112ZM286.689 65.238H290.147V78.186H286.689V65.238ZM274.157 79.226H277.589V81.514H286.715V79.226H290.147V89.054H274.157V79.226ZM277.589 84.166V86.298H286.715V84.166H277.589ZM303.535 74.104H307.487V76.886H303.535V74.104ZM311.309 65.238H314.611V89.314H311.309V65.238ZM306.395 65.602H309.645V88.222H306.395V65.602ZM299.323 66.928C302.521 66.928 304.575 70.23 304.575 75.664C304.575 81.124 302.521 84.426 299.323 84.426C296.151 84.426 294.123 81.124 294.123 75.664C294.123 70.23 296.151 66.928 299.323 66.928ZM299.323 70.178C298.023 70.178 297.269 71.998 297.269 75.664C297.269 79.356 298.023 81.15 299.323 81.15C300.675 81.15 301.429 79.356 301.429 75.664C301.429 71.998 300.675 70.178 299.323 70.178ZM135.432 96.212H138.916V120.366H135.432V96.212ZM138.136 105.13H142.4V107.964H138.136V105.13ZM120.976 111.708H123.004C127.06 111.708 130.258 111.578 133.794 110.954L134.132 113.814C130.492 114.464 127.19 114.568 123.004 114.568H120.976V111.708ZM120.976 98.448H132.208V101.23H124.408V113.086H120.976V98.448ZM159.35 96.212H162.834V120.288H159.35V96.212ZM161.924 105.416H166.162V108.25H161.924V105.416ZM153.032 98.708H156.412C156.412 105.936 153.656 112.124 145.648 116.154L143.724 113.528C150.042 110.252 153.032 105.832 153.032 99.306V98.708ZM145.05 98.708H154.8V101.49H145.05V98.708ZM183.372 96.238H186.83V108.25H183.372V96.238ZM185.868 100.996H190.028V103.83H185.868V100.996ZM176.482 97.122H180.304C180.304 103.544 176.248 107.418 168.994 108.9L167.746 106.066C173.856 104.948 176.482 102.192 176.482 99.176V97.122ZM168.942 97.122H178.692V99.878H168.942V97.122ZM170.918 109.186H186.83V115.842H174.402V118.754H170.97V113.294H183.424V111.89H170.918V109.186ZM170.97 117.376H187.532V120.08H170.97V117.376ZM200.868 96.94H203.91V98.058C203.91 102.686 200.27 106.612 193.952 107.548L192.6 104.766C198.138 104.038 200.868 100.892 200.868 98.058V96.94ZM201.518 96.94H204.534V98.058C204.534 100.866 207.29 104.038 212.802 104.766L211.476 107.548C205.158 106.612 201.518 102.686 201.518 98.058V96.94ZM200.894 111.5H204.326V120.314H200.894V111.5ZM191.82 109.316H213.582V112.124H191.82V109.316ZM227.569 110.85H230.169V111.656C230.169 115.296 228.557 118.624 224.787 119.976L223.097 117.454C226.243 116.388 227.569 113.996 227.569 111.656V110.85ZM228.453 110.85H230.923V111.656C230.923 113.996 232.093 116.44 235.031 117.662L233.653 120.21C229.831 118.78 228.453 115.192 228.453 111.656V110.85ZM236.357 110.85H238.827V111.656C238.827 114.984 237.397 118.728 233.653 120.21L232.223 117.662C235.161 116.336 236.357 113.788 236.357 111.656V110.85ZM237.163 110.85H239.763V111.656C239.763 114.152 241.063 116.466 244.235 117.454L242.545 119.976C238.723 118.676 237.163 115.452 237.163 111.656V110.85ZM238.697 96.264H242.181V109.862H238.697V96.264ZM229.077 97.486C232.821 97.486 235.603 99.878 235.603 103.258C235.603 106.612 232.821 109.004 229.077 109.004C225.333 109.004 222.525 106.612 222.525 103.258C222.525 99.878 225.333 97.486 229.077 97.486ZM229.077 100.346C227.257 100.346 225.905 101.412 225.905 103.258C225.905 105.078 227.257 106.144 229.077 106.144C230.897 106.144 232.223 105.078 232.223 103.258C232.223 101.412 230.897 100.346 229.077 100.346ZM248.783 102.738H265.475V105.468H248.783V102.738ZM246.079 107.964H267.893V110.72H246.079V107.964ZM248.783 97.096H252.215V104.09H248.783V97.096ZM248.549 117.038H265.605V119.794H248.549V117.038ZM248.549 112.644H252.007V117.766H248.549V112.644ZM282.036 97.538C285.234 97.538 287.548 99.826 287.548 103.128C287.548 106.43 285.234 108.718 282.036 108.718C278.812 108.718 276.524 106.43 276.524 103.128C276.524 99.826 278.812 97.538 282.036 97.538ZM282.036 100.32C280.632 100.32 279.644 101.334 279.644 103.128C279.644 104.896 280.632 105.91 282.036 105.91C283.414 105.91 284.428 104.896 284.428 103.128C284.428 101.334 283.414 100.32 282.036 100.32ZM293.684 96.264H296.96V109.316H293.684V96.264ZM290.876 101.256H294.698V104.038H290.876V101.256ZM288.588 96.706H291.812V109.16H288.588V96.706ZM280.632 110.33H284.038V112.488H293.58V110.33H296.96V120.054H280.632V110.33ZM284.038 115.166V117.298H293.58V115.166H284.038ZM311.258 96.576C316.744 96.576 319.968 98.032 319.968 100.684C319.968 103.336 316.744 104.792 311.258 104.792C305.746 104.792 302.548 103.336 302.548 100.684C302.548 98.032 305.746 96.576 311.258 96.576ZM311.258 99.098C307.774 99.098 306.136 99.618 306.136 100.684C306.136 101.802 307.774 102.27 311.258 102.27C314.742 102.27 316.38 101.802 316.38 100.684C316.38 99.618 314.742 99.098 311.258 99.098ZM300.364 105.91H322.126V108.64H300.364V105.91ZM302.86 109.992H319.5V116.18H306.292V118.312H302.886V113.788H316.094V112.566H302.86V109.992ZM302.886 117.558H320.124V120.158H302.886V117.558ZM348.047 96.238H351.349V120.314H348.047V96.238ZM345.005 105.312H348.983V108.068H345.005V105.312ZM337.829 99.176H341.131C341.131 105.962 339.155 111.448 332.421 115.374L330.419 112.982C335.905 109.732 337.829 105.676 337.829 99.904V99.176ZM331.641 99.176H338.843V101.958H331.641V99.176ZM342.717 96.862H345.941V119.274H342.717V96.862ZM355.351 97.304H358.783V100.138H363.489V97.304H366.921V107.834H355.351V97.304ZM358.783 102.738V105.13H363.489V102.738H358.783ZM370.145 96.238H373.603V108.458H370.145V96.238ZM372.199 100.866H376.775V103.674H372.199V100.866ZM357.691 109.394H373.603V115.946H361.175V118.806H357.743V113.476H370.197V112.046H357.691V109.394ZM357.743 117.48H374.305V120.158H357.743V117.48ZM394.011 96.238H397.443V120.314H394.011V96.238ZM396.663 105.624H400.927V108.51H396.663V105.624ZM378.463 99.8H392.477V102.556H378.463V99.8ZM385.509 103.908C389.019 103.908 391.619 106.3 391.619 109.654C391.619 113.008 389.019 115.4 385.509 115.4C381.999 115.4 379.399 113.008 379.399 109.654C379.399 106.3 381.999 103.908 385.509 103.908ZM385.509 106.716C383.871 106.716 382.701 107.808 382.701 109.654C382.701 111.5 383.871 112.592 385.509 112.592C387.147 112.592 388.317 111.5 388.317 109.654C388.317 107.808 387.147 106.716 385.509 106.716ZM383.767 96.628H387.225V100.84H383.767V96.628ZM407.893 100.034H410.623V102.738C410.623 108.172 408.335 113.71 403.915 115.79L401.965 113.06C405.943 111.188 407.893 106.69 407.893 102.738V100.034ZM408.621 100.034H411.351V102.738C411.351 106.378 413.223 110.642 417.175 112.462L415.277 115.192C410.857 113.138 408.621 107.86 408.621 102.738V100.034ZM402.901 98.552H416.109V101.386H402.901V98.552ZM417.877 96.238H421.361V120.314H417.877V96.238ZM420.581 105.416H424.845V108.276H420.581V105.416Z" fill="white"/>
</svg>
