<svg width="375" height="812" viewBox="0 0 375 812" fill="none" xmlns="http://www.w3.org/2000/svg">
<rect width="375" height="812" fill="url(#paint0_linear_1496_2087)"/>
<path d="M160 670C155.757 670 151.687 668.264 148.686 665.174C145.686 662.084 144 657.893 144 653.522C144 642.537 160 624 160 624C160 624 176 642.537 176 653.522C176 657.893 174.314 662.084 171.314 665.174C168.313 668.264 164.243 670 160 670Z" fill="#3292FB"/>
<path fill-rule="evenodd" clip-rule="evenodd" d="M73.1473 642.828C73.1473 632.245 81.1923 623.39 91.4418 623.39C101.691 623.39 109.736 632.245 109.736 642.828C109.736 652.611 102.862 660.917 93.7286 662.117V666.84C93.7286 667.446 93.4877 668.028 93.0588 668.457C92.6299 668.885 92.0483 669.126 91.4418 669.126C90.8353 669.126 90.2536 668.885 89.8248 668.457C89.3959 668.028 89.155 667.446 89.155 666.84V662.117C80.0215 660.917 73.1473 652.611 73.1473 642.828ZM91.4418 657.692C92.2193 657.692 92.9831 657.621 93.7286 657.486V651.564L99.0203 644.157C99.1947 643.912 99.3194 643.636 99.387 643.343C99.4547 643.051 99.464 642.748 99.4145 642.451C99.3651 642.155 99.2577 641.871 99.0986 641.617C98.9396 641.362 98.7319 641.141 98.4874 640.967C98.243 640.792 97.9666 640.667 97.6739 640.6C97.3813 640.532 97.0783 640.523 96.782 640.572C96.4858 640.622 96.2022 640.729 95.9475 640.888C95.6927 641.047 95.4718 641.255 95.2973 641.499L91.1491 647.308L88.4849 644.641C88.0536 644.225 87.476 643.994 86.8764 644C86.2768 644.005 85.7032 644.245 85.2793 644.669C84.8553 645.093 84.6148 645.667 84.6096 646.266C84.6043 646.866 84.8348 647.444 85.2514 647.875L89.155 651.779V657.484C89.9005 657.621 90.6643 657.692 91.4418 657.692Z" fill="#3292FB"/>
<path d="M106 717.389H96V717.363C95.9968 716.342 95.579 715.363 94.8378 714.641C94.0966 713.919 93.0922 713.511 92.044 713.508H91.974L99.688 693.253L96.224 692L88.034 713.508H87.956C86.9078 713.511 85.9034 713.919 85.1622 714.641C84.421 715.363 84.0032 716.342 84 717.363V717.389H74V721.287H106V717.389ZM106 723.239H74L70 731H110L106 723.239Z" fill="#3292FB"/>
<path d="M286.5 668L283.383 665.051C272.31 654.616 265 647.712 265 639.289C265 632.385 270.203 627 276.825 627C280.566 627 284.157 628.81 286.5 631.647C288.844 628.81 292.434 627 296.175 627C302.797 627 308 632.385 308 639.289C308 647.712 300.69 654.616 289.618 665.051L286.5 668Z" fill="#3292FB"/>
<path d="M239.2 654.667H234.8V659.778H239.2M239.2 644.444H234.8V649.556H239.2M243.6 664.889H226V659.778H230.4V654.667H226V649.556H230.4V644.444H226V639.333H243.6M221.6 634.222H217.2V629.111H221.6M221.6 644.444H217.2V639.333H221.6M221.6 654.667H217.2V649.556H221.6M221.6 664.889H217.2V659.778H221.6M212.8 634.222H208.4V629.111H212.8M212.8 644.444H208.4V639.333H212.8M212.8 654.667H208.4V649.556H212.8M212.8 664.889H208.4V659.778H212.8M226 634.222V624H204V670H248V634.222H226Z" fill="#3292FB"/>
<path fill-rule="evenodd" clip-rule="evenodd" d="M299.715 585C300.105 585 300.488 584.902 300.828 584.715C301.168 584.528 301.454 584.259 301.659 583.933C301.864 583.606 301.98 583.234 301.998 582.851C302.015 582.468 301.933 582.087 301.759 581.744L297.699 573.75L301.759 565.756C301.933 565.413 302.015 565.032 301.998 564.649C301.98 564.266 301.864 563.894 301.659 563.567C301.454 563.241 301.168 562.972 300.828 562.785C300.488 562.598 300.105 562.5 299.715 562.5H274.572V560.25C274.572 559.653 274.331 559.081 273.902 558.659C273.473 558.237 272.892 558 272.286 558C271.68 558 271.098 558.237 270.669 558.659C270.241 559.081 270 559.653 270 560.25V600.75C270 601.347 270.241 601.919 270.669 602.341C271.098 602.763 271.68 603 272.286 603C272.892 603 273.473 602.763 273.902 602.341C274.331 601.919 274.572 601.347 274.572 600.75V585H299.715Z" fill="#3292FB"/>
<path d="M309.851 712.042L300.595 720.061L303.368 732C303.515 732.624 303.473 733.277 303.247 733.877C303.022 734.478 302.624 734.999 302.102 735.376C301.58 735.753 300.957 735.969 300.312 735.997C299.667 736.025 299.028 735.863 298.475 735.532L287.987 729.217L277.52 735.532C276.968 735.863 276.329 736.025 275.684 735.997C275.039 735.969 274.416 735.753 273.894 735.376C273.372 734.999 272.974 734.478 272.748 733.877C272.523 733.277 272.481 732.624 272.628 732L275.396 720.073L266.139 712.042C265.649 711.623 265.295 711.07 265.121 710.452C264.947 709.833 264.961 709.178 265.16 708.567C265.36 707.957 265.737 707.418 266.244 707.02C266.75 706.621 267.364 706.379 268.009 706.326L280.211 705.277L284.974 693.998C285.223 693.406 285.642 692.901 286.18 692.545C286.717 692.19 287.349 692 287.995 692C288.641 692 289.272 692.19 289.81 692.545C290.347 692.901 290.767 693.406 291.016 693.998L295.793 705.277L307.991 706.326C308.636 706.379 309.25 706.621 309.756 707.02C310.263 707.418 310.64 707.957 310.84 708.567C311.039 709.178 311.053 709.833 310.879 710.452C310.705 711.07 310.351 711.623 309.861 712.042H309.851Z" fill="#3292FB"/>
<path fill-rule="evenodd" clip-rule="evenodd" d="M151.361 732.037C144.445 726.201 135 716.56 135 707.444C135 692.215 147.925 686.529 158.5 698.29C169.075 686.529 182 692.215 182 707.444C182 716.56 172.553 726.201 165.639 732.037C162.509 734.677 160.944 736 158.5 736C156.056 736 154.491 734.68 151.361 732.037ZM169.075 700.412C169.542 700.412 169.991 700.616 170.321 700.981C170.652 701.345 170.837 701.838 170.837 702.353V705.588H173.775C174.242 705.588 174.691 705.793 175.021 706.157C175.352 706.521 175.537 707.015 175.537 707.53C175.537 708.044 175.352 708.538 175.021 708.902C174.691 709.266 174.242 709.471 173.775 709.471H170.837V712.706C170.837 713.221 170.652 713.715 170.321 714.079C169.991 714.443 169.542 714.647 169.075 714.647C168.608 714.647 168.159 714.443 167.829 714.079C167.498 713.715 167.312 713.221 167.312 712.706V709.471H164.375C163.908 709.471 163.459 709.266 163.129 708.902C162.798 708.538 162.612 708.044 162.612 707.53C162.612 707.015 162.798 706.521 163.129 706.157C163.459 705.793 163.908 705.588 164.375 705.588H167.312V702.353C167.312 701.838 167.498 701.345 167.829 700.981C168.159 700.616 168.608 700.412 169.075 700.412Z" fill="#3292FB"/>
<path d="M118.269 568.105C119.244 567.13 119.244 565.505 118.269 564.58L112.42 558.731C111.495 557.756 109.87 557.756 108.895 558.731L104.296 563.306L113.669 572.679M74 593.626V603H83.3737L111.02 575.329L101.646 565.955L74 593.626Z" fill="#3292FB"/>
<path d="M181 588H166.333V603H151.667V588H137V573H151.667V558H166.333V573H181" fill="#3292FB"/>
<path d="M239.444 714C238.472 714 237.539 713.614 236.852 712.926C236.164 712.238 235.778 711.306 235.778 710.333C235.778 709.361 236.164 708.428 236.852 707.741C237.539 707.053 238.472 706.667 239.444 706.667C240.417 706.667 241.35 707.053 242.037 707.741C242.725 708.428 243.111 709.361 243.111 710.333C243.111 711.306 242.725 712.238 242.037 712.926C241.35 713.614 240.417 714 239.444 714ZM232.111 704.222C231.139 704.222 230.206 703.836 229.518 703.148C228.831 702.461 228.444 701.528 228.444 700.556C228.444 699.583 228.831 698.65 229.518 697.963C230.206 697.275 231.139 696.889 232.111 696.889C233.084 696.889 234.016 697.275 234.704 697.963C235.391 698.65 235.778 699.583 235.778 700.556C235.778 701.528 235.391 702.461 234.704 703.148C234.016 703.836 233.084 704.222 232.111 704.222ZM219.889 704.222C218.916 704.222 217.984 703.836 217.296 703.148C216.609 702.461 216.222 701.528 216.222 700.556C216.222 699.583 216.609 698.65 217.296 697.963C217.984 697.275 218.916 696.889 219.889 696.889C220.861 696.889 221.794 697.275 222.482 697.963C223.169 698.65 223.556 699.583 223.556 700.556C223.556 701.528 223.169 702.461 222.482 703.148C221.794 703.836 220.861 704.222 219.889 704.222ZM212.556 714C211.583 714 210.65 713.614 209.963 712.926C209.275 712.238 208.889 711.306 208.889 710.333C208.889 709.361 209.275 708.428 209.963 707.741C210.65 707.053 211.583 706.667 212.556 706.667C213.528 706.667 214.461 707.053 215.148 707.741C215.836 708.428 216.222 709.361 216.222 710.333C216.222 711.306 215.836 712.238 215.148 712.926C214.461 713.614 213.528 714 212.556 714ZM226 692C220.165 692 214.569 694.318 210.444 698.444C206.318 702.569 204 708.165 204 714C204 719.835 206.318 725.431 210.444 729.556C214.569 733.682 220.165 736 226 736C226.972 736 227.905 735.614 228.593 734.926C229.28 734.238 229.667 733.306 229.667 732.333C229.667 731.38 229.3 730.524 228.713 729.889C228.151 729.229 227.784 728.373 227.784 727.444C227.784 726.472 228.171 725.539 228.858 724.852C229.546 724.164 230.479 723.778 231.451 723.778H235.778C239.019 723.778 242.128 722.49 244.42 720.198C246.712 717.906 248 714.797 248 711.556C248 700.751 238.149 692 226 692Z" fill="#3292FB"/>
<path d="M226 558C238.151 558 248 568.073 248 580.5C248 592.927 238.151 603 226 603C213.849 603 204 592.927 204 580.5C204 568.073 213.849 558 226 558ZM234.809 582.476C234.05 581.294 233.502 580.444 231.416 580.781C227.478 581.42 227.041 582.125 226.854 583.286L226.801 583.636L226.746 584.01C226.532 585.547 226.539 586.127 227.23 586.867C230.013 589.855 231.68 592.009 232.186 593.269C232.433 593.883 233.066 595.744 232.631 597.584C235.301 596.496 237.678 594.771 239.563 592.551C239.805 591.71 239.981 590.661 239.981 589.392V589.156C239.981 587.081 239.981 586.134 238.547 585.295C238.086 585.027 237.612 584.783 237.128 584.563C236.32 584.188 235.786 583.943 235.064 582.863C234.977 582.735 234.892 582.606 234.809 582.476ZM226 562.124C220.903 562.124 216.298 564.298 213.029 567.785C213.418 568.062 213.757 568.451 213.99 568.987C214.439 570.015 214.439 571.075 214.439 572.013C214.439 572.751 214.439 573.453 214.67 573.959C214.987 574.652 216.355 574.949 217.563 575.206C217.996 575.3 218.441 575.395 218.846 575.509C219.959 575.824 220.821 576.848 221.51 577.669C221.796 578.009 222.22 578.511 222.434 578.637C222.544 578.556 222.898 578.162 223.072 577.516C223.208 577.021 223.169 576.585 222.973 576.347C221.741 574.862 221.809 572.004 222.19 570.949C222.788 569.286 224.658 569.41 226.026 569.5C226.537 569.534 227.016 569.567 227.377 569.52C228.746 569.344 229.168 567.214 229.465 566.797C230.107 565.897 232.074 564.541 233.293 563.704C230.997 562.66 228.512 562.122 226 562.124Z" fill="#3292FB"/>
<defs>
<linearGradient id="paint0_linear_1496_2087" x1="187" y1="292" x2="187.5" y2="812" gradientUnits="userSpaceOnUse">
<stop stop-color="white"/>
<stop offset="0.465" stop-color="#C8E2FF"/>
<stop offset="1" stop-color="#3292FB"/>
</linearGradient>
</defs>
</svg>
