<svg width="304" height="30" viewBox="0 0 304 30" fill="none" xmlns="http://www.w3.org/2000/svg">
<path d="M49.7433 13.9187V15.7177H44.1772V13.9187H49.7433ZM61.2632 8.63636V21H59.0235V10.8157H58.9511L56.0594 12.663V10.6104L59.1322 8.63636H61.2632ZM68.6947 8.46733C69.2863 8.47135 69.8618 8.57599 70.4213 8.78125C70.9847 8.98248 71.4918 9.3125 71.9426 9.77131C72.3933 10.2261 72.7515 10.8358 73.0171 11.6005C73.2828 12.3652 73.4156 13.311 73.4156 14.4379C73.4196 15.5004 73.3069 16.4502 73.0775 17.2873C72.8521 18.1204 72.5281 18.8247 72.1056 19.4002C71.683 19.9757 71.1739 20.4144 70.5782 20.7163C69.9826 21.0181 69.3125 21.169 68.5679 21.169C67.7871 21.169 67.0949 21.0161 66.4912 20.7102C65.8915 20.4044 65.4066 19.9858 65.0363 19.4545C64.666 18.9233 64.4387 18.3156 64.3541 17.6314H66.5576C66.6703 18.1224 66.8997 18.5128 67.2458 18.8026C67.596 19.0883 68.0367 19.2312 68.5679 19.2312C69.4252 19.2312 70.0852 18.8589 70.548 18.1143C71.0109 17.3698 71.2423 16.3355 71.2423 15.0114H71.1578C70.9606 15.3655 70.705 15.6714 70.3911 15.929C70.0771 16.1825 69.721 16.3777 69.3225 16.5146C68.9281 16.6514 68.5096 16.7198 68.0669 16.7198C67.3424 16.7198 66.6904 16.5468 66.1109 16.2006C65.5354 15.8545 65.0786 15.3796 64.7405 14.7759C64.4065 14.1722 64.2374 13.482 64.2334 12.7053C64.2334 11.9003 64.4185 11.1779 64.7888 10.538C65.1631 9.89406 65.6843 9.38696 66.3524 9.01669C67.0204 8.6424 67.8012 8.45928 68.6947 8.46733ZM68.7007 10.2784C68.2661 10.2784 67.8737 10.3851 67.5235 10.5984C67.1774 10.8076 66.9037 11.0934 66.7025 11.4556C66.5053 11.8138 66.4067 12.2143 66.4067 12.657C66.4107 13.0956 66.5093 13.4941 66.7025 13.8523C66.8997 14.2105 67.1673 14.4942 67.5054 14.7035C67.8475 14.9128 68.2379 15.0174 68.6766 15.0174C69.0026 15.0174 69.3064 14.955 69.5882 14.8303C69.8699 14.7055 70.1154 14.5324 70.3247 14.3111C70.538 14.0857 70.703 13.8301 70.8197 13.5444C70.9404 13.2586 70.9988 12.9568 70.9948 12.6388C70.9948 12.2163 70.8941 11.8259 70.6929 11.4677C70.4957 11.1095 70.224 10.8217 69.8779 10.6044C69.5358 10.3871 69.1434 10.2784 68.7007 10.2784ZM79.9958 21.2354C79.0017 21.2354 78.1485 20.9839 77.4362 20.4808C76.7278 19.9737 76.1825 19.2433 75.8002 18.2894C75.4218 17.3316 75.2327 16.1785 75.2327 14.8303C75.2367 13.482 75.4279 12.335 75.8062 11.3892C76.1885 10.4394 76.7339 9.71496 77.4422 9.21591C78.1546 8.71686 79.0058 8.46733 79.9958 8.46733C80.9859 8.46733 81.8371 8.71686 82.5494 9.21591C83.2618 9.71496 83.8071 10.4394 84.1855 11.3892C84.5678 12.339 84.759 13.486 84.759 14.8303C84.759 16.1825 84.5678 17.3376 84.1855 18.2955C83.8071 19.2493 83.2618 19.9777 82.5494 20.4808C81.8411 20.9839 80.9899 21.2354 79.9958 21.2354ZM79.9958 19.3459C80.7686 19.3459 81.3783 18.9656 81.825 18.2049C82.2758 17.4402 82.5012 16.3153 82.5012 14.8303C82.5012 13.8482 82.3985 13.0232 82.1933 12.3551C81.988 11.687 81.6982 11.1839 81.324 10.8459C80.9497 10.5038 80.507 10.3327 79.9958 10.3327C79.2271 10.3327 78.6194 10.7151 78.1727 11.4798C77.7259 12.2404 77.5006 13.3572 77.4965 14.8303C77.4925 15.8163 77.5911 16.6454 77.7923 17.3175C77.9976 17.9896 78.2874 18.4967 78.6617 18.8388C79.036 19.1768 79.4807 19.3459 79.9958 19.3459ZM86.8855 21V8.63636H91.5218C92.4717 8.63636 93.2685 8.81345 93.9125 9.16761C94.5604 9.52178 95.0494 10.0088 95.3794 10.6286C95.7135 11.2443 95.8805 11.9446 95.8805 12.7294C95.8805 13.5223 95.7135 14.2266 95.3794 14.8423C95.0454 15.4581 94.5524 15.9431 93.9004 16.2972C93.2484 16.6474 92.4455 16.8224 91.4917 16.8224H88.4189V14.9812H91.1898C91.7452 14.9812 92.2 14.8846 92.5542 14.6914C92.9083 14.4982 93.1699 14.2326 93.339 13.8945C93.512 13.5565 93.5985 13.1681 93.5985 12.7294C93.5985 12.2907 93.512 11.9044 93.339 11.5703C93.1699 11.2363 92.9063 10.9767 92.5481 10.7915C92.194 10.6024 91.7372 10.5078 91.1777 10.5078H89.1252V21H86.8855Z" fill="#F92407"/>
<circle cx="15" cy="15" r="15" fill="#F4F5F9"/>
<path d="M9.89583 9H15.3125C15.8151 9.00054 16.297 9.20185 16.6525 9.55976C17.0079 9.91766 17.2078 10.4029 17.2083 10.9091V14.4545H12.0161L13.7996 12.6583C13.8969 12.5552 13.9503 12.4179 13.9485 12.2756C13.9467 12.1334 13.8898 11.9975 13.7899 11.8969C13.69 11.7963 13.555 11.739 13.4138 11.7372C13.2725 11.7354 13.1362 11.7892 13.0338 11.8872L10.3254 14.6144C10.2239 14.7167 10.1669 14.8554 10.1669 15C10.1669 15.1446 10.2239 15.2833 10.3254 15.3856L13.0338 18.1128C13.1362 18.2108 13.2725 18.2646 13.4138 18.2628C13.555 18.261 13.69 18.2037 13.7899 18.1031C13.8898 18.0025 13.9467 17.8666 13.9485 17.7244C13.9503 17.5821 13.8969 17.4448 13.7996 17.3417L12.0161 15.5455H17.2083V19.0909C17.2083 20.1835 16.0644 21 15.0417 21H9.89583C9.39319 20.9995 8.91129 20.7981 8.55587 20.4402C8.20045 20.0823 8.00054 19.5971 8 19.0909V10.9091C8.00054 10.4029 8.20045 9.91766 8.55587 9.55976C8.91129 9.20185 9.39319 9.00054 9.89583 9ZM20.4583 14.4545C20.602 14.4545 20.7398 14.512 20.8413 14.6143C20.9429 14.7166 21 14.8553 21 15C21 15.1447 20.9429 15.2834 20.8413 15.3857C20.7398 15.488 20.602 15.5455 20.4583 15.5455H17.2083V14.4545H20.4583Z" fill="#F92407"/>
<path d="M226.475 8.988H227.087V9.33C227.087 10.752 226.178 11.904 224.819 12.363L224.459 11.778C225.665 11.4 226.475 10.428 226.475 9.33V8.988ZM226.61 8.988H227.222V9.33C227.222 10.338 228.014 11.265 229.202 11.625L228.842 12.21C227.492 11.778 226.61 10.662 226.61 9.33V8.988ZM224.675 8.565H229.013V9.168H224.675V8.565ZM226.475 7.53H227.222V8.862H226.475V7.53ZM230.012 7.566H230.759V12.525H230.012V7.566ZM230.552 9.735H231.965V10.356H230.552V9.735ZM225.476 12.957H230.759V15.711H230.012V13.569H225.476V12.957ZM238.291 7.575H239.038V13.677H238.291V7.575ZM238.804 10.239H240.244V10.869H238.804V10.239ZM232.747 8.556H237.553V9.159H232.747V8.556ZM235.15 9.609C236.302 9.609 237.094 10.212 237.094 11.13C237.094 12.039 236.302 12.642 235.15 12.642C233.989 12.642 233.197 12.039 233.197 11.13C233.197 10.212 233.989 9.609 235.15 9.609ZM235.15 10.194C234.412 10.194 233.908 10.563 233.908 11.13C233.908 11.688 234.412 12.057 235.15 12.057C235.879 12.057 236.383 11.688 236.383 11.13C236.383 10.563 235.879 10.194 235.15 10.194ZM234.772 7.566H235.519V8.871H234.772V7.566ZM233.971 14.91H239.407V15.522H233.971V14.91ZM233.971 13.191H234.718V15.171H233.971V13.191ZM241.009 14.028H248.38V14.649H241.009V14.028ZM244.285 12.057H245.023V14.235H244.285V12.057ZM244.267 8.106H244.915V8.736C244.915 10.473 243.25 11.814 241.612 12.156L241.297 11.535C242.728 11.274 244.267 10.077 244.267 8.736V8.106ZM244.402 8.106H245.05V8.736C245.05 10.086 246.598 11.274 248.029 11.535L247.705 12.156C246.067 11.814 244.402 10.473 244.402 8.736V8.106ZM255.192 7.557H255.939V15.711H255.192V7.557ZM249.747 8.25H250.485V10.401H252.834V8.25H253.581V13.749H249.747V8.25ZM250.485 10.995V13.137H252.834V10.995H250.485ZM259.949 14.073H267.32V14.694H259.949V14.073ZM263.234 11.967H263.981V14.352H263.234V11.967ZM260.588 8.34H266.627V8.952H260.588V8.34ZM260.606 11.616H266.618V12.219H260.606V11.616ZM261.857 8.835H262.604V11.724H261.857V8.835ZM264.629 8.835H265.367V11.724H264.629V8.835ZM274.141 7.575H274.897V13.515H274.141V7.575ZM269.668 14.91H275.14V15.522H269.668V14.91ZM269.668 12.903H270.406V15.117H269.668V12.903ZM270.532 8.133C271.747 8.133 272.647 8.961 272.647 10.14C272.647 11.31 271.747 12.147 270.532 12.147C269.317 12.147 268.408 11.31 268.408 10.14C268.408 8.961 269.317 8.133 270.532 8.133ZM270.532 8.781C269.74 8.781 269.137 9.339 269.137 10.14C269.137 10.932 269.74 11.49 270.532 11.49C271.324 11.49 271.927 10.932 271.927 10.14C271.927 9.339 271.324 8.781 270.532 8.781ZM277.453 11.949H283.042V12.552H277.453V11.949ZM276.508 14.037H283.879V14.658H276.508V14.037ZM277.453 8.259H282.952V8.871H278.209V12.138H277.453V8.259ZM277.966 10.077H282.781V10.671H277.966V10.077ZM289.158 8.268H289.77V9.726C289.77 11.526 288.798 13.281 287.511 13.965L287.052 13.371C288.231 12.777 289.158 11.211 289.158 9.726V8.268ZM289.293 8.268H289.896V9.726C289.896 11.157 290.805 12.642 291.957 13.218L291.498 13.812C290.238 13.137 289.293 11.472 289.293 9.726V8.268ZM292.668 7.566H293.424V15.702H292.668V7.566ZM293.244 10.86H294.756V11.49H293.244V10.86ZM297.257 10.32H297.995V11.859H297.257V10.32ZM300.245 10.32H300.983V11.859H300.245V10.32ZM295.439 11.589H302.792V12.192H295.439V11.589ZM299.111 12.804C300.857 12.804 301.901 13.317 301.901 14.244C301.901 15.171 300.857 15.693 299.111 15.693C297.365 15.693 296.321 15.171 296.321 14.244C296.321 13.317 297.365 12.804 299.111 12.804ZM299.111 13.38C297.842 13.38 297.077 13.695 297.077 14.244C297.077 14.802 297.842 15.108 299.111 15.108C300.389 15.108 301.145 14.802 301.145 14.244C301.145 13.695 300.389 13.38 299.111 13.38ZM299.12 7.71C300.884 7.71 301.982 8.277 301.982 9.231C301.982 10.176 300.884 10.734 299.12 10.734C297.347 10.734 296.258 10.176 296.258 9.231C296.258 8.277 297.347 7.71 299.12 7.71ZM299.12 8.295C297.824 8.295 297.023 8.637 297.023 9.231C297.023 9.816 297.824 10.158 299.12 10.158C300.416 10.158 301.217 9.816 301.217 9.231C301.217 8.637 300.416 8.295 299.12 8.295Z" fill="#B6B6B6"/>
</svg>
