<svg width="254" height="290" viewBox="0 0 254 290" fill="none" xmlns="http://www.w3.org/2000/svg">
<path d="M250 65.5V20C250 11.1634 242.837 4 234 4H188.5M4 65.5V20C4 11.1634 11.1634 4 20 4H65.5M4 188.5V234C4 242.837 11.1634 250 20 250H65.5M250 188.5V234C250 242.837 242.837 250 234 250H188.5" stroke="#076CDB" stroke-width="8"/>
<path d="M24.125 274.765H26.105V282.835H24.125V274.765ZM24.125 282.325H25.1C26.78 282.325 28.175 282.265 29.78 281.935L30.035 283.6C28.37 283.96 26.87 284.02 25.1 284.02H24.125V282.325ZM33.665 273.445H35.57V287.335H33.665V273.445ZM27.995 277.825H31.16V279.43H27.995V277.825ZM30.725 273.685H32.585V286.72H30.725V273.685ZM37.4138 284.11H49.9838V285.73H37.4138V284.11ZM42.6788 281.035H44.6738V284.485H42.6788V281.035ZM38.7188 274.465H48.6038V281.29H38.7188V274.465ZM46.6538 276.055H40.6838V279.715H46.6538V276.055ZM63.6093 273.445H65.6043V283.54H63.6093V273.445ZM65.0343 277.42H67.4493V279.055H65.0343V277.42ZM56.6493 285.505H66.0993V287.095H56.6493V285.505ZM56.6493 282.49H58.6443V286.21H56.6493V282.49ZM58.5393 274.33C60.6693 274.33 62.3193 275.815 62.3193 277.87C62.3193 279.91 60.6693 281.395 58.5393 281.395C56.4093 281.395 54.7593 279.91 54.7593 277.87C54.7593 275.815 56.4093 274.33 58.5393 274.33ZM58.5393 276.07C57.5193 276.07 56.7093 276.73 56.7093 277.87C56.7093 278.995 57.5193 279.655 58.5393 279.655C59.5743 279.655 60.3693 278.995 60.3693 277.87C60.3693 276.73 59.5743 276.07 58.5393 276.07ZM74.0182 278.56H76.2982V280.165H74.0182V278.56ZM78.5032 273.445H80.4082V287.335H78.5032V273.445ZM75.6682 273.655H77.5432V286.705H75.6682V273.655ZM71.5882 274.42C73.4332 274.42 74.6182 276.325 74.6182 279.46C74.6182 282.61 73.4332 284.515 71.5882 284.515C69.7582 284.515 68.5882 282.61 68.5882 279.46C68.5882 276.325 69.7582 274.42 71.5882 274.42ZM71.5882 276.295C70.8382 276.295 70.4032 277.345 70.4032 279.46C70.4032 281.59 70.8382 282.625 71.5882 282.625C72.3682 282.625 72.8032 281.59 72.8032 279.46C72.8032 277.345 72.3682 276.295 71.5882 276.295ZM94.6187 273.445H96.6287V287.335H94.6187V273.445ZM96.1787 278.62H98.6387V280.27H96.1787V278.62ZM86.1587 274.54H88.1387V277.915H90.9287V274.54H92.9087V284.125H86.1587V274.54ZM88.1387 279.46V282.52H90.9287V279.46H88.1387ZM100.963 274.6H109.708V276.19H100.963V274.6ZM99.5375 284.14H112.093V285.745H99.5375V284.14ZM108.913 274.6H110.878V275.815C110.878 277.495 110.893 279.46 110.248 282.475L108.283 282.265C108.913 279.445 108.913 277.42 108.913 275.815V274.6ZM109.273 277.945V279.445L100.798 279.91L100.528 278.215L109.273 277.945ZM103.993 280.81H105.988V284.725H103.993V280.81ZM114.806 279.85H124.571V281.44H114.806V279.85ZM113.351 284.035H125.921V285.67H113.351V284.035ZM114.806 274.585H124.466V276.205H116.786V280.51H114.806V274.585ZM127.135 279.67H139.72V281.125H127.135V279.67ZM128.545 281.815H138.22V285.115H130.555V286.3H128.575V283.855H136.255V283.165H128.545V281.815ZM128.575 285.88H138.61V287.23H128.575V285.88ZM128.68 273.685H138.19V276.955H130.675V278.095H128.695V275.71H136.225V275.02H128.68V273.685ZM128.695 277.675H138.445V279.025H128.695V277.675ZM153.946 273.46H155.956V283.435H153.946V273.46ZM146.701 285.505H156.301V287.095H146.701V285.505ZM146.701 282.43H148.696V286.15H146.701V282.43ZM148.396 274.33C150.526 274.33 152.161 275.8 152.161 277.855C152.161 279.895 150.526 281.38 148.396 281.38C146.266 281.38 144.616 279.895 144.616 277.855C144.616 275.8 146.266 274.33 148.396 274.33ZM148.396 276.055C147.361 276.055 146.566 276.715 146.566 277.855C146.566 278.98 147.361 279.64 148.396 279.64C149.416 279.64 150.211 278.98 150.211 277.855C150.211 276.715 149.416 276.055 148.396 276.055ZM161.459 274.075H163.109V275.41C163.109 278.035 161.834 280.42 159.119 281.29L158.144 279.715C160.484 278.965 161.459 277.165 161.459 275.41V274.075ZM161.864 274.075H163.499V275.41C163.499 277.12 164.459 278.8 166.724 279.49L165.749 281.05C163.094 280.21 161.864 277.99 161.864 275.41V274.075ZM160.274 282.34H169.754V287.335H167.744V283.93H160.274V282.34ZM167.744 273.445H169.754V281.725H167.744V273.445ZM171.988 275.53H178.633V277.12H171.988V275.53ZM175.333 277.735C177.103 277.735 178.378 279.1 178.378 281.05C178.378 282.985 177.103 284.35 175.333 284.35C173.578 284.35 172.288 282.985 172.288 281.05C172.288 279.1 173.578 277.735 175.333 277.735ZM175.333 279.4C174.583 279.4 174.058 280 174.058 281.05C174.058 282.1 174.583 282.685 175.333 282.685C176.083 282.685 176.623 282.1 176.623 281.05C176.623 280 176.083 279.4 175.333 279.4ZM182.038 273.445H183.943V287.335H182.038V273.445ZM180.373 279.085H182.668V280.69H180.373V279.085ZM179.128 273.7H180.988V286.75H179.128V273.7ZM174.358 273.82H176.323V276.535H174.358V273.82ZM194.419 274.99H196.144V275.395C196.144 277.84 194.149 279.835 190.624 280.315L189.889 278.755C192.949 278.38 194.419 276.82 194.419 275.395V274.99ZM194.989 274.99H196.714V275.395C196.714 276.82 198.184 278.38 201.244 278.755L200.524 280.315C196.984 279.835 194.989 277.84 194.989 275.395V274.99ZM194.524 282.25H196.504V287.35H194.524V282.25ZM189.289 281.11H201.844V282.7H189.289V281.11ZM190.399 274.15H200.704V275.725H190.399V274.15ZM208.548 278.11H210.843V279.73H208.548V278.11ZM205.578 274.645H207.108V276.985C207.108 280.135 206.238 283.21 204.018 284.575L202.818 283.075C204.858 281.815 205.578 279.34 205.578 276.985V274.645ZM206.013 274.645H207.513V276.895C207.513 279.16 208.098 281.47 209.988 282.7L208.908 284.26C206.703 282.895 206.013 279.895 206.013 276.895V274.645ZM213.108 273.445H215.013V287.335H213.108V273.445ZM210.288 273.655H212.148V286.705H210.288V273.655ZM219.646 280.495H221.626V284.395H219.646V280.495ZM224.686 280.495H226.681V284.395H224.686V280.495ZM216.886 284.11H229.456V285.73H216.886V284.11ZM223.156 274.12C226.141 274.12 228.346 275.59 228.346 277.855C228.346 280.12 226.141 281.575 223.156 281.575C220.156 281.575 217.966 280.12 217.966 277.855C217.966 275.59 220.156 274.12 223.156 274.12ZM223.156 275.68C221.221 275.68 219.931 276.475 219.931 277.855C219.931 279.22 221.221 280.03 223.156 280.03C225.091 280.03 226.381 279.22 226.381 277.855C226.381 276.475 225.091 275.68 223.156 275.68Z" fill="#076CDB"/>
</svg>
