<svg width="486" height="177" viewBox="0 0 486 177" fill="none" xmlns="http://www.w3.org/2000/svg">
<rect x="58.6957" width="427.304" height="177" rx="30" fill="#83BDFD"/>
<path d="M34.0736 127.071C22.0927 122.475 22.0927 105.525 34.0736 100.929L69.0291 87.5192C78.1974 84.0021 88.0435 90.7707 88.0435 100.59V127.41C88.0435 137.229 78.1974 143.998 69.0291 140.481L34.0736 127.071Z" fill="#83BDFD"/>
<path d="M134.21 66.56H141.53V69.77H134.21V66.56ZM126.65 60.02H129.89V64.04C129.89 71.03 127.52 77.48 122.3 80.09L119.81 76.88C124.55 74.69 126.65 69.32 126.65 64.04V60.02ZM127.49 60.02H130.67V64.04C130.67 69.32 132.68 74.39 137.27 76.43L134.9 79.61C129.68 77.09 127.49 70.97 127.49 64.04V60.02ZM139.55 57.86H143.51V85.73H139.55V57.86ZM167.148 57.86H171.108V85.73H167.148V57.86ZM160.848 67.64H168.288V70.85H160.848V67.64ZM148.818 60.05H152.778V66.77H158.238V60.05H162.168V79.19H148.818V60.05ZM152.778 69.86V75.98H158.238V69.86H152.778Z" fill="#076CDB"/>
<path d="M354.864 72.312H359.152V78.424H354.864V72.312ZM354.832 61.752H358.224V62.424C358.224 67.384 355.568 71.704 349.936 73.208L348.016 69.944C352.752 68.696 354.832 65.592 354.832 62.424V61.752ZM355.728 61.752H359.152V62.424C359.152 65.464 361.296 68.472 366 69.688L364.112 72.952C358.48 71.512 355.728 67.256 355.728 62.424V61.752ZM348.912 59.704H365.136V63.064H348.912V59.704ZM354.864 56.472H359.152V61.176H354.864V56.472ZM367.76 56.184H372.016V85.912H367.76V56.184ZM347.92 80.408L347.408 76.952C352.592 76.952 359.888 76.888 366.128 75.96L366.448 79.064C360.016 80.312 353.04 80.376 347.92 80.408ZM378.19 58.872H392.43V78.808H378.19V58.872ZM388.27 62.2H382.382V75.448H388.27V62.2ZM397.038 56.184H401.326V85.912H397.038V56.184ZM406.955 75.8H409.035C412.555 75.8 415.659 75.736 419.307 75.16L419.627 78.584C415.851 79.224 412.651 79.32 409.035 79.32H406.955V75.8ZM406.923 59.096H418.155V70.552H411.083V77.08H406.955V67.192H414.027V62.488H406.923V59.096ZM427.563 56.216H431.595V85.848H427.563V56.216ZM423.595 67.416H428.523V70.808H423.595V67.416ZM420.939 56.728H424.875V84.44H420.939V56.728Z" fill="white"/>
<path d="M132.692 131.115C130.455 131.115 128.467 130.81 126.727 130.199C124.994 129.595 123.531 128.704 122.337 127.525C121.144 126.353 120.239 124.922 119.621 123.232C119.003 121.541 118.69 119.609 118.683 117.436C118.69 115.312 119.006 113.398 119.631 111.694C120.256 109.982 121.169 108.519 122.369 107.305C123.57 106.083 125.036 105.146 126.769 104.492C128.502 103.839 130.473 103.512 132.682 103.512C134.763 103.512 136.606 103.828 138.211 104.46C139.823 105.092 141.183 105.973 142.291 107.102C143.406 108.224 144.248 109.538 144.816 111.044C145.391 112.543 145.679 114.169 145.679 115.923C145.679 117.138 145.587 118.288 145.402 119.375C145.217 120.455 144.901 121.413 144.454 122.251C144.013 123.089 143.413 123.757 142.653 124.254C141.893 124.744 140.942 125.011 139.798 125.053C139.081 125.089 138.452 125.021 137.913 124.851C137.373 124.68 136.936 124.414 136.602 124.052C136.276 123.683 136.07 123.232 135.984 122.699H135.857C135.693 123.125 135.384 123.516 134.93 123.871C134.482 124.219 133.928 124.492 133.268 124.691C132.607 124.883 131.872 124.961 131.062 124.925C130.196 124.883 129.393 124.684 128.655 124.329C127.923 123.967 127.284 123.462 126.737 122.816C126.197 122.163 125.778 121.374 125.48 120.451C125.182 119.528 125.033 118.48 125.033 117.308C125.033 116.165 125.196 115.156 125.523 114.283C125.849 113.409 126.286 112.663 126.833 112.045C127.387 111.428 128.012 110.945 128.708 110.597C129.404 110.241 130.121 110.014 130.86 109.915C131.627 109.808 132.348 109.819 133.023 109.947C133.697 110.075 134.259 110.27 134.706 110.533C135.161 110.795 135.445 111.083 135.558 111.396H135.707V110.202H138.68V120.344C138.687 120.877 138.815 121.307 139.063 121.634C139.319 121.96 139.674 122.124 140.129 122.124C140.697 122.124 141.155 121.9 141.503 121.452C141.858 120.998 142.114 120.302 142.27 119.364C142.433 118.42 142.511 117.212 142.504 115.742C142.511 114.535 142.352 113.441 142.025 112.461C141.705 111.474 141.251 110.607 140.661 109.862C140.072 109.116 139.365 108.494 138.541 107.997C137.724 107.493 136.815 107.113 135.814 106.857C134.813 106.602 133.744 106.474 132.607 106.474C130.867 106.474 129.337 106.74 128.016 107.273C126.695 107.798 125.587 108.548 124.692 109.521C123.804 110.494 123.133 111.648 122.678 112.983C122.231 114.311 122.007 115.781 122.007 117.393C122.007 119.119 122.241 120.65 122.71 121.985C123.186 123.313 123.882 124.432 124.798 125.341C125.714 126.25 126.847 126.939 128.197 127.408C129.553 127.876 131.112 128.111 132.874 128.111C133.683 128.111 134.475 128.047 135.249 127.919C136.023 127.791 136.719 127.642 137.337 127.472C137.955 127.301 138.431 127.152 138.765 127.024L139.67 129.73C139.23 129.957 138.634 130.178 137.881 130.391C137.135 130.604 136.311 130.778 135.409 130.913C134.514 131.048 133.609 131.115 132.692 131.115ZM131.947 121.868C132.849 121.868 133.57 121.694 134.109 121.346C134.649 120.991 135.036 120.465 135.271 119.769C135.505 119.073 135.619 118.207 135.612 117.17C135.612 116.204 135.491 115.412 135.249 114.794C135.008 114.176 134.621 113.718 134.088 113.42C133.555 113.121 132.849 112.972 131.968 112.972C131.173 112.972 130.494 113.153 129.933 113.516C129.379 113.878 128.953 114.379 128.655 115.018C128.364 115.65 128.218 116.371 128.218 117.18C128.218 117.99 128.335 118.754 128.57 119.471C128.811 120.181 129.202 120.76 129.741 121.207C130.288 121.648 131.023 121.868 131.947 121.868ZM148.952 125V108.636H152.638V111.417H152.83C153.171 110.479 153.736 109.748 154.524 109.222C155.312 108.69 156.253 108.423 157.347 108.423C158.455 108.423 159.389 108.693 160.149 109.233C160.916 109.766 161.456 110.494 161.768 111.417H161.939C162.301 110.508 162.912 109.783 163.771 109.244C164.638 108.697 165.664 108.423 166.85 108.423C168.356 108.423 169.584 108.899 170.536 109.851C171.488 110.803 171.964 112.191 171.964 114.016V125H168.096V114.613C168.096 113.597 167.827 112.855 167.287 112.386C166.747 111.911 166.086 111.673 165.305 111.673C164.375 111.673 163.647 111.964 163.121 112.546C162.603 113.121 162.344 113.871 162.344 114.794V125H158.562V114.453C158.562 113.608 158.306 112.933 157.795 112.429C157.29 111.925 156.63 111.673 155.813 111.673C155.259 111.673 154.755 111.815 154.3 112.099C153.846 112.376 153.483 112.77 153.214 113.281C152.944 113.786 152.809 114.375 152.809 115.05V125H148.952ZM175.876 125V108.636H179.733V125H175.876ZM177.815 106.314C177.204 106.314 176.679 106.112 176.238 105.707C175.798 105.295 175.578 104.801 175.578 104.226C175.578 103.643 175.798 103.15 176.238 102.745C176.679 102.333 177.204 102.127 177.815 102.127C178.433 102.127 178.958 102.333 179.392 102.745C179.832 103.15 180.052 103.643 180.052 104.226C180.052 104.801 179.832 105.295 179.392 105.707C178.958 106.112 178.433 106.314 177.815 106.314ZM183.698 125V108.636H187.438V111.364H187.608C187.906 110.419 188.418 109.691 189.142 109.18C189.874 108.661 190.708 108.402 191.646 108.402C191.859 108.402 192.097 108.413 192.36 108.434C192.629 108.448 192.853 108.473 193.031 108.509V112.056C192.867 111.999 192.608 111.95 192.253 111.907C191.905 111.857 191.568 111.832 191.241 111.832C190.538 111.832 189.906 111.985 189.345 112.29C188.791 112.589 188.354 113.004 188.034 113.537C187.715 114.07 187.555 114.684 187.555 115.38V125H183.698ZM200.009 125.33C198.972 125.33 198.038 125.146 197.207 124.776C196.383 124.4 195.73 123.846 195.247 123.114C194.771 122.383 194.533 121.481 194.533 120.408C194.533 119.485 194.703 118.722 195.044 118.118C195.385 117.514 195.85 117.031 196.44 116.669C197.029 116.307 197.693 116.033 198.432 115.849C199.178 115.657 199.948 115.518 200.744 115.433C201.703 115.334 202.48 115.245 203.077 115.167C203.673 115.082 204.107 114.954 204.377 114.783C204.654 114.606 204.792 114.332 204.792 113.963V113.899C204.792 113.097 204.554 112.475 204.078 112.035C203.602 111.594 202.917 111.374 202.022 111.374C201.078 111.374 200.328 111.58 199.774 111.992C199.227 112.404 198.858 112.891 198.666 113.452L195.066 112.94C195.35 111.946 195.818 111.115 196.472 110.447C197.125 109.773 197.924 109.268 198.869 108.935C199.813 108.594 200.857 108.423 202.001 108.423C202.789 108.423 203.574 108.516 204.355 108.7C205.137 108.885 205.85 109.19 206.497 109.616C207.143 110.036 207.661 110.607 208.052 111.332C208.45 112.056 208.649 112.962 208.649 114.048V125H204.941V122.752H204.813C204.579 123.207 204.249 123.633 203.823 124.031C203.404 124.421 202.874 124.737 202.235 124.979C201.603 125.213 200.861 125.33 200.009 125.33ZM201.01 122.496C201.784 122.496 202.455 122.344 203.024 122.038C203.592 121.726 204.029 121.314 204.334 120.803C204.646 120.291 204.803 119.734 204.803 119.13V117.202C204.682 117.301 204.476 117.393 204.185 117.479C203.901 117.564 203.581 117.638 203.226 117.702C202.871 117.766 202.519 117.823 202.171 117.873C201.823 117.923 201.521 117.965 201.266 118.001C200.691 118.079 200.176 118.207 199.721 118.384C199.267 118.562 198.908 118.81 198.645 119.13C198.382 119.442 198.251 119.847 198.251 120.344C198.251 121.055 198.51 121.591 199.029 121.953C199.547 122.315 200.208 122.496 201.01 122.496ZM219.771 125.32C218.13 125.32 216.713 124.979 215.52 124.297C214.334 123.608 213.421 122.635 212.782 121.378C212.143 120.114 211.823 118.626 211.823 116.914C211.823 115.231 212.143 113.754 212.782 112.482C213.428 111.204 214.33 110.21 215.488 109.499C216.646 108.782 218.006 108.423 219.568 108.423C220.577 108.423 221.529 108.587 222.423 108.913C223.325 109.233 224.121 109.73 224.81 110.405C225.506 111.08 226.053 111.939 226.45 112.983C226.848 114.02 227.047 115.256 227.047 116.69V117.873H213.634V115.273H223.35C223.343 114.535 223.183 113.878 222.871 113.303C222.558 112.72 222.122 112.262 221.561 111.928C221.007 111.594 220.36 111.428 219.622 111.428C218.833 111.428 218.141 111.619 217.544 112.003C216.948 112.379 216.482 112.876 216.149 113.494C215.822 114.105 215.655 114.776 215.648 115.508V117.777C215.648 118.729 215.822 119.545 216.17 120.227C216.518 120.902 217.004 121.42 217.629 121.783C218.254 122.138 218.986 122.315 219.824 122.315C220.385 122.315 220.893 122.237 221.347 122.081C221.802 121.918 222.196 121.68 222.53 121.367C222.864 121.055 223.116 120.668 223.286 120.206L226.887 120.611C226.66 121.562 226.227 122.393 225.588 123.104C224.955 123.807 224.146 124.354 223.159 124.744C222.171 125.128 221.042 125.32 219.771 125.32ZM233.112 108.636L236.414 114.677L239.77 108.636H243.85L238.918 116.818L243.935 125H239.876L236.414 119.109L232.984 125H228.893L233.879 116.818L229.021 108.636H233.112ZM250.69 115.412V125H246.833V103.182H250.604V111.417H250.796C251.18 110.494 251.773 109.766 252.575 109.233C253.385 108.693 254.415 108.423 255.665 108.423C256.801 108.423 257.792 108.661 258.637 109.137C259.482 109.613 260.136 110.309 260.597 111.225C261.066 112.141 261.3 113.26 261.3 114.581V125H257.444V115.178C257.444 114.077 257.16 113.221 256.592 112.61C256.031 111.992 255.242 111.683 254.227 111.683C253.545 111.683 252.934 111.832 252.394 112.131C251.862 112.422 251.442 112.844 251.137 113.398C250.839 113.952 250.69 114.624 250.69 115.412ZM272.369 125.32C270.771 125.32 269.386 124.968 268.214 124.265C267.043 123.562 266.134 122.578 265.487 121.314C264.848 120.05 264.528 118.572 264.528 116.882C264.528 115.192 264.848 113.711 265.487 112.44C266.134 111.168 267.043 110.181 268.214 109.478C269.386 108.775 270.771 108.423 272.369 108.423C273.967 108.423 275.352 108.775 276.524 109.478C277.696 110.181 278.602 111.168 279.241 112.44C279.887 113.711 280.21 115.192 280.21 116.882C280.21 118.572 279.887 120.05 279.241 121.314C278.602 122.578 277.696 123.562 276.524 124.265C275.352 124.968 273.967 125.32 272.369 125.32ZM272.391 122.23C273.257 122.23 273.982 121.992 274.564 121.516C275.146 121.033 275.58 120.387 275.864 119.577C276.155 118.768 276.3 117.866 276.3 116.871C276.3 115.87 276.155 114.964 275.864 114.155C275.58 113.338 275.146 112.688 274.564 112.205C273.982 111.722 273.257 111.481 272.391 111.481C271.503 111.481 270.764 111.722 270.175 112.205C269.592 112.688 269.156 113.338 268.864 114.155C268.58 114.964 268.438 115.87 268.438 116.871C268.438 117.866 268.58 118.768 268.864 119.577C269.156 120.387 269.592 121.033 270.175 121.516C270.764 121.992 271.503 122.23 272.391 122.23ZM283.483 125V108.636H287.34V125H283.483ZM285.422 106.314C284.812 106.314 284.286 106.112 283.846 105.707C283.405 105.295 283.185 104.801 283.185 104.226C283.185 103.643 283.405 103.15 283.846 102.745C284.286 102.333 284.812 102.127 285.422 102.127C286.04 102.127 286.566 102.333 286.999 102.745C287.439 103.15 287.66 103.643 287.66 104.226C287.66 104.801 287.439 105.295 286.999 105.707C286.566 106.112 286.04 106.314 285.422 106.314Z" fill="#5AA7FC"/>
</svg>
