<svg width="312" height="30" viewBox="0 0 312 30" fill="none" xmlns="http://www.w3.org/2000/svg">
<path d="M47.7692 19.0199V10.6648H49.6648V19.0199H47.7692ZM44.5394 15.7901V13.8945H52.8945V15.7901H44.5394ZM64.1911 21.169C63.3218 21.169 62.5491 21.0201 61.873 20.7223C61.2008 20.4245 60.6696 20.0099 60.2792 19.4787C59.8888 18.9474 59.6816 18.3337 59.6574 17.6374H61.9273C61.9474 17.9715 62.0581 18.2633 62.2593 18.5128C62.4606 18.7583 62.7282 18.9495 63.0622 19.0863C63.3963 19.2231 63.7706 19.2915 64.1851 19.2915C64.6278 19.2915 65.0202 19.2151 65.3623 19.0621C65.7044 18.9052 65.972 18.6879 66.1652 18.4102C66.3584 18.1325 66.453 17.8125 66.449 17.4503C66.453 17.076 66.3564 16.746 66.1592 16.4602C65.962 16.1745 65.6762 15.9511 65.3019 15.7901C64.9317 15.6291 64.4849 15.5487 63.9617 15.5487H62.8691V13.8221H63.9617C64.3924 13.8221 64.7687 13.7476 65.0906 13.5987C65.4166 13.4498 65.6722 13.2405 65.8573 12.9709C66.0425 12.6972 66.133 12.3813 66.129 12.0231C66.133 11.6729 66.0545 11.3691 65.8936 11.1115C65.7366 10.8499 65.5132 10.6467 65.2235 10.5018C64.9377 10.3569 64.6017 10.2844 64.2153 10.2844C63.837 10.2844 63.4868 10.3529 63.1649 10.4897C62.8429 10.6265 62.5833 10.8217 62.3861 11.0753C62.1889 11.3248 62.0843 11.6226 62.0722 11.9688H59.917C59.9331 11.2765 60.1323 10.6688 60.5146 10.1456C60.901 9.61837 61.4162 9.20786 62.0601 8.91406C62.704 8.61624 63.4265 8.46733 64.2274 8.46733C65.0524 8.46733 65.7688 8.62228 66.3765 8.93217C66.9883 9.23804 67.4611 9.65057 67.7952 10.1697C68.1292 10.6889 68.2963 11.2624 68.2963 11.8903C68.3003 12.5865 68.095 13.1701 67.6805 13.641C67.27 14.1119 66.7307 14.4197 66.0626 14.5646V14.6612C66.9319 14.782 67.598 15.1039 68.0608 15.6271C68.5277 16.1463 68.7591 16.7923 68.7551 17.565C68.7551 18.2572 68.5579 18.877 68.1634 19.4244C67.7731 19.9677 67.2338 20.3943 66.5455 20.7042C65.8614 21.0141 65.0766 21.169 64.1911 21.169ZM75.3972 21.2354C74.4031 21.2354 73.5499 20.9839 72.8375 20.4808C72.1292 19.9737 71.5839 19.2433 71.2015 18.2894C70.8232 17.3316 70.6341 16.1785 70.6341 14.8303C70.6381 13.482 70.8292 12.335 71.2076 11.3892C71.5899 10.4394 72.1352 9.71496 72.8436 9.21591C73.5559 8.71686 74.4071 8.46733 75.3972 8.46733C76.3873 8.46733 77.2385 8.71686 77.9508 9.21591C78.6632 9.71496 79.2085 10.4394 79.5868 11.3892C79.9692 12.339 80.1603 13.486 80.1603 14.8303C80.1603 16.1825 79.9692 17.3376 79.5868 18.2955C79.2085 19.2493 78.6632 19.9777 77.9508 20.4808C77.2425 20.9839 76.3913 21.2354 75.3972 21.2354ZM75.3972 19.3459C76.1699 19.3459 76.7797 18.9656 77.2264 18.2049C77.6771 17.4402 77.9025 16.3153 77.9025 14.8303C77.9025 13.8482 77.7999 13.0232 77.5946 12.3551C77.3894 11.687 77.0996 11.1839 76.7253 10.8459C76.351 10.5038 75.9083 10.3327 75.3972 10.3327C74.6285 10.3327 74.0208 10.7151 73.574 11.4798C73.1273 12.2404 72.9019 13.3572 72.8979 14.8303C72.8939 15.8163 72.9925 16.6454 73.1937 17.3175C73.399 17.9896 73.6887 18.4967 74.063 18.8388C74.4373 19.1768 74.882 19.3459 75.3972 19.3459ZM82.2868 21V8.63636H86.9232C87.873 8.63636 88.6699 8.81345 89.3138 9.16761C89.9618 9.52178 90.4508 10.0088 90.7808 10.6286C91.1149 11.2443 91.2819 11.9446 91.2819 12.7294C91.2819 13.5223 91.1149 14.2266 90.7808 14.8423C90.4468 15.4581 89.9537 15.9431 89.3018 16.2972C88.6498 16.6474 87.8469 16.8224 86.893 16.8224H83.8202V14.9812H86.5912C87.1466 14.9812 87.6014 14.8846 87.9555 14.6914C88.3097 14.4982 88.5713 14.2326 88.7403 13.8945C88.9134 13.5565 88.9999 13.1681 88.9999 12.7294C88.9999 12.2907 88.9134 11.9044 88.7403 11.5703C88.5713 11.2363 88.3077 10.9767 87.9495 10.7915C87.5953 10.6024 87.1385 10.5078 86.5791 10.5078H84.5265V21H82.2868Z" fill="#097CFA"/>
<circle cx="15" cy="15" r="15" fill="#F4F5F9"/>
<path d="M18.1042 9H12.6875C12.1849 9.00054 11.703 9.20185 11.3475 9.55976C10.9921 9.91766 10.7922 10.4029 10.7917 10.9091V14.4545H15.9839L14.2004 12.6583C14.1031 12.5552 14.0497 12.4179 14.0515 12.2756C14.0533 12.1334 14.1102 11.9975 14.2101 11.8969C14.31 11.7963 14.445 11.739 14.5862 11.7372C14.7275 11.7354 14.8638 11.7892 14.9662 11.8872L17.6746 14.6144C17.7761 14.7167 17.8331 14.8554 17.8331 15C17.8331 15.1446 17.7761 15.2833 17.6746 15.3856L14.9662 18.1128C14.8638 18.2108 14.7275 18.2646 14.5862 18.2628C14.445 18.261 14.31 18.2037 14.2101 18.1031C14.1102 18.0025 14.0533 17.8666 14.0515 17.7244C14.0497 17.5821 14.1031 17.4448 14.2004 17.3417L15.9839 15.5455H10.7917V19.0909C10.7917 20.1835 11.9356 21 12.9583 21H18.1042C18.6068 20.9995 19.0887 20.7981 19.4441 20.4402C19.7996 20.0823 19.9995 19.5971 20 19.0909V10.9091C19.9995 10.4029 19.7996 9.91766 19.4441 9.55976C19.0887 9.20185 18.6068 9.00054 18.1042 9ZM7.54167 14.4545C7.39801 14.4545 7.26023 14.512 7.15865 14.6143C7.05707 14.7166 7 14.8553 7 15C7 15.1447 7.05707 15.2834 7.15865 15.3857C7.26023 15.488 7.39801 15.5455 7.54167 15.5455H10.7917V14.4545H7.54167Z" fill="#076CDB"/>
<path d="M209.475 11.988H210.087V12.33C210.087 13.752 209.178 14.904 207.819 15.363L207.459 14.778C208.665 14.4 209.475 13.428 209.475 12.33V11.988ZM209.61 11.988H210.222V12.33C210.222 13.338 211.014 14.265 212.202 14.625L211.842 15.21C210.492 14.778 209.61 13.662 209.61 12.33V11.988ZM207.675 11.565H212.013V12.168H207.675V11.565ZM209.475 10.53H210.222V11.862H209.475V10.53ZM213.012 10.566H213.759V15.525H213.012V10.566ZM213.552 12.735H214.965V13.356H213.552V12.735ZM208.476 15.957H213.759V18.711H213.012V16.569H208.476V15.957ZM221.291 10.575H222.038V16.677H221.291V10.575ZM221.804 13.239H223.244V13.869H221.804V13.239ZM215.747 11.556H220.553V12.159H215.747V11.556ZM218.15 12.609C219.302 12.609 220.094 13.212 220.094 14.13C220.094 15.039 219.302 15.642 218.15 15.642C216.989 15.642 216.197 15.039 216.197 14.13C216.197 13.212 216.989 12.609 218.15 12.609ZM218.15 13.194C217.412 13.194 216.908 13.563 216.908 14.13C216.908 14.688 217.412 15.057 218.15 15.057C218.879 15.057 219.383 14.688 219.383 14.13C219.383 13.563 218.879 13.194 218.15 13.194ZM217.772 10.566H218.519V11.871H217.772V10.566ZM216.971 17.91H222.407V18.522H216.971V17.91ZM216.971 16.191H217.718V18.171H216.971V16.191ZM229.922 10.566H230.669V18.702H229.922V10.566ZM226.259 12.501H226.862V13.194C226.862 14.931 225.881 16.506 224.576 17.136L224.153 16.56C225.359 16.002 226.259 14.616 226.259 13.194V12.501ZM226.403 12.501H226.997V13.194C226.997 14.553 227.924 15.876 229.139 16.407L228.716 16.992C227.402 16.398 226.403 14.877 226.403 13.194V12.501ZM224.378 11.979H228.86V12.582H224.378V11.979ZM226.259 10.71H227.006V12.312H226.259V10.71ZM235.798 11.178H236.563C236.563 13.32 235.465 14.904 232.801 15.759L232.513 15.156C234.862 14.418 235.798 13.113 235.798 11.457V11.178ZM232.864 11.178H236.203V11.79H232.864V11.178ZM235.699 12.771V13.293L232.585 13.536L232.459 12.915L235.699 12.771ZM238.201 10.575H238.957V16.488H238.201V10.575ZM233.728 17.964H239.2V18.576H233.728V17.964ZM233.728 16.065H234.466V18.27H233.728V16.065ZM243.822 11.358H248.988V11.97H243.822V11.358ZM242.94 16.983H250.293V17.595H242.94V16.983ZM248.682 11.358H249.411V12.132C249.411 13.122 249.411 14.238 249.078 15.903L248.331 15.813C248.682 14.238 248.682 13.095 248.682 12.132V11.358ZM248.844 13.311V13.878L243.714 14.166L243.597 13.518L248.844 13.311ZM245.802 14.877H246.549V17.208H245.802V14.877ZM252.101 11.358H257.267V11.97H252.101V11.358ZM251.219 16.983H258.572V17.595H251.219V16.983ZM256.961 11.358H257.69V12.132C257.69 13.122 257.69 14.238 257.357 15.903L256.61 15.813C256.961 14.238 256.961 13.095 256.961 12.132V11.358ZM257.123 13.311V13.878L251.993 14.166L251.876 13.518L257.123 13.311ZM254.081 14.877H254.828V17.208H254.081V14.877ZM259.976 11.106H260.723V14.562H259.976V11.106ZM259.976 14.319H260.597C261.902 14.319 263 14.256 264.206 13.995L264.296 14.634C263.054 14.886 261.929 14.958 260.597 14.958H259.976V14.319ZM265.448 10.566H266.195V16.119H265.448V10.566ZM263.135 12.285H265.619V12.897H263.135V12.285ZM263.198 15.507H263.837V15.849C263.837 17.37 262.397 18.369 260.759 18.675L260.462 18.081C261.911 17.856 263.198 16.992 263.198 15.849V15.507ZM263.306 15.507H263.945V15.849C263.945 16.983 265.205 17.847 266.663 18.081L266.357 18.666C264.719 18.369 263.306 17.361 263.306 15.849V15.507ZM268.12 11.187H271.783V14.796H268.12V11.187ZM271.045 11.79H268.849V14.193H271.045V11.79ZM273.349 10.566H274.096V15.966H273.349V10.566ZM273.889 12.789H275.302V13.401H273.889V12.789ZM271.27 15.579H271.909V15.831C271.909 17.352 270.487 18.369 268.849 18.675L268.552 18.081C270.01 17.847 271.27 16.983 271.27 15.831V15.579ZM271.369 15.579H272.008V15.831C272.008 16.983 273.277 17.847 274.717 18.081L274.429 18.675C272.791 18.369 271.369 17.352 271.369 15.831V15.579ZM281.979 10.566H282.726V18.702H281.979V10.566ZM278.316 12.501H278.919V13.194C278.919 14.931 277.938 16.506 276.633 17.136L276.21 16.56C277.416 16.002 278.316 14.616 278.316 13.194V12.501ZM278.46 12.501H279.054V13.194C279.054 14.553 279.981 15.876 281.196 16.407L280.773 16.992C279.459 16.398 278.46 14.877 278.46 13.194V12.501ZM276.435 11.979H280.917V12.582H276.435V11.979ZM278.316 10.71H279.063V12.312H278.316V10.71ZM287.856 11.178H288.621C288.621 13.32 287.523 14.904 284.859 15.759L284.571 15.156C286.92 14.418 287.856 13.113 287.856 11.457V11.178ZM284.922 11.178H288.261V11.79H284.922V11.178ZM287.757 12.771V13.293L284.643 13.536L284.517 12.915L287.757 12.771ZM290.259 10.575H291.015V16.488H290.259V10.575ZM285.786 17.964H291.258V18.576H285.786V17.964ZM285.786 16.065H286.524V18.27H285.786V16.065ZM295.925 11.097H301.01V11.7H295.925V11.097ZM295.007 14.589H302.36V15.201H295.007V14.589ZM298.292 14.994H299.039V18.711H298.292V14.994ZM300.659 11.097H301.388V11.799C301.388 12.645 301.388 13.599 301.082 14.976L300.344 14.877C300.659 13.563 300.659 12.618 300.659 11.799V11.097ZM309.478 10.566H310.198V18.702H309.478V10.566ZM308.191 13.788H309.748V14.4H308.191V13.788ZM307.678 10.737H308.389V18.297H307.678V10.737ZM303.574 11.502H306.679V16.524H303.574V11.502ZM305.977 12.096H304.276V15.93H305.977V12.096Z" fill="#B6B6B6"/>
</svg>
