<svg width="486" height="177" viewBox="0 0 486 177" fill="none" xmlns="http://www.w3.org/2000/svg">
<rect x="58.6957" width="427.304" height="177" rx="30" fill="#83BDFD"/>
<path d="M34.0736 127.071C22.0927 122.475 22.0927 105.525 34.0736 100.929L69.0291 87.5192C78.1974 84.0021 88.0435 90.7707 88.0435 100.59V127.41C88.0435 137.229 78.1974 143.998 69.0291 140.481L34.0736 127.071Z" fill="#83BDFD"/>
<path d="M120.982 83V66.6364H124.838V83H120.982ZM122.92 64.3139C122.31 64.3139 121.784 64.1115 121.344 63.7067C120.903 63.2947 120.683 62.8011 120.683 62.2259C120.683 61.6435 120.903 61.1499 121.344 60.745C121.784 60.3331 122.31 60.1271 122.92 60.1271C123.538 60.1271 124.064 60.3331 124.497 60.745C124.938 61.1499 125.158 61.6435 125.158 62.2259C125.158 62.8011 124.938 63.2947 124.497 63.7067C124.064 64.1115 123.538 64.3139 122.92 64.3139ZM148.47 72.0909C148.47 74.4418 148.03 76.4553 147.149 78.1314C146.275 79.8004 145.082 81.0788 143.569 81.9666C142.064 82.8544 140.356 83.2983 138.445 83.2983C136.535 83.2983 134.823 82.8544 133.31 81.9666C131.805 81.0717 130.611 79.7898 129.731 78.1207C128.857 76.4446 128.42 74.4347 128.42 72.0909C128.42 69.7401 128.857 67.7301 129.731 66.0611C130.611 64.3849 131.805 63.103 133.31 62.2152C134.823 61.3274 136.535 60.8835 138.445 60.8835C140.356 60.8835 142.064 61.3274 143.569 62.2152C145.082 63.103 146.275 64.3849 147.149 66.0611C148.03 67.7301 148.47 69.7401 148.47 72.0909ZM144.496 72.0909C144.496 70.4361 144.237 69.0405 143.719 67.9041C143.207 66.7607 142.497 65.8977 141.588 65.3153C140.679 64.7259 139.631 64.4311 138.445 64.4311C137.259 64.4311 136.211 64.7259 135.302 65.3153C134.393 65.8977 133.68 66.7607 133.161 67.9041C132.65 69.0405 132.394 70.4361 132.394 72.0909C132.394 73.7457 132.65 75.1449 133.161 76.2884C133.68 77.4247 134.393 78.2876 135.302 78.8771C136.211 79.4595 137.259 79.7507 138.445 79.7507C139.631 79.7507 140.679 79.4595 141.588 78.8771C142.497 78.2876 143.207 77.4247 143.719 76.2884C144.237 75.1449 144.496 73.7457 144.496 72.0909ZM164.064 67.1797C163.964 66.2493 163.545 65.5249 162.807 65.0064C162.075 64.4879 161.124 64.2287 159.952 64.2287C159.128 64.2287 158.421 64.353 157.832 64.6016C157.242 64.8501 156.791 65.1875 156.479 65.6136C156.166 66.0398 156.006 66.5263 155.999 67.0732C155.999 67.5277 156.102 67.9219 156.308 68.2557C156.521 68.5895 156.809 68.8736 157.171 69.108C157.533 69.3352 157.935 69.527 158.375 69.6832C158.815 69.8395 159.259 69.9709 159.707 70.0774L161.752 70.5888C162.576 70.7805 163.368 71.0398 164.128 71.3665C164.895 71.6932 165.58 72.1051 166.184 72.6023C166.795 73.0994 167.278 73.6996 167.633 74.4027C167.988 75.1058 168.165 75.9297 168.165 76.8743C168.165 78.1527 167.839 79.2784 167.185 80.2514C166.532 81.2173 165.587 81.9737 164.352 82.5206C163.123 83.0604 161.635 83.3303 159.888 83.3303C158.19 83.3303 156.717 83.0675 155.467 82.5419C154.224 82.0163 153.251 81.2493 152.548 80.2408C151.852 79.2322 151.475 78.0036 151.418 76.5547H155.307C155.364 77.3146 155.598 77.9467 156.01 78.451C156.422 78.9553 156.958 79.3317 157.619 79.5803C158.286 79.8288 159.032 79.9531 159.856 79.9531C160.715 79.9531 161.468 79.8253 162.114 79.5696C162.768 79.3068 163.279 78.9446 163.648 78.483C164.018 78.0142 164.206 77.4673 164.213 76.8423C164.206 76.2741 164.039 75.8054 163.712 75.4361C163.386 75.0597 162.928 74.7472 162.338 74.4986C161.756 74.2429 161.074 74.0156 160.293 73.8168L157.81 73.1776C156.013 72.7159 154.593 72.0163 153.549 71.0788C152.512 70.1342 151.994 68.8807 151.994 67.3182C151.994 66.0327 152.342 64.907 153.038 63.9411C153.741 62.9751 154.696 62.2259 155.903 61.6932C157.111 61.1534 158.478 60.8835 160.005 60.8835C161.553 60.8835 162.91 61.1534 164.075 61.6932C165.246 62.2259 166.166 62.968 166.834 63.9197C167.501 64.8643 167.846 65.951 167.867 67.1797H164.064ZM180.425 60.1591L173.394 86.2812H170.017L177.048 60.1591H180.425ZM199.984 57.89H203.974V78.08H199.984V57.89ZM202.834 65.84H207.664V69.11H202.834V65.84ZM186.064 82.01H204.964V85.19H186.064V82.01ZM186.064 75.98H190.054V83.42H186.064V75.98ZM189.844 59.66C194.104 59.66 197.404 62.63 197.404 66.74C197.404 70.82 194.104 73.79 189.844 73.79C185.584 73.79 182.284 70.82 182.284 66.74C182.284 62.63 185.584 59.66 189.844 59.66ZM189.844 63.14C187.804 63.14 186.184 64.46 186.184 66.74C186.184 68.99 187.804 70.31 189.844 70.31C191.914 70.31 193.504 68.99 193.504 66.74C193.504 64.46 191.914 63.14 189.844 63.14ZM212.642 70.7H232.172V73.88H212.642V70.7ZM209.732 79.07H234.872V82.34H209.732V79.07ZM212.642 60.17H231.962V63.41H216.602V72.02H212.642V60.17ZM237.33 79.37H262.47V82.61H237.33V79.37ZM247.86 74.12H251.85V80.69H247.86V74.12ZM240.15 59.69H259.65V68.93H244.17V73.61H240.21V65.81H255.69V62.84H240.15V59.69ZM240.21 72.02H260.28V75.23H240.21V72.02ZM283.947 57.86H287.967V85.73H283.947V57.86ZM272.997 59.81C277.197 59.81 280.287 63.65 280.287 69.71C280.287 75.83 277.197 79.67 272.997 79.67C268.797 79.67 265.707 75.83 265.707 69.71C265.707 63.65 268.797 59.81 272.997 59.81ZM272.997 63.44C270.927 63.44 269.517 65.63 269.517 69.71C269.517 73.85 270.927 76.07 272.997 76.07C275.067 76.07 276.447 73.85 276.447 69.71C276.447 65.63 275.067 63.44 272.997 63.44ZM295.435 70.7H314.965V73.88H295.435V70.7ZM292.525 79.07H317.665V82.34H292.525V79.07ZM295.435 60.17H314.755V63.41H299.395V72.02H295.435V60.17Z" fill="#076CDB"/>
<path d="M367.6 56.184H371.888V85.912H367.6V56.184ZM355.92 58.264C360.4 58.264 363.696 62.36 363.696 68.824C363.696 75.352 360.4 79.448 355.92 79.448C351.44 79.448 348.144 75.352 348.144 68.824C348.144 62.36 351.44 58.264 355.92 58.264ZM355.92 62.136C353.712 62.136 352.208 64.472 352.208 68.824C352.208 73.24 353.712 75.608 355.92 75.608C358.128 75.608 359.6 73.24 359.6 68.824C359.6 64.472 358.128 62.136 355.92 62.136ZM395.79 56.216H400.046V73.368H395.79V56.216ZM398.862 63.128H403.982V66.616H398.862V63.128ZM387.31 58.136H391.885C391.885 66.104 386.958 71.64 378.222 74.072L376.493 70.68C383.63 68.728 387.31 64.856 387.31 60.28V58.136ZM377.902 58.136H389.902V61.56H377.902V58.136ZM390.446 73.752C396.43 73.752 400.366 76.088 400.366 79.8C400.366 83.544 396.43 85.88 390.446 85.88C384.462 85.88 380.462 83.544 380.462 79.8C380.462 76.088 384.462 73.752 390.446 73.752ZM390.446 77.048C386.83 77.048 384.686 78.008 384.686 79.8C384.686 81.624 386.83 82.584 390.446 82.584C394.062 82.584 396.206 81.624 396.206 79.8C396.206 78.008 394.062 77.048 390.446 77.048ZM426.699 56.248H430.955V78.808H426.699V56.248ZM422.827 63.576H428.299V66.968H422.827V63.576ZM422.827 69.944H428.299V73.304H422.827V69.944ZM406.251 59.32H422.507V62.648H406.251V59.32ZM414.571 63.704C418.603 63.704 421.515 66.104 421.515 69.528C421.515 72.952 418.603 75.352 414.571 75.352C410.539 75.352 407.627 72.952 407.627 69.528C407.627 66.104 410.539 63.704 414.571 63.704ZM414.571 66.968C412.843 66.968 411.627 67.896 411.627 69.528C411.627 71.192 412.843 72.088 414.571 72.088C416.299 72.088 417.515 71.192 417.515 69.528C417.515 67.896 416.299 66.968 414.571 66.968ZM412.459 56.152H416.715V61.368H412.459V56.152ZM411.339 81.944H431.595V85.336H411.339V81.944ZM411.339 76.952H415.627V83.512H411.339V76.952Z" fill="white"/>
<path d="M132.692 131.115C130.455 131.115 128.467 130.81 126.727 130.199C124.994 129.595 123.531 128.704 122.337 127.525C121.144 126.353 120.239 124.922 119.621 123.232C119.003 121.541 118.69 119.609 118.683 117.436C118.69 115.312 119.006 113.398 119.631 111.694C120.256 109.982 121.169 108.519 122.369 107.305C123.57 106.083 125.036 105.146 126.769 104.492C128.502 103.839 130.473 103.512 132.682 103.512C134.763 103.512 136.606 103.828 138.211 104.46C139.823 105.092 141.183 105.973 142.291 107.102C143.406 108.224 144.248 109.538 144.816 111.044C145.391 112.543 145.679 114.169 145.679 115.923C145.679 117.138 145.587 118.288 145.402 119.375C145.217 120.455 144.901 121.413 144.454 122.251C144.013 123.089 143.413 123.757 142.653 124.254C141.893 124.744 140.942 125.011 139.798 125.053C139.081 125.089 138.452 125.021 137.913 124.851C137.373 124.68 136.936 124.414 136.602 124.052C136.276 123.683 136.07 123.232 135.984 122.699H135.857C135.693 123.125 135.384 123.516 134.93 123.871C134.482 124.219 133.928 124.492 133.268 124.691C132.607 124.883 131.872 124.961 131.062 124.925C130.196 124.883 129.393 124.684 128.655 124.329C127.923 123.967 127.284 123.462 126.737 122.816C126.197 122.163 125.778 121.374 125.48 120.451C125.182 119.528 125.033 118.48 125.033 117.308C125.033 116.165 125.196 115.156 125.523 114.283C125.849 113.409 126.286 112.663 126.833 112.045C127.387 111.428 128.012 110.945 128.708 110.597C129.404 110.241 130.121 110.014 130.86 109.915C131.627 109.808 132.348 109.819 133.023 109.947C133.697 110.075 134.259 110.27 134.706 110.533C135.161 110.795 135.445 111.083 135.558 111.396H135.707V110.202H138.68V120.344C138.687 120.877 138.815 121.307 139.063 121.634C139.319 121.96 139.674 122.124 140.129 122.124C140.697 122.124 141.155 121.9 141.503 121.452C141.858 120.998 142.114 120.302 142.27 119.364C142.433 118.42 142.511 117.212 142.504 115.742C142.511 114.535 142.352 113.441 142.025 112.461C141.705 111.474 141.251 110.607 140.661 109.862C140.072 109.116 139.365 108.494 138.541 107.997C137.724 107.493 136.815 107.113 135.814 106.857C134.813 106.602 133.744 106.474 132.607 106.474C130.867 106.474 129.337 106.74 128.016 107.273C126.695 107.798 125.587 108.548 124.692 109.521C123.804 110.494 123.133 111.648 122.678 112.983C122.231 114.311 122.007 115.781 122.007 117.393C122.007 119.119 122.241 120.65 122.71 121.985C123.186 123.313 123.882 124.432 124.798 125.341C125.714 126.25 126.847 126.939 128.197 127.408C129.553 127.876 131.112 128.111 132.874 128.111C133.683 128.111 134.475 128.047 135.249 127.919C136.023 127.791 136.719 127.642 137.337 127.472C137.955 127.301 138.431 127.152 138.765 127.024L139.67 129.73C139.23 129.957 138.634 130.178 137.881 130.391C137.135 130.604 136.311 130.778 135.409 130.913C134.514 131.048 133.609 131.115 132.692 131.115ZM131.947 121.868C132.849 121.868 133.57 121.694 134.109 121.346C134.649 120.991 135.036 120.465 135.271 119.769C135.505 119.073 135.619 118.207 135.612 117.17C135.612 116.204 135.491 115.412 135.249 114.794C135.008 114.176 134.621 113.718 134.088 113.42C133.555 113.121 132.849 112.972 131.968 112.972C131.173 112.972 130.494 113.153 129.933 113.516C129.379 113.878 128.953 114.379 128.655 115.018C128.364 115.65 128.218 116.371 128.218 117.18C128.218 117.99 128.335 118.754 128.57 119.471C128.811 120.181 129.202 120.76 129.741 121.207C130.288 121.648 131.023 121.868 131.947 121.868ZM149.123 125V103.182H152.979V111.342H153.139C153.338 110.945 153.618 110.522 153.981 110.075C154.343 109.62 154.833 109.233 155.451 108.913C156.069 108.587 156.857 108.423 157.816 108.423C159.08 108.423 160.22 108.746 161.236 109.393C162.258 110.032 163.068 110.98 163.665 112.237C164.268 113.487 164.57 115.021 164.57 116.839C164.57 118.636 164.275 120.163 163.686 121.42C163.096 122.678 162.294 123.636 161.278 124.297C160.263 124.957 159.112 125.288 157.827 125.288C156.889 125.288 156.111 125.131 155.493 124.819C154.876 124.506 154.378 124.13 154.002 123.69C153.633 123.242 153.345 122.82 153.139 122.422H152.915V125H149.123ZM152.905 116.818C152.905 117.876 153.054 118.803 153.352 119.599C153.657 120.394 154.094 121.016 154.662 121.463C155.238 121.903 155.934 122.124 156.751 122.124C157.603 122.124 158.317 121.896 158.892 121.442C159.467 120.98 159.9 120.352 160.192 119.556C160.49 118.754 160.639 117.841 160.639 116.818C160.639 115.803 160.493 114.901 160.202 114.112C159.911 113.324 159.478 112.706 158.903 112.259C158.327 111.811 157.61 111.587 156.751 111.587C155.927 111.587 155.227 111.804 154.652 112.237C154.077 112.67 153.64 113.278 153.341 114.059C153.05 114.84 152.905 115.76 152.905 116.818ZM175.093 125.32C173.452 125.32 172.036 124.979 170.842 124.297C169.656 123.608 168.744 122.635 168.104 121.378C167.465 120.114 167.146 118.626 167.146 116.914C167.146 115.231 167.465 113.754 168.104 112.482C168.751 111.204 169.653 110.21 170.81 109.499C171.968 108.782 173.328 108.423 174.891 108.423C175.899 108.423 176.851 108.587 177.746 108.913C178.648 109.233 179.443 109.73 180.132 110.405C180.828 111.08 181.375 111.939 181.773 112.983C182.17 114.02 182.369 115.256 182.369 116.69V117.873H168.957V115.273H178.673C178.665 114.535 178.506 113.878 178.193 113.303C177.881 112.72 177.444 112.262 176.883 111.928C176.329 111.594 175.683 111.428 174.944 111.428C174.156 111.428 173.463 111.619 172.866 112.003C172.27 112.379 171.805 112.876 171.471 113.494C171.144 114.105 170.977 114.776 170.97 115.508V117.777C170.97 118.729 171.144 119.545 171.492 120.227C171.84 120.902 172.327 121.42 172.952 121.783C173.577 122.138 174.308 122.315 175.146 122.315C175.707 122.315 176.215 122.237 176.67 122.081C177.124 121.918 177.518 121.68 177.852 121.367C178.186 121.055 178.438 120.668 178.609 120.206L182.21 120.611C181.982 121.562 181.549 122.393 180.91 123.104C180.278 123.807 179.468 124.354 178.481 124.744C177.494 125.128 176.364 125.32 175.093 125.32ZM198.565 112.962L195.05 113.345C194.95 112.99 194.776 112.656 194.528 112.344C194.286 112.031 193.959 111.779 193.547 111.587C193.135 111.396 192.631 111.3 192.035 111.3C191.232 111.3 190.557 111.474 190.01 111.822C189.471 112.17 189.204 112.621 189.211 113.175C189.204 113.651 189.378 114.038 189.733 114.336C190.096 114.634 190.692 114.879 191.523 115.071L194.314 115.668C195.863 116.001 197.013 116.531 197.766 117.255C198.526 117.979 198.91 118.928 198.917 120.099C198.91 121.129 198.608 122.038 198.011 122.827C197.422 123.608 196.601 124.219 195.55 124.659C194.499 125.099 193.292 125.32 191.928 125.32C189.925 125.32 188.313 124.901 187.091 124.062C185.87 123.217 185.142 122.042 184.907 120.536L188.668 120.174C188.839 120.913 189.201 121.47 189.755 121.847C190.309 122.223 191.03 122.411 191.917 122.411C192.834 122.411 193.569 122.223 194.123 121.847C194.684 121.47 194.964 121.005 194.964 120.451C194.964 119.982 194.783 119.595 194.421 119.29C194.066 118.984 193.512 118.75 192.759 118.587L189.968 118.001C188.398 117.674 187.237 117.124 186.484 116.349C185.731 115.568 185.358 114.581 185.366 113.388C185.358 112.379 185.632 111.506 186.186 110.767C186.747 110.021 187.525 109.446 188.519 109.041C189.52 108.629 190.675 108.423 191.981 108.423C193.899 108.423 195.408 108.832 196.509 109.648C197.617 110.465 198.302 111.57 198.565 112.962ZM210.268 108.636V111.619H200.861V108.636H210.268ZM203.183 104.716H207.04V120.078C207.04 120.597 207.118 120.994 207.274 121.271C207.438 121.541 207.651 121.726 207.914 121.825C208.176 121.925 208.468 121.974 208.787 121.974C209.029 121.974 209.249 121.957 209.448 121.921C209.654 121.886 209.81 121.854 209.916 121.825L210.566 124.84C210.36 124.911 210.066 124.989 209.682 125.075C209.306 125.16 208.844 125.21 208.297 125.224C207.331 125.252 206.461 125.107 205.687 124.787C204.913 124.46 204.298 123.956 203.844 123.274C203.396 122.592 203.176 121.74 203.183 120.717V104.716ZM226.192 112.962L222.676 113.345C222.577 112.99 222.403 112.656 222.154 112.344C221.913 112.031 221.586 111.779 221.174 111.587C220.762 111.396 220.258 111.3 219.662 111.3C218.859 111.3 218.184 111.474 217.637 111.822C217.098 112.17 216.831 112.621 216.838 113.175C216.831 113.651 217.005 114.038 217.36 114.336C217.723 114.634 218.319 114.879 219.15 115.071L221.941 115.668C223.49 116.001 224.64 116.531 225.393 117.255C226.153 117.979 226.537 118.928 226.544 120.099C226.537 121.129 226.235 122.038 225.638 122.827C225.049 123.608 224.228 124.219 223.177 124.659C222.126 125.099 220.919 125.32 219.555 125.32C217.552 125.32 215.94 124.901 214.718 124.062C213.497 123.217 212.769 122.042 212.534 120.536L216.295 120.174C216.466 120.913 216.828 121.47 217.382 121.847C217.936 122.223 218.657 122.411 219.544 122.411C220.461 122.411 221.196 122.223 221.75 121.847C222.311 121.47 222.591 121.005 222.591 120.451C222.591 119.982 222.41 119.595 222.048 119.29C221.693 118.984 221.139 118.75 220.386 118.587L217.595 118.001C216.025 117.674 214.864 117.124 214.111 116.349C213.358 115.568 212.985 114.581 212.993 113.388C212.985 112.379 213.259 111.506 213.813 110.767C214.374 110.021 215.152 109.446 216.146 109.041C217.147 108.629 218.301 108.423 219.608 108.423C221.526 108.423 223.035 108.832 224.136 109.648C225.244 110.465 225.929 111.57 226.192 112.962ZM233.101 125L228.477 108.636H232.408L235.285 120.142H235.434L238.374 108.636H242.263L245.203 120.078H245.363L248.197 108.636H252.138L247.504 125H243.488L240.42 113.942H240.196L237.128 125H233.101ZM258.688 103.182V125H254.831V103.182H258.688ZM266.169 119.865L266.158 115.21H266.776L272.657 108.636H277.163L269.93 116.69H269.131L266.169 119.865ZM262.653 125V103.182H266.51V125H262.653ZM272.923 125L267.597 117.553L270.196 114.837L277.536 125H272.923ZM283.59 115.412V125H279.733V103.182H283.505V111.417H283.697C284.08 110.494 284.673 109.766 285.476 109.233C286.285 108.693 287.315 108.423 288.565 108.423C289.702 108.423 290.692 108.661 291.537 109.137C292.383 109.613 293.036 110.309 293.498 111.225C293.966 112.141 294.201 113.26 294.201 114.581V125H290.344V115.178C290.344 114.077 290.06 113.221 289.492 112.61C288.931 111.992 288.143 111.683 287.127 111.683C286.445 111.683 285.834 111.832 285.295 112.131C284.762 112.422 284.343 112.844 284.037 113.398C283.739 113.952 283.59 114.624 283.59 115.412ZM306.154 125.415C304.4 125.415 302.894 124.972 301.637 124.084C300.387 123.189 299.425 121.9 298.75 120.217C298.082 118.526 297.748 116.491 297.748 114.112C297.756 111.733 298.093 109.709 298.76 108.04C299.435 106.364 300.398 105.085 301.648 104.205C302.905 103.324 304.407 102.884 306.154 102.884C307.901 102.884 309.403 103.324 310.66 104.205C311.917 105.085 312.88 106.364 313.547 108.04C314.222 109.716 314.559 111.74 314.559 114.112C314.559 116.499 314.222 118.537 313.547 120.227C312.88 121.911 311.917 123.196 310.66 124.084C309.41 124.972 307.908 125.415 306.154 125.415ZM306.154 122.081C307.518 122.081 308.594 121.41 309.382 120.067C310.177 118.718 310.575 116.733 310.575 114.112C310.575 112.379 310.394 110.923 310.032 109.744C309.67 108.565 309.158 107.678 308.498 107.081C307.837 106.477 307.056 106.175 306.154 106.175C304.797 106.175 303.725 106.85 302.937 108.2C302.148 109.542 301.751 111.513 301.743 114.112C301.736 115.852 301.91 117.315 302.265 118.501C302.628 119.687 303.139 120.582 303.8 121.186C304.46 121.783 305.245 122.081 306.154 122.081ZM325.929 125.298C324.395 125.298 323.032 125.036 321.838 124.51C320.652 123.984 319.715 123.253 319.026 122.315C318.337 121.378 317.971 120.295 317.929 119.066H321.934C321.97 119.656 322.165 120.17 322.52 120.611C322.875 121.044 323.348 121.381 323.937 121.623C324.527 121.864 325.187 121.985 325.919 121.985C326.7 121.985 327.392 121.85 327.996 121.58C328.6 121.303 329.072 120.92 329.413 120.43C329.754 119.94 329.921 119.375 329.914 118.736C329.921 118.075 329.75 117.493 329.402 116.989C329.054 116.484 328.55 116.09 327.89 115.806C327.236 115.522 326.448 115.38 325.525 115.38H323.596V112.333H325.525C326.284 112.333 326.949 112.202 327.517 111.939C328.092 111.676 328.543 111.307 328.87 110.831C329.196 110.348 329.356 109.79 329.349 109.158C329.356 108.54 329.218 108.004 328.934 107.55C328.657 107.088 328.262 106.729 327.751 106.474C327.247 106.218 326.654 106.09 325.972 106.09C325.304 106.09 324.686 106.211 324.118 106.452C323.55 106.694 323.092 107.038 322.744 107.486C322.396 107.926 322.211 108.452 322.19 109.062H318.387C318.415 107.841 318.767 106.768 319.441 105.845C320.123 104.915 321.032 104.19 322.169 103.672C323.305 103.146 324.58 102.884 325.993 102.884C327.449 102.884 328.713 103.157 329.786 103.704C330.865 104.244 331.7 104.972 332.289 105.888C332.879 106.804 333.174 107.816 333.174 108.924C333.181 110.153 332.819 111.183 332.087 112.013C331.363 112.844 330.411 113.388 329.232 113.643V113.814C330.766 114.027 331.941 114.595 332.758 115.518C333.582 116.435 333.99 117.575 333.983 118.938C333.983 120.16 333.635 121.254 332.939 122.219C332.25 123.178 331.299 123.931 330.084 124.478C328.877 125.025 327.492 125.298 325.929 125.298ZM346.514 103.182V125H342.562V107.028H342.434L337.331 110.288V106.665L342.754 103.182H346.514ZM360.119 125.415C358.365 125.415 356.859 124.972 355.602 124.084C354.352 123.189 353.389 121.9 352.715 120.217C352.047 118.526 351.713 116.491 351.713 114.112C351.72 111.733 352.058 109.709 352.725 108.04C353.4 106.364 354.362 105.085 355.612 104.205C356.869 103.324 358.372 102.884 360.119 102.884C361.866 102.884 363.368 103.324 364.625 104.205C365.882 105.085 366.845 106.364 367.512 108.04C368.187 109.716 368.524 111.74 368.524 114.112C368.524 116.499 368.187 118.537 367.512 120.227C366.845 121.911 365.882 123.196 364.625 124.084C363.375 124.972 361.873 125.415 360.119 125.415ZM360.119 122.081C361.482 122.081 362.558 121.41 363.347 120.067C364.142 118.718 364.54 116.733 364.54 114.112C364.54 112.379 364.359 110.923 363.997 109.744C363.634 108.565 363.123 107.678 362.463 107.081C361.802 106.477 361.021 106.175 360.119 106.175C358.762 106.175 357.69 106.85 356.901 108.2C356.113 109.542 355.715 111.513 355.708 114.112C355.701 115.852 355.875 117.315 356.23 118.501C356.593 119.687 357.104 120.582 357.764 121.186C358.425 121.783 359.21 122.081 360.119 122.081Z" fill="#5AA7FC"/>
</svg>
