<svg width="486" height="177" viewBox="0 0 486 177" fill="none" xmlns="http://www.w3.org/2000/svg">
<rect x="58.6957" width="427.304" height="177" rx="30" fill="#83BDFD"/>
<path d="M34.0736 127.071C22.0927 122.475 22.0927 105.525 34.0736 100.929L69.0291 87.5192C78.1974 84.0021 88.0435 90.7707 88.0435 100.59V127.41C88.0435 137.229 78.1974 143.998 69.0291 140.481L34.0736 127.071Z" fill="#83BDFD"/>
<path d="M134.21 66.56H141.53V69.77H134.21V66.56ZM126.65 60.02H129.89V64.04C129.89 71.03 127.52 77.48 122.3 80.09L119.81 76.88C124.55 74.69 126.65 69.32 126.65 64.04V60.02ZM127.49 60.02H130.67V64.04C130.67 69.32 132.68 74.39 137.27 76.43L134.9 79.61C129.68 77.09 127.49 70.97 127.49 64.04V60.02ZM139.55 57.86H143.51V85.73H139.55V57.86ZM167.148 57.86H171.108V85.73H167.148V57.86ZM160.848 67.64H168.288V70.85H160.848V67.64ZM148.818 60.05H152.778V66.77H158.238V60.05H162.168V79.19H148.818V60.05ZM152.778 69.86V75.98H158.238V69.86H152.778Z" fill="#076CDB"/>
<path d="M367.6 56.184H371.888V85.912H367.6V56.184ZM355.92 58.264C360.4 58.264 363.696 62.36 363.696 68.824C363.696 75.352 360.4 79.448 355.92 79.448C351.44 79.448 348.144 75.352 348.144 68.824C348.144 62.36 351.44 58.264 355.92 58.264ZM355.92 62.136C353.712 62.136 352.208 64.472 352.208 68.824C352.208 73.24 353.712 75.608 355.92 75.608C358.128 75.608 359.6 73.24 359.6 68.824C359.6 64.472 358.128 62.136 355.92 62.136ZM387.95 56.44H391.534V56.984C391.534 61.976 387.086 65.912 379.438 66.776L378.03 63.576C384.718 62.904 387.95 59.896 387.95 56.984V56.44ZM388.686 56.44H392.302V56.984C392.302 59.896 395.502 62.904 402.19 63.576L400.782 66.776C393.134 65.912 388.686 61.976 388.686 56.984V56.44ZM376.718 67.928H403.502V71.288H376.718V67.928ZM379.79 73.016H400.27V80.728H384.014V83.256H379.822V77.784H396.078V76.184H379.79V73.016ZM379.822 82.456H401.038V85.656H379.822V82.456ZM414.091 58.264C418.603 58.264 421.867 62.36 421.867 68.824C421.867 75.352 418.603 79.448 414.091 79.448C409.579 79.448 406.315 75.352 406.315 68.824C406.315 62.36 409.579 58.264 414.091 58.264ZM414.091 62.136C411.883 62.136 410.411 64.472 410.411 68.824C410.411 73.24 411.883 75.608 414.091 75.608C416.299 75.608 417.803 73.24 417.803 68.824C417.803 64.472 416.299 62.136 414.091 62.136ZM425.099 56.216H429.387V85.848H425.099V56.216ZM428.427 67.384H433.675V70.904H428.427V67.384Z" fill="white"/>
<path d="M132.501 128.026C130.263 128.026 128.275 127.72 126.535 127.109C124.802 126.506 123.339 125.618 122.146 124.446C120.952 123.267 120.047 121.832 119.429 120.142C118.811 118.452 118.499 116.52 118.491 114.347C118.499 112.223 118.815 110.309 119.44 108.604C120.065 106.893 120.977 105.43 122.178 104.215C123.378 102.994 124.844 102.056 126.577 101.403C128.31 100.749 130.281 100.423 132.49 100.423C134.571 100.423 136.414 100.739 138.019 101.371C139.631 102.003 140.991 102.884 142.099 104.013C143.214 105.135 144.056 106.449 144.624 107.955C145.2 109.453 145.487 111.08 145.487 112.834C145.487 114.048 145.395 115.199 145.21 116.286C145.026 117.365 144.71 118.324 144.262 119.162C143.822 120 143.222 120.668 142.462 121.165C141.702 121.655 140.75 121.921 139.607 121.964C138.889 121.999 138.261 121.932 137.721 121.761C137.181 121.591 136.744 121.325 136.411 120.962C136.084 120.593 135.878 120.142 135.793 119.609H135.665C135.501 120.036 135.192 120.426 134.738 120.781C134.29 121.129 133.737 121.403 133.076 121.602C132.415 121.793 131.68 121.871 130.871 121.836C130.004 121.793 129.202 121.594 128.463 121.239C127.732 120.877 127.092 120.373 126.545 119.727C126.006 119.073 125.587 118.285 125.288 117.362C124.99 116.438 124.841 115.391 124.841 114.219C124.841 113.075 125.004 112.067 125.331 111.193C125.658 110.32 126.094 109.574 126.641 108.956C127.195 108.338 127.82 107.855 128.516 107.507C129.212 107.152 129.93 106.925 130.668 106.825C131.435 106.719 132.156 106.729 132.831 106.857C133.506 106.985 134.067 107.18 134.514 107.443C134.969 107.706 135.253 107.994 135.366 108.306H135.516V107.113H138.488V117.255C138.495 117.788 138.623 118.217 138.871 118.544C139.127 118.871 139.482 119.034 139.937 119.034C140.505 119.034 140.963 118.81 141.311 118.363C141.666 117.908 141.922 117.212 142.078 116.275C142.241 115.33 142.32 114.123 142.312 112.653C142.32 111.445 142.16 110.352 141.833 109.371C141.513 108.384 141.059 107.518 140.469 106.772C139.88 106.026 139.173 105.405 138.349 104.908C137.533 104.403 136.624 104.023 135.622 103.768C134.621 103.512 133.552 103.384 132.415 103.384C130.675 103.384 129.145 103.651 127.824 104.183C126.503 104.709 125.395 105.458 124.5 106.431C123.612 107.404 122.941 108.558 122.487 109.893C122.039 111.222 121.815 112.692 121.815 114.304C121.815 116.03 122.05 117.56 122.518 118.896C122.994 120.224 123.69 121.342 124.607 122.251C125.523 123.161 126.656 123.849 128.005 124.318C129.362 124.787 130.92 125.021 132.682 125.021C133.491 125.021 134.283 124.957 135.058 124.83C135.832 124.702 136.528 124.553 137.146 124.382C137.763 124.212 138.239 124.062 138.573 123.935L139.479 126.641C139.038 126.868 138.442 127.088 137.689 127.301C136.943 127.514 136.119 127.688 135.217 127.823C134.322 127.958 133.417 128.026 132.501 128.026ZM131.755 118.778C132.657 118.778 133.378 118.604 133.918 118.256C134.457 117.901 134.844 117.376 135.079 116.68C135.313 115.984 135.427 115.117 135.42 114.08C135.42 113.114 135.299 112.322 135.058 111.705C134.816 111.087 134.429 110.629 133.896 110.33C133.364 110.032 132.657 109.883 131.776 109.883C130.981 109.883 130.303 110.064 129.741 110.426C129.188 110.788 128.761 111.289 128.463 111.928C128.172 112.56 128.026 113.281 128.026 114.091C128.026 114.901 128.143 115.664 128.378 116.381C128.619 117.092 129.01 117.67 129.55 118.118C130.097 118.558 130.832 118.778 131.755 118.778ZM160.98 109.18C160.881 108.249 160.461 107.525 159.723 107.006C158.991 106.488 158.04 106.229 156.868 106.229C156.044 106.229 155.337 106.353 154.748 106.602C154.158 106.85 153.707 107.187 153.395 107.614C153.082 108.04 152.922 108.526 152.915 109.073C152.915 109.528 153.018 109.922 153.224 110.256C153.437 110.589 153.725 110.874 154.087 111.108C154.449 111.335 154.851 111.527 155.291 111.683C155.731 111.839 156.175 111.971 156.623 112.077L158.668 112.589C159.492 112.781 160.284 113.04 161.044 113.366C161.811 113.693 162.496 114.105 163.1 114.602C163.711 115.099 164.194 115.7 164.549 116.403C164.904 117.106 165.081 117.93 165.081 118.874C165.081 120.153 164.755 121.278 164.101 122.251C163.448 123.217 162.503 123.974 161.268 124.521C160.039 125.06 158.551 125.33 156.804 125.33C155.106 125.33 153.633 125.067 152.383 124.542C151.14 124.016 150.167 123.249 149.464 122.241C148.768 121.232 148.391 120.004 148.334 118.555H152.223C152.28 119.315 152.514 119.947 152.926 120.451C153.338 120.955 153.874 121.332 154.535 121.58C155.202 121.829 155.948 121.953 156.772 121.953C157.631 121.953 158.384 121.825 159.03 121.57C159.684 121.307 160.195 120.945 160.564 120.483C160.934 120.014 161.122 119.467 161.129 118.842C161.122 118.274 160.955 117.805 160.628 117.436C160.302 117.06 159.844 116.747 159.254 116.499C158.672 116.243 157.99 116.016 157.209 115.817L154.726 115.178C152.93 114.716 151.509 114.016 150.465 113.079C149.428 112.134 148.91 110.881 148.91 109.318C148.91 108.033 149.258 106.907 149.954 105.941C150.657 104.975 151.612 104.226 152.819 103.693C154.027 103.153 155.394 102.884 156.921 102.884C158.469 102.884 159.826 103.153 160.991 103.693C162.162 104.226 163.082 104.968 163.75 105.92C164.417 106.864 164.762 107.951 164.783 109.18H160.98ZM178.864 118.118V108.636H182.721V125H178.982V122.092H178.811C178.442 123.008 177.835 123.757 176.989 124.339C176.151 124.922 175.118 125.213 173.889 125.213C172.817 125.213 171.869 124.975 171.045 124.499C170.228 124.016 169.589 123.317 169.127 122.401C168.665 121.477 168.435 120.362 168.435 119.055V108.636H172.291V118.459C172.291 119.496 172.575 120.32 173.143 120.93C173.712 121.541 174.457 121.847 175.381 121.847C175.949 121.847 176.499 121.708 177.032 121.431C177.565 121.154 178.001 120.742 178.342 120.195C178.69 119.641 178.864 118.949 178.864 118.118ZM190.543 103.182V125H186.687V103.182H190.543ZM194.509 125V108.636H198.365V125H194.509ZM196.448 106.314C195.837 106.314 195.311 106.112 194.871 105.707C194.431 105.295 194.211 104.801 194.211 104.226C194.211 103.643 194.431 103.15 194.871 102.745C195.311 102.333 195.837 102.127 196.448 102.127C197.066 102.127 197.591 102.333 198.025 102.745C198.465 103.15 198.685 103.643 198.685 104.226C198.685 104.801 198.465 105.295 198.025 105.707C197.591 106.112 197.066 106.314 196.448 106.314ZM209.469 125.32C207.835 125.32 206.433 124.961 205.261 124.244C204.096 123.526 203.198 122.536 202.566 121.271C201.941 120 201.628 118.537 201.628 116.882C201.628 115.22 201.948 113.754 202.587 112.482C203.226 111.204 204.128 110.21 205.293 109.499C206.465 108.782 207.85 108.423 209.448 108.423C210.776 108.423 211.951 108.668 212.974 109.158C214.004 109.641 214.824 110.327 215.435 111.214C216.046 112.095 216.394 113.125 216.479 114.304H212.793C212.644 113.516 212.289 112.859 211.727 112.333C211.173 111.8 210.431 111.534 209.501 111.534C208.713 111.534 208.02 111.747 207.423 112.173C206.827 112.592 206.362 113.196 206.028 113.984C205.701 114.773 205.538 115.717 205.538 116.818C205.538 117.933 205.701 118.892 206.028 119.695C206.355 120.49 206.813 121.104 207.402 121.538C207.999 121.964 208.698 122.177 209.501 122.177C210.069 122.177 210.577 122.07 211.024 121.857C211.479 121.637 211.859 121.321 212.164 120.909C212.47 120.497 212.679 119.996 212.793 119.407H216.479C216.387 120.565 216.046 121.591 215.456 122.486C214.867 123.374 214.064 124.07 213.048 124.574C212.033 125.071 210.84 125.32 209.469 125.32ZM219.646 125V108.636H223.502V125H219.646ZM221.585 106.314C220.974 106.314 220.448 106.112 220.008 105.707C219.567 105.295 219.347 104.801 219.347 104.226C219.347 103.643 219.567 103.15 220.008 102.745C220.448 102.333 220.974 102.127 221.585 102.127C222.202 102.127 222.728 102.333 223.161 102.745C223.602 103.15 223.822 103.643 223.822 104.226C223.822 104.801 223.602 105.295 223.161 105.707C222.728 106.112 222.202 106.314 221.585 106.314ZM234.606 125.32C233.008 125.32 231.623 124.968 230.451 124.265C229.279 123.562 228.37 122.578 227.724 121.314C227.084 120.05 226.765 118.572 226.765 116.882C226.765 115.192 227.084 113.711 227.724 112.44C228.37 111.168 229.279 110.181 230.451 109.478C231.623 108.775 233.008 108.423 234.606 108.423C236.204 108.423 237.589 108.775 238.76 109.478C239.932 110.181 240.838 111.168 241.477 112.44C242.123 113.711 242.447 115.192 242.447 116.882C242.447 118.572 242.123 120.05 241.477 121.314C240.838 122.578 239.932 123.562 238.76 124.265C237.589 124.968 236.204 125.32 234.606 125.32ZM234.627 122.23C235.493 122.23 236.218 121.992 236.8 121.516C237.383 121.033 237.816 120.387 238.1 119.577C238.391 118.768 238.537 117.866 238.537 116.871C238.537 115.87 238.391 114.964 238.1 114.155C237.816 113.338 237.383 112.688 236.8 112.205C236.218 111.722 235.493 111.481 234.627 111.481C233.739 111.481 233.001 111.722 232.411 112.205C231.829 112.688 231.392 113.338 231.101 114.155C230.817 114.964 230.675 115.87 230.675 116.871C230.675 117.866 230.817 118.768 231.101 119.577C231.392 120.387 231.829 121.033 232.411 121.516C233.001 121.992 233.739 122.23 234.627 122.23ZM256.15 118.118V108.636H260.006V125H256.267V122.092H256.096C255.727 123.008 255.12 123.757 254.275 124.339C253.436 124.922 252.403 125.213 251.174 125.213C250.102 125.213 249.154 124.975 248.33 124.499C247.513 124.016 246.874 123.317 246.412 122.401C245.951 121.477 245.72 120.362 245.72 119.055V108.636H249.576V118.459C249.576 119.496 249.86 120.32 250.429 120.93C250.997 121.541 251.743 121.847 252.666 121.847C253.234 121.847 253.784 121.708 254.317 121.431C254.85 121.154 255.287 120.742 255.627 120.195C255.975 119.641 256.15 118.949 256.15 118.118ZM276.905 112.962L273.389 113.345C273.29 112.99 273.116 112.656 272.867 112.344C272.626 112.031 272.299 111.779 271.887 111.587C271.475 111.396 270.971 111.3 270.374 111.3C269.572 111.3 268.897 111.474 268.35 111.822C267.811 112.17 267.544 112.621 267.551 113.175C267.544 113.651 267.718 114.038 268.073 114.336C268.436 114.634 269.032 114.879 269.863 115.071L272.654 115.668C274.203 116.001 275.353 116.531 276.106 117.255C276.866 117.979 277.249 118.928 277.257 120.099C277.249 121.129 276.948 122.038 276.351 122.827C275.762 123.608 274.941 124.219 273.89 124.659C272.839 125.099 271.632 125.32 270.268 125.32C268.265 125.32 266.653 124.901 265.431 124.062C264.21 123.217 263.482 122.042 263.247 120.536L267.008 120.174C267.178 120.913 267.541 121.47 268.095 121.847C268.649 122.223 269.369 122.411 270.257 122.411C271.173 122.411 271.909 122.223 272.463 121.847C273.024 121.47 273.304 121.005 273.304 120.451C273.304 119.982 273.123 119.595 272.761 119.29C272.406 118.984 271.852 118.75 271.099 118.587L268.308 118.001C266.738 117.674 265.577 117.124 264.824 116.349C264.071 115.568 263.698 114.581 263.705 113.388C263.698 112.379 263.972 111.506 264.526 110.767C265.087 110.021 265.865 109.446 266.859 109.041C267.86 108.629 269.014 108.423 270.321 108.423C272.239 108.423 273.748 108.832 274.849 109.648C275.957 110.465 276.642 111.57 276.905 112.962Z" fill="#5AA7FC"/>
</svg>
