<svg width="84" height="80" viewBox="0 0 84 80" fill="none" xmlns="http://www.w3.org/2000/svg">
<path d="M8.4 80C6.09 80 4.1132 79.1761 2.4696 77.5284C0.826 75.8807 0.0028 73.8975 0 71.5789V25.2632C0 22.9474 0.8232 20.9656 2.4696 19.3179C4.116 17.6702 6.0928 16.8449 8.4 16.8421H25.2V8.42105C25.2 6.10526 26.0232 4.12351 27.6696 2.47579C29.316 0.82807 31.2928 0.00280702 33.6 0H50.4C52.71 0 54.6882 0.825263 56.3346 2.47579C57.981 4.12632 58.8028 6.10807 58.8 8.42105V16.8421H75.6C77.91 16.8421 79.8882 17.6674 81.5346 19.3179C83.181 20.9684 84.0028 22.9502 84 25.2632V71.5789C84 73.8947 83.1782 75.8779 81.5346 77.5284C79.891 79.1789 77.9128 80.0028 75.6 80H8.4ZM33.6 16.8421H50.4V8.42105H33.6V16.8421ZM42 56.8421C44.31 56.8421 46.2882 56.0182 47.9346 54.3705C49.581 52.7228 50.4028 50.7396 50.4 48.421C50.4 46.1053 49.5782 44.1235 47.9346 42.4758C46.291 40.8281 44.3128 40.0028 42 40C39.69 40 37.7132 40.8253 36.0696 42.4758C34.426 44.1263 33.6028 46.1081 33.6 48.421C33.6 50.7368 34.4232 52.72 36.0696 54.3705C37.716 56.021 39.6928 56.8449 42 56.8421Z" fill="#076CDB"/>
</svg>
