<svg width="356" height="138" viewBox="0 0 356 138" fill="none" xmlns="http://www.w3.org/2000/svg">
<rect width="302" height="138" rx="30" transform="matrix(-1 0 0 1 302 0)" fill="#5AA7FC"/>
<path d="M323.852 101.019C334.977 96.7511 334.977 81.0116 323.852 76.7438L304.504 69.3215C295.99 66.0556 286.848 72.3408 286.848 81.4591V96.3037C286.848 105.422 295.99 111.707 304.504 108.441L323.852 101.019Z" fill="#5AA7FC"/>
<path d="M51.5125 59.084H54.3205V62.594C54.3205 68.548 52.2405 74.138 47.6905 76.374L45.6105 73.592C49.6665 71.694 51.5125 67.066 51.5125 62.594V59.084ZM52.2145 59.084H54.9705V62.594C54.9705 66.91 56.6865 71.304 60.5345 73.176L58.4545 75.932C54.1125 73.722 52.2145 68.366 52.2145 62.594V59.084ZM61.4965 57.238H64.9805V81.314H61.4965V57.238ZM64.2005 66.494H68.4645V69.38H64.2005V66.494ZM76.1324 71.876H79.5904V75.776H76.1324V71.876ZM86.6624 57.238H90.1204V81.314H86.6624V57.238ZM70.5684 77.31L70.1524 74.528C74.5204 74.502 80.3444 74.502 85.4144 73.826L85.6484 76.322C80.4224 77.284 74.8324 77.31 70.5684 77.31ZM70.6204 59.89H85.1024V62.594H70.6204V59.89ZM77.8484 63.556C81.4104 63.556 83.8804 65.376 83.8804 68.054C83.8804 70.758 81.4104 72.578 77.8484 72.578C74.3384 72.578 71.8684 70.758 71.8684 68.054C71.8684 65.376 74.3384 63.556 77.8484 63.556ZM77.8484 66.156C76.2884 66.156 75.1704 66.832 75.1704 68.054C75.1704 69.302 76.2884 69.978 77.8484 69.978C79.4604 69.978 80.5784 69.302 80.5784 68.054C80.5784 66.832 79.4604 66.156 77.8484 66.156ZM76.1324 57.342H79.5904V61.45H76.1324V57.342ZM99.5044 59.63H102.312V61.164C102.312 65.688 100.18 69.874 95.5524 71.382L93.8104 68.652C97.7884 67.352 99.5044 64.18 99.5044 61.164V59.63ZM100.232 59.63H103.014V61.164C103.014 63.972 104.652 66.936 108.448 68.21L106.758 70.914C102.286 69.432 100.232 65.428 100.232 61.164V59.63ZM107.044 62.984H111.62V65.792H107.044V62.984ZM94.7464 58.564H107.694V61.294H94.7464V58.564ZM97.6844 72.656H114.09V81.314H110.632V75.412H97.6844V72.656ZM110.632 57.238H114.09V71.564H110.632V57.238ZM134.446 57.238H137.93V81.314H134.446V57.238ZM127.348 59.734H130.78C130.78 67.092 128.284 73.124 119.73 77.258L117.936 74.502C124.852 71.174 127.348 66.806 127.348 60.358V59.734ZM119.21 59.734H128.986V62.464H119.21V59.734ZM153.944 62.542H159.976V65.324H153.944V62.542ZM148.432 58.226C152.046 58.226 154.776 60.644 154.776 63.972C154.776 67.326 152.046 69.718 148.432 69.718C144.792 69.718 142.062 67.326 142.062 63.972C142.062 60.644 144.792 58.226 148.432 58.226ZM148.432 61.112C146.664 61.112 145.364 62.178 145.364 63.972C145.364 65.766 146.664 66.858 148.432 66.858C150.2 66.858 151.474 65.766 151.474 63.972C151.474 62.178 150.2 61.112 148.432 61.112ZM158.468 57.238H161.926V70.186H158.468V57.238ZM145.936 71.226H149.368V73.514H158.494V71.226H161.926V81.054H145.936V71.226ZM149.368 76.166V78.298H158.494V76.166H149.368ZM182.204 57.212H185.688V81.366H182.204V57.212ZM172.714 58.902C176.354 58.902 179.032 62.23 179.032 67.482C179.032 72.786 176.354 76.114 172.714 76.114C169.074 76.114 166.396 72.786 166.396 67.482C166.396 62.23 169.074 58.902 172.714 58.902ZM172.714 62.048C170.92 62.048 169.698 63.946 169.698 67.482C169.698 71.07 170.92 72.994 172.714 72.994C174.508 72.994 175.704 71.07 175.704 67.482C175.704 63.946 174.508 62.048 172.714 62.048ZM201.885 70.81H205.343V80.586H201.885V70.81ZM212.987 57.238H216.471V81.314H212.987V57.238ZM196.399 72.292L195.983 69.51C200.689 69.484 206.409 69.484 211.479 68.938L211.661 71.46C206.435 72.24 200.975 72.292 196.399 72.292ZM208.177 73.462H213.689V76.062H208.177V73.462ZM197.907 58.382H209.971V67.534H197.907V58.382ZM206.591 61.112H201.313V64.804H206.591V61.112ZM225.777 61.034H228.533V63.738C228.533 69.302 226.271 74.736 221.747 76.79L219.797 74.06C223.827 72.266 225.777 67.82 225.777 63.738V61.034ZM226.557 61.034H229.287V63.738C229.287 67.638 231.211 71.798 235.241 73.462L233.369 76.192C228.793 74.216 226.557 69.094 226.557 63.738V61.034ZM220.759 59.552H234.253V62.386H220.759V59.552ZM236.489 57.238H239.973V81.314H236.489V57.238ZM247.769 73.4418V73.2017C247.776 72.0876 247.88 71.2012 248.083 70.5426C248.293 69.884 248.588 69.3546 248.97 68.9545C249.351 68.5483 249.816 68.1759 250.364 67.8374C250.739 67.6035 251.075 67.348 251.37 67.071C251.672 66.7879 251.909 66.474 252.081 66.1293C252.253 65.7784 252.34 65.3875 252.34 64.9567C252.34 64.4704 252.226 64.0488 251.998 63.6918C251.77 63.3348 251.463 63.0578 251.075 62.8608C250.693 62.6638 250.265 62.5653 249.791 62.5653C249.354 62.5653 248.939 62.6607 248.545 62.8516C248.157 63.0362 247.834 63.3194 247.575 63.701C247.323 64.0765 247.182 64.5535 247.151 65.1321H243.864C243.895 63.9626 244.178 62.9839 244.713 62.196C245.255 61.4081 245.969 60.8172 246.855 60.4233C247.748 60.0294 248.733 59.8324 249.81 59.8324C250.985 59.8324 252.02 60.0386 252.912 60.451C253.811 60.8634 254.509 61.4512 255.008 62.2145C255.513 62.9716 255.765 63.8703 255.765 64.9105C255.765 65.6122 255.651 66.2401 255.423 66.794C255.202 67.348 254.885 67.8404 254.472 68.2713C254.06 68.7022 253.571 69.0869 253.004 69.4254C252.506 69.7332 252.097 70.0533 251.776 70.3857C251.463 70.718 251.229 71.1089 251.075 71.5582C250.927 72.0014 250.85 72.5492 250.844 73.2017V73.4418H247.769ZM249.376 79.2031C248.822 79.2031 248.345 79.0062 247.945 78.6122C247.545 78.2183 247.345 77.7382 247.345 77.1719C247.345 76.6179 247.545 76.1439 247.945 75.75C248.345 75.3561 248.822 75.1591 249.376 75.1591C249.924 75.1591 250.398 75.3561 250.798 75.75C251.204 76.1439 251.407 76.6179 251.407 77.1719C251.407 77.5473 251.312 77.889 251.121 78.1967C250.936 78.5045 250.69 78.7507 250.382 78.9354C250.081 79.1139 249.745 79.2031 249.376 79.2031Z" fill="white"/>
</svg>
