<svg width="503" height="183" viewBox="0 0 503 183" fill="none" xmlns="http://www.w3.org/2000/svg">
<rect x="52" width="451" height="183" rx="30" fill="#076CDB"/>
<path d="M26.0613 130.468C15.5216 125.371 15.5216 110.358 26.0613 105.261L52.1115 92.6628C61.4082 88.1668 72.2067 94.9395 72.2067 105.266L72.2067 130.463C72.2067 140.789 61.4082 147.562 52.1115 143.066L26.0613 130.468Z" fill="#076CDB"/>
<path d="M130.448 53.084H133.256V56.594C133.256 62.548 131.176 68.138 126.626 70.374L124.546 67.592C128.602 65.694 130.448 61.066 130.448 56.594V53.084ZM131.15 53.084H133.906V56.594C133.906 60.91 135.622 65.304 139.47 67.176L137.39 69.932C133.048 67.722 131.15 62.366 131.15 56.594V53.084ZM140.432 51.238H143.916V75.314H140.432V51.238ZM143.136 60.494H147.4V63.38H143.136V60.494ZM155.068 65.876H158.526V69.776H155.068V65.876ZM165.598 51.238H169.056V75.314H165.598V51.238ZM149.504 71.31L149.088 68.528C153.456 68.502 159.28 68.502 164.35 67.826L164.584 70.322C159.358 71.284 153.768 71.31 149.504 71.31ZM149.556 53.89H164.038V56.594H149.556V53.89ZM156.784 57.556C160.346 57.556 162.816 59.376 162.816 62.054C162.816 64.758 160.346 66.578 156.784 66.578C153.274 66.578 150.804 64.758 150.804 62.054C150.804 59.376 153.274 57.556 156.784 57.556ZM156.784 60.156C155.224 60.156 154.106 60.832 154.106 62.054C154.106 63.302 155.224 63.978 156.784 63.978C158.396 63.978 159.514 63.302 159.514 62.054C159.514 60.832 158.396 60.156 156.784 60.156ZM155.068 51.342H158.526V55.45H155.068V51.342ZM178.44 53.63H181.248V55.164C181.248 59.688 179.116 63.874 174.488 65.382L172.746 62.652C176.724 61.352 178.44 58.18 178.44 55.164V53.63ZM179.168 53.63H181.95V55.164C181.95 57.972 183.588 60.936 187.384 62.21L185.694 64.914C181.222 63.432 179.168 59.428 179.168 55.164V53.63ZM185.98 56.984H190.556V59.792H185.98V56.984ZM173.682 52.564H186.63V55.294H173.682V52.564ZM176.62 66.656H193.026V75.314H189.568V69.412H176.62V66.656ZM189.568 51.238H193.026V65.564H189.568V51.238ZM219.831 51.238H223.315V75.314H219.831V51.238ZM212.733 53.734H216.165C216.165 61.092 213.669 67.124 205.115 71.258L203.321 68.502C210.237 65.174 212.733 60.806 212.733 54.358V53.734ZM204.595 53.734H214.371V56.464H204.595V53.734ZM239.329 56.542H245.361V59.324H239.329V56.542ZM233.817 52.226C237.431 52.226 240.161 54.644 240.161 57.972C240.161 61.326 237.431 63.718 233.817 63.718C230.177 63.718 227.447 61.326 227.447 57.972C227.447 54.644 230.177 52.226 233.817 52.226ZM233.817 55.112C232.049 55.112 230.749 56.178 230.749 57.972C230.749 59.766 232.049 60.858 233.817 60.858C235.585 60.858 236.859 59.766 236.859 57.972C236.859 56.178 235.585 55.112 233.817 55.112ZM243.853 51.238H247.311V64.186H243.853V51.238ZM231.321 65.226H234.753V67.514H243.879V65.226H247.311V75.054H231.321V65.226ZM234.753 70.166V72.298H243.879V70.166H234.753ZM258.827 52.824C262.623 52.824 265.457 55.294 265.457 58.752C265.457 62.236 262.623 64.706 258.827 64.706C255.057 64.706 252.171 62.236 252.171 58.752C252.171 55.294 255.057 52.824 258.827 52.824ZM258.827 55.788C256.981 55.788 255.577 56.88 255.577 58.752C255.577 60.65 256.981 61.742 258.827 61.742C260.673 61.742 262.077 60.65 262.077 58.752C262.077 56.88 260.673 55.788 258.827 55.788ZM267.719 51.212H271.177V75.366H267.719V51.212ZM251.599 70.478L251.183 67.696C255.421 67.696 261.323 67.644 266.393 66.89L266.653 69.386C261.427 70.426 255.759 70.478 251.599 70.478ZM298.84 51.238H302.116V75.314H298.84V51.238ZM290.91 59.454H294.888V62.262H290.91V59.454ZM293.978 51.628H297.202V74.222H293.978V51.628ZM285.71 55.164H288.31V57.634C288.31 63.042 286.828 68.424 283.006 70.816L280.952 68.268C284.488 66.058 285.71 61.742 285.71 57.634V55.164ZM286.49 55.164H289.064V57.634C289.064 61.638 290.26 65.694 293.744 67.722L291.716 70.244C287.894 67.982 286.49 62.938 286.49 57.634V55.164ZM281.862 53.656H292.6V56.438H281.862V53.656ZM314.516 64.472H317.974V68.138H314.516V64.472ZM305.364 62.496H327.126V65.226H305.364V62.496ZM307.262 51.888H325.202V54.644H307.262V51.888ZM307.444 58.258H325.02V61.014H307.444V58.258ZM310.33 52.902H313.788V60.052H310.33V52.902ZM318.676 52.902H322.134V60.052H318.676V52.902ZM307.886 67.228H324.526V75.054H307.886V67.228ZM321.146 69.906H311.292V72.324H321.146V69.906ZM340.176 51.576C345.662 51.576 348.886 53.032 348.886 55.684C348.886 58.336 345.662 59.792 340.176 59.792C334.664 59.792 331.466 58.336 331.466 55.684C331.466 53.032 334.664 51.576 340.176 51.576ZM340.176 54.098C336.692 54.098 335.054 54.618 335.054 55.684C335.054 56.802 336.692 57.27 340.176 57.27C343.66 57.27 345.298 56.802 345.298 55.684C345.298 54.618 343.66 54.098 340.176 54.098ZM329.282 60.91H351.044V63.64H329.282V60.91ZM331.778 64.992H348.418V71.18H335.21V73.312H331.804V68.788H345.012V67.566H331.778V64.992ZM331.804 72.558H349.042V75.158H331.804V72.558ZM375.145 51.238H378.603V63.25H375.145V51.238ZM377.199 55.84H381.775V58.674H377.199V55.84ZM362.691 64.212H378.603V70.816H366.175V73.676H362.743V68.32H375.197V66.864H362.691V64.212ZM362.743 72.35H379.305V75.054H362.743V72.35ZM366.227 51.94C369.919 51.94 372.649 54.202 372.649 57.4C372.649 60.572 369.919 62.86 366.227 62.86C362.561 62.86 359.805 60.572 359.805 57.4C359.805 54.202 362.561 51.94 366.227 51.94ZM366.227 54.722C364.459 54.722 363.159 55.71 363.159 57.4C363.159 59.09 364.459 60.104 366.227 60.104C368.021 60.104 369.321 59.09 369.321 57.4C369.321 55.71 368.021 54.722 366.227 54.722ZM389.365 55.034H392.121V57.738C392.121 63.302 389.859 68.736 385.335 70.79L383.385 68.06C387.415 66.266 389.365 61.82 389.365 57.738V55.034ZM390.145 55.034H392.875V57.738C392.875 61.638 394.799 65.798 398.829 67.462L396.957 70.192C392.381 68.216 390.145 63.094 390.145 57.738V55.034ZM384.347 53.552H397.841V56.386H384.347V53.552ZM400.077 51.238H403.561V75.314H400.077V51.238ZM408.187 53.214H419.653V64.836H408.187V53.214ZM416.247 55.944H411.593V62.106H416.247V55.944ZM422.981 51.238H426.439V68.788H422.981V51.238ZM425.451 58.18H429.637V61.014H425.451V58.18ZM410.917 72.142H427.297V74.898H410.917V72.142ZM410.917 67.072H414.375V73.52H410.917V67.072ZM125.066 100.672H146.854V103.506H125.066V100.672ZM134.114 95.316H137.546V101.426H134.114V95.316ZM133.984 83.564H137V85.306C137 90.428 133.282 94.952 126.99 96.096L125.56 93.21C131.046 92.326 133.984 88.634 133.984 85.306V83.564ZM134.66 83.564H137.676V85.306C137.676 88.712 140.614 92.326 146.126 93.21L144.696 96.096C138.378 94.926 134.66 90.506 134.66 85.306V83.564ZM165.468 82.212H168.952V106.366H165.468V82.212ZM150.154 84.136H153.586V89.986H158.552V84.136H161.984V100.75H150.154V84.136ZM153.586 92.664V97.968H158.552V92.664H153.586ZM188.32 82.238H191.752V106.314H188.32V82.238ZM190.972 91.624H195.236V94.51H190.972V91.624ZM172.772 85.8H186.786V88.556H172.772V85.8ZM179.818 89.908C183.328 89.908 185.928 92.3 185.928 95.654C185.928 99.008 183.328 101.4 179.818 101.4C176.308 101.4 173.708 99.008 173.708 95.654C173.708 92.3 176.308 89.908 179.818 89.908ZM179.818 92.716C178.18 92.716 177.01 93.808 177.01 95.654C177.01 97.5 178.18 98.592 179.818 98.592C181.456 98.592 182.626 97.5 182.626 95.654C182.626 93.808 181.456 92.716 179.818 92.716ZM178.076 82.628H181.534V86.84H178.076V82.628ZM202.592 86.034H205.348V88.738C205.348 94.302 203.086 99.736 198.562 101.79L196.612 99.06C200.642 97.266 202.592 92.82 202.592 88.738V86.034ZM203.372 86.034H206.102V88.738C206.102 92.638 208.026 96.798 212.056 98.462L210.184 101.192C205.608 99.216 203.372 94.094 203.372 88.738V86.034ZM197.574 84.552H211.068V87.386H197.574V84.552ZM213.304 82.238H216.788V106.314H213.304V82.238ZM233.739 83.382C237.431 83.382 240.161 85.722 240.161 88.998C240.161 92.3 237.431 94.64 233.739 94.64C230.073 94.64 227.317 92.3 227.317 88.998C227.317 85.722 230.073 83.382 233.739 83.382ZM233.739 86.19C231.997 86.19 230.671 87.256 230.671 88.998C230.671 90.766 231.997 91.832 233.739 91.832C235.507 91.832 236.833 90.766 236.833 88.998C236.833 87.256 235.507 86.19 233.739 86.19ZM242.657 82.238H246.115V94.094H242.657V82.238ZM244.737 87.23H249.313V90.038H244.737V87.23ZM229.293 102.934H230.619C232.725 102.934 234.571 102.778 236.339 102.18L236.859 104.884C234.857 105.586 232.985 105.69 230.619 105.69H229.293V102.934ZM229.293 96.408H232.647V103.766H229.293V96.408ZM236.001 96.486H248.039V98.956H236.001V96.486ZM242.033 99.554C244.763 99.554 246.661 100.88 246.661 102.96C246.661 105.04 244.763 106.34 242.033 106.34C239.277 106.34 237.379 105.04 237.379 102.96C237.379 100.88 239.277 99.554 242.033 99.554ZM242.033 101.92C241.097 101.92 240.447 102.258 240.447 102.96C240.447 103.662 241.097 104 242.033 104C242.917 104 243.593 103.662 243.593 102.96C243.593 102.258 242.917 101.92 242.033 101.92ZM240.369 94.77H243.723V98.332H240.369V94.77ZM253.783 88.738H270.475V91.468H253.783V88.738ZM251.079 93.964H272.893V96.72H251.079V93.964ZM253.783 83.096H257.215V90.09H253.783V83.096ZM253.549 103.038H270.605V105.794H253.549V103.038ZM253.549 98.644H257.007V103.766H253.549V98.644ZM286.854 84.084H289.662V87.594C289.662 93.548 287.582 99.138 283.032 101.374L280.952 98.592C285.008 96.694 286.854 92.066 286.854 87.594V84.084ZM287.556 84.084H290.312V87.594C290.312 91.91 292.028 96.304 295.876 98.176L293.796 100.932C289.454 98.722 287.556 93.366 287.556 87.594V84.084ZM296.838 82.238H300.322V106.314H296.838V82.238ZM299.542 91.494H303.806V94.38H299.542V91.494ZM320.86 82.264H324.318V96.538H320.86V82.264ZM323.33 87.906H327.516V90.766H323.33V87.906ZM308.64 97.578H324.318V106.054H308.64V97.578ZM320.938 100.282H312.046V103.324H320.938V100.282ZM306.222 92.898H308.25C312.982 92.898 315.894 92.82 319.222 92.196L319.534 94.926C316.154 95.576 313.112 95.706 308.25 95.706H306.222V92.898ZM306.196 83.434H317.194V90.766H309.654V94.432H306.222V88.192H313.788V86.19H306.196V83.434ZM329.308 91.572H351.096V94.302H329.308V91.572ZM331.986 87.568H348.522V90.272H331.986V87.568ZM331.986 82.68H348.314V85.436H335.418V89.908H331.986V82.68ZM331.778 95.654H348.418V102.024H335.21V104.104H331.804V99.58H345.012V98.254H331.778V95.654ZM331.804 103.48H349.042V106.132H331.804V103.48ZM369.71 82.212H373.194V106.366H369.71V82.212ZM360.22 83.902C363.86 83.902 366.538 87.23 366.538 92.482C366.538 97.786 363.86 101.114 360.22 101.114C356.58 101.114 353.902 97.786 353.902 92.482C353.902 87.23 356.58 83.902 360.22 83.902ZM360.22 87.048C358.426 87.048 357.204 88.946 357.204 92.482C357.204 96.07 358.426 97.994 360.22 97.994C362.014 97.994 363.21 96.07 363.21 92.482C363.21 88.946 362.014 87.048 360.22 87.048ZM140.536 113.238H143.994V125.198H140.536V113.238ZM142.616 118.256H147.192V121.09H142.616V118.256ZM125.742 114.72H137.208V124.782H125.742V114.72ZM133.802 117.424H129.148V122.078H133.802V117.424ZM127.172 133.934H128.498C130.604 133.934 132.45 133.778 134.218 133.18L134.738 135.884C132.736 136.586 130.864 136.69 128.498 136.69H127.172V133.934ZM127.172 127.252H130.526V134.61H127.172V127.252ZM133.88 127.486H145.918V129.93H133.88V127.486ZM139.912 130.554C142.642 130.554 144.54 131.88 144.54 133.934C144.54 136.014 142.642 137.314 139.912 137.314C137.156 137.314 135.258 136.014 135.258 133.934C135.258 131.88 137.156 130.554 139.912 130.554ZM139.912 132.894C138.976 132.894 138.326 133.232 138.326 133.934C138.326 134.662 138.976 135 139.912 135C140.796 135 141.472 134.662 141.472 133.934C141.472 133.232 140.796 132.894 139.912 132.894ZM138.248 125.77H141.602V129.28H138.248V125.77ZM148.958 125.51H170.72V128.266H148.958V125.51ZM151.584 134.142H168.276V136.898H151.584V134.142ZM151.584 129.878H155.042V135.026H151.584V129.878ZM159.852 113.94C165.078 113.94 168.562 115.838 168.562 118.906C168.562 121.974 165.078 123.872 159.852 123.872C154.6 123.872 151.142 121.974 151.142 118.906C151.142 115.838 154.6 113.94 159.852 113.94ZM159.852 116.696C156.602 116.696 154.704 117.45 154.704 118.906C154.704 120.388 156.602 121.116 159.852 121.116C163.102 121.116 165 120.388 165 118.906C165 117.45 163.102 116.696 159.852 116.696ZM189.568 113.238H193.026V125.276H189.568V113.238ZM185.356 118.334H189.984V121.09H185.356V118.334ZM181.43 114.122H185.07C185.07 120.414 181.378 124.21 174.332 125.9L173.162 123.17C178.986 121.896 181.43 119.192 181.43 115.864V114.122ZM174.54 114.122H184.316V116.852H174.54V114.122ZM177.114 126.186H193.026V132.842H180.624V135.806H177.166V130.294H189.568V128.89H177.114V126.186ZM177.166 134.376H193.52V137.08H177.166V134.376ZM212.472 113.238H215.93V137.314H212.472V113.238ZM214.864 122.65H219.05V125.51H214.864V122.65ZM200.668 115.682H203.892C203.892 122.364 203.268 127.486 199.004 132.27L196.3 130.32C200.018 126.212 200.668 122.208 200.668 116.098V115.682ZM197.366 115.682H202.02V118.49H197.366V115.682ZM207.298 115.682H210.522C210.522 122.676 209.95 128.578 205.764 133.804L203.06 131.88C206.7 127.278 207.298 122.65 207.298 116.072V115.682ZM204.698 115.682H208.728V118.49H204.698V115.682ZM224.584 129.442V129.202C224.59 128.088 224.695 127.201 224.898 126.543C225.107 125.884 225.402 125.355 225.784 124.955C226.166 124.548 226.63 124.176 227.178 123.837C227.554 123.603 227.889 123.348 228.185 123.071C228.486 122.788 228.723 122.474 228.896 122.129C229.068 121.778 229.154 121.388 229.154 120.957C229.154 120.47 229.04 120.049 228.812 119.692C228.585 119.335 228.277 119.058 227.889 118.861C227.508 118.664 227.08 118.565 226.606 118.565C226.169 118.565 225.753 118.661 225.359 118.852C224.972 119.036 224.648 119.319 224.39 119.701C224.138 120.076 223.996 120.554 223.965 121.132H220.678C220.709 119.963 220.992 118.984 221.528 118.196C222.069 117.408 222.783 116.817 223.67 116.423C224.562 116.029 225.547 115.832 226.624 115.832C227.8 115.832 228.834 116.039 229.727 116.451C230.625 116.863 231.324 117.451 231.822 118.214C232.327 118.972 232.58 119.87 232.58 120.911C232.58 121.612 232.466 122.24 232.238 122.794C232.016 123.348 231.699 123.84 231.287 124.271C230.875 124.702 230.385 125.087 229.819 125.425C229.32 125.733 228.911 126.053 228.591 126.386C228.277 126.718 228.043 127.109 227.889 127.558C227.741 128.001 227.665 128.549 227.658 129.202V129.442H224.584ZM226.19 135.203C225.636 135.203 225.159 135.006 224.759 134.612C224.359 134.218 224.159 133.738 224.159 133.172C224.159 132.618 224.359 132.144 224.759 131.75C225.159 131.356 225.636 131.159 226.19 131.159C226.738 131.159 227.212 131.356 227.612 131.75C228.018 132.144 228.222 132.618 228.222 133.172C228.222 133.547 228.126 133.889 227.935 134.197C227.751 134.504 227.504 134.751 227.197 134.935C226.895 135.114 226.56 135.203 226.19 135.203Z" fill="white"/>
</svg>
