<svg width="414" height="177" viewBox="0 0 414 177" fill="none" xmlns="http://www.w3.org/2000/svg">
<rect x="50" width="364" height="177" rx="30" fill="#097CFA"/>
<path d="M28.3464 126.765C17.3446 121.811 17.3446 106.189 28.3464 101.235L55.2514 89.1185C64.5161 84.9462 75 91.7229 75 101.884V126.116C75 136.277 64.5161 143.054 55.2514 138.882L28.3464 126.765Z" fill="#097CFA"/>
<path d="M106.448 62.084H109.256V65.594C109.256 71.548 107.176 77.138 102.626 79.374L100.546 76.592C104.602 74.694 106.448 70.066 106.448 65.594V62.084ZM107.15 62.084H109.906V65.594C109.906 69.91 111.622 74.304 115.47 76.176L113.39 78.932C109.048 76.722 107.15 71.366 107.15 65.594V62.084ZM116.432 60.238H119.916V84.314H116.432V60.238ZM119.136 69.494H123.4V72.38H119.136V69.494ZM140.454 60.264H143.912V74.538H140.454V60.264ZM142.924 65.906H147.11V68.766H142.924V65.906ZM128.234 75.578H143.912V84.054H128.234V75.578ZM140.532 78.282H131.64V81.324H140.532V78.282ZM125.816 70.898H127.844C132.576 70.898 135.488 70.82 138.816 70.196L139.128 72.926C135.748 73.576 132.706 73.706 127.844 73.706H125.816V70.898ZM125.79 61.434H136.788V68.766H129.248V72.432H125.816V66.192H133.382V64.19H125.79V61.434ZM148.902 69.572H170.69V72.302H148.902V69.572ZM151.58 65.568H168.116V68.272H151.58V65.568ZM151.58 60.68H167.908V63.436H155.012V67.908H151.58V60.68ZM151.372 73.654H168.012V80.024H154.804V82.104H151.398V77.58H164.606V76.254H151.372V73.654ZM151.398 81.48H168.636V84.132H151.398V81.48ZM189.304 60.212H192.788V84.366H189.304V60.212ZM179.814 61.902C183.454 61.902 186.132 65.23 186.132 70.482C186.132 75.786 183.454 79.114 179.814 79.114C176.174 79.114 173.496 75.786 173.496 70.482C173.496 65.23 176.174 61.902 179.814 61.902ZM179.814 65.048C178.02 65.048 176.798 66.946 176.798 70.482C176.798 74.07 178.02 75.994 179.814 75.994C181.608 75.994 182.804 74.07 182.804 70.482C182.804 66.946 181.608 65.048 179.814 65.048ZM219.931 60.238H223.389V84.392H219.931V60.238ZM213.457 67.674H220.919V70.456H213.457V67.674ZM204.409 62.812H207.841V77.762H204.409V62.812ZM204.409 75.864H206.437C209.869 75.864 213.431 75.63 217.175 74.876L217.539 77.736C213.665 78.516 209.973 78.724 206.437 78.724H204.409V75.864ZM227.079 73.706H248.893V76.462H227.079V73.706ZM236.179 75.474H239.611V84.314H236.179V75.474ZM229.601 61.408H246.293V71.132H229.601V61.408ZM242.887 64.138H233.007V68.402H242.887V64.138ZM257.446 73.706H279.26V76.462H257.446V73.706ZM266.546 75.474H269.978V84.314H266.546V75.474ZM259.968 61.408H276.66V71.132H259.968V61.408ZM273.254 64.138H263.374V68.402H273.254V64.138ZM281.364 72.562H303.152V75.292H281.364V72.562ZM290.802 74.018H294.286V79.088H290.802V74.018ZM283.886 81.142H300.76V83.898H283.886V81.142ZM283.886 77.268H287.318V82.312H283.886V77.268ZM284.146 60.992H287.552V63.462H296.938V60.992H300.37V70.898H284.146V60.992ZM287.552 66.062V68.194H296.938V66.062H287.552ZM316.904 63.254H322.728V65.854H316.904V63.254ZM316.904 67.648H322.728V70.248H316.904V67.648ZM321.974 60.238H325.432V72.588H321.974V60.238ZM309.52 73.524H325.432V79.972H312.978V83.014H309.546V77.476H322V76.176H309.52V73.524ZM309.546 81.376H326.108V84.054H309.546V81.376ZM306.296 61.226H309.728V64.034H314.304V61.226H317.684V71.938H306.296V61.226ZM309.728 66.634V69.234H314.304V66.634H309.728ZM344.696 60.264H348.154V78.256H344.696V60.264ZM347.166 67.596H351.352V70.43H347.166V67.596ZM329.2 62.76H343.37V65.464H329.2V62.76ZM336.298 66.322C339.756 66.322 342.2 68.22 342.2 70.976C342.2 73.732 339.756 75.604 336.298 75.604C332.814 75.604 330.37 73.732 330.37 70.976C330.37 68.22 332.814 66.322 336.298 66.322ZM336.298 68.948C334.764 68.948 333.698 69.676 333.698 70.976C333.698 72.276 334.764 72.978 336.298 72.978C337.832 72.978 338.898 72.276 338.898 70.976C338.898 69.676 337.832 68.948 336.298 68.948ZM334.556 60.212H338.014V64.086H334.556V60.212ZM332.632 81.142H349.012V83.898H332.632V81.142ZM332.632 76.904H336.09V82.338H332.632V76.904ZM101.066 109.672H122.854V112.506H101.066V109.672ZM110.114 104.316H113.546V110.426H110.114V104.316ZM109.984 92.564H113V94.306C113 99.428 109.282 103.952 102.99 105.096L101.56 102.21C107.046 101.326 109.984 97.634 109.984 94.306V92.564ZM110.66 92.564H113.676V94.306C113.676 97.712 116.614 101.326 122.126 102.21L120.696 105.096C114.378 103.926 110.66 99.506 110.66 94.306V92.564ZM141.468 91.212H144.952V115.366H141.468V91.212ZM126.154 93.136H129.586V98.986H134.552V93.136H137.984V109.75H126.154V93.136ZM129.586 101.664V106.968H134.552V101.664H129.586ZM148.876 102.028H170.69V104.55H148.876V102.028ZM151.32 105.746H168.09V111.466H154.804V113.52H151.372V109.282H164.684V108.086H151.32V105.746ZM151.372 112.792H168.766V115.132H151.372V112.792ZM151.554 91.654H168.038V97.322H155.012V99.298H151.58V95.164H164.632V93.968H151.554V91.654ZM151.58 98.57H168.48V100.91H151.58V98.57ZM194.687 91.238H198.119V115.314H194.687V91.238ZM197.339 100.624H201.603V103.51H197.339V100.624ZM179.139 94.8H193.153V97.556H179.139V94.8ZM186.185 98.908C189.695 98.908 192.295 101.3 192.295 104.654C192.295 108.008 189.695 110.4 186.185 110.4C182.675 110.4 180.075 108.008 180.075 104.654C180.075 101.3 182.675 98.908 186.185 98.908ZM186.185 101.716C184.547 101.716 183.377 102.808 183.377 104.654C183.377 106.5 184.547 107.592 186.185 107.592C187.823 107.592 188.993 106.5 188.993 104.654C188.993 102.808 187.823 101.716 186.185 101.716ZM184.443 91.628H187.901V95.84H184.443V91.628ZM205.865 97.738H222.557V100.468H205.865V97.738ZM203.161 102.964H224.975V105.72H203.161V102.964ZM205.865 92.096H209.297V99.09H205.865V92.096ZM205.631 112.038H222.687V114.794H205.631V112.038ZM205.631 107.644H209.089V112.766H205.631V107.644ZM250.22 91.238H253.678V107.202H250.22V91.238ZM246.086 97.608H250.714V100.39H246.086V97.608ZM242.29 93.058H245.93C245.93 99.636 242.524 103.926 235.27 106.214L233.814 103.51C239.846 101.716 242.29 98.622 242.29 94.566V93.058ZM235.062 93.058H244.838V95.814H235.062V93.058ZM243.85 105.434H246.788V106.24C246.788 110.66 243.538 114.248 237.662 115.262L236.336 112.532C241.432 111.752 243.85 108.97 243.85 106.24V105.434ZM244.344 105.434H247.282V106.24C247.282 108.944 249.674 111.726 254.796 112.506L253.418 115.236C247.542 114.248 244.344 110.66 244.344 106.24V105.434ZM279.391 91.238H282.849V103.848H279.391V91.238ZM281.887 96.178H286.047V98.986H281.887V96.178ZM272.527 92.85H276.375C276.375 99.246 272.501 102.912 265.195 104.264L263.817 101.534C270.109 100.494 272.527 97.868 272.527 94.982V92.85ZM264.961 92.85H274.711V95.606H264.961V92.85ZM267.067 104.784H282.953V107.306H270.525V113.754H267.067V104.784ZM267.067 112.532H283.447V115.054H267.067V112.532ZM269.459 108.684H282.693V111.102H269.459V108.684ZM294.261 92.902C297.927 92.902 300.579 96.23 300.579 101.482C300.579 106.786 297.927 110.114 294.261 110.114C290.595 110.114 287.943 106.786 287.943 101.482C287.943 96.23 290.595 92.902 294.261 92.902ZM294.261 96.048C292.467 96.048 291.271 97.946 291.271 101.482C291.271 105.07 292.467 106.994 294.261 106.994C296.055 106.994 297.277 105.07 297.277 101.482C297.277 97.946 296.055 96.048 294.261 96.048ZM303.205 91.238H306.689V115.314H303.205V91.238ZM305.909 100.312H310.173V103.172H305.909V100.312Z" fill="white"/>
</svg>
