<svg width="503" height="183" viewBox="0 0 503 183" fill="none" xmlns="http://www.w3.org/2000/svg">
<rect x="52" width="451" height="183" rx="30" fill="#076CDB"/>
<path d="M26.0613 130.468C15.5216 125.371 15.5216 110.358 26.0613 105.261L52.1115 92.6628C61.4082 88.1669 72.2067 94.9396 72.2067 105.266L72.2067 130.463C72.2067 140.789 61.4082 147.562 52.1115 143.066L26.0613 130.468Z" fill="#076CDB"/>
<path d="M110.04 61.706H131.854V64.488H110.04V61.706ZM119.14 63.5H122.572V72.34H119.14V63.5ZM120.882 49.044C126.03 49.044 129.592 51.176 129.592 54.478C129.592 57.754 126.03 59.86 120.882 59.86C115.76 59.86 112.198 57.754 112.198 54.478C112.198 51.176 115.76 49.044 120.882 49.044ZM120.882 51.8C117.736 51.8 115.734 52.736 115.734 54.478C115.734 56.194 117.736 57.13 120.882 57.13C124.054 57.13 126.03 56.194 126.03 54.478C126.03 52.736 124.054 51.8 120.882 51.8ZM150.546 48.212H154.004V72.366H150.546V48.212ZM135.258 63.942H137.39C141.654 63.942 145.06 63.786 148.882 63.136L149.22 65.918C145.32 66.62 141.784 66.75 137.39 66.75H135.258V63.942ZM135.232 50.266H146.594V59.574H138.768V64.982H135.258V56.844H143.058V53.022H135.232V50.266ZM165.15 70V51.0909H168.576V59.0959H177.338V51.0909H180.772V70H177.338V61.9673H168.576V70H165.15ZM190.629 70.277C189.207 70.277 187.979 69.9815 186.945 69.3906C185.917 68.7936 185.126 67.9503 184.572 66.8608C184.018 65.7652 183.741 64.4756 183.741 62.9922C183.741 61.5334 184.018 60.2531 184.572 59.1513C185.132 58.0433 185.914 57.1816 186.917 56.5661C187.92 55.9444 189.099 55.6335 190.453 55.6335C191.327 55.6335 192.152 55.7751 192.928 56.0582C193.709 56.3352 194.399 56.7661 194.996 57.3509C195.599 57.9356 196.073 58.6804 196.418 59.5852C196.762 60.4839 196.935 61.5549 196.935 62.7983V63.8232H185.31V61.5703H193.731C193.725 60.9302 193.586 60.3608 193.315 59.8622C193.045 59.3575 192.666 58.9605 192.18 58.6712C191.7 58.3819 191.139 58.2372 190.499 58.2372C189.816 58.2372 189.216 58.4034 188.699 58.7358C188.182 59.062 187.779 59.4929 187.489 60.0284C187.206 60.5578 187.062 61.1394 187.055 61.7734V63.7401C187.055 64.5649 187.206 65.2727 187.508 65.8636C187.809 66.4484 188.231 66.8977 188.773 67.2116C189.314 67.5194 189.948 67.6733 190.675 67.6733C191.161 67.6733 191.601 67.6056 191.995 67.4702C192.389 67.3286 192.731 67.1224 193.02 66.8516C193.309 66.5807 193.528 66.2453 193.675 65.8452L196.796 66.196C196.599 67.0208 196.224 67.741 195.67 68.3565C195.122 68.9659 194.42 69.4399 193.565 69.7784C192.709 70.1108 191.73 70.277 190.629 70.277ZM203.105 51.0909V70H199.762V51.0909H203.105ZM209.884 51.0909V70H206.542V51.0909H209.884ZM219.507 70.277C218.122 70.277 216.922 69.9723 215.906 69.3629C214.89 68.7536 214.103 67.901 213.542 66.8054C212.988 65.7098 212.711 64.4295 212.711 62.9645C212.711 61.4995 212.988 60.2161 213.542 59.1143C214.103 58.0125 214.89 57.157 215.906 56.5476C216.922 55.9382 218.122 55.6335 219.507 55.6335C220.892 55.6335 222.092 55.9382 223.108 56.5476C224.123 57.157 224.908 58.0125 225.462 59.1143C226.022 60.2161 226.302 61.4995 226.302 62.9645C226.302 64.4295 226.022 65.7098 225.462 66.8054C224.908 67.901 224.123 68.7536 223.108 69.3629C222.092 69.9723 220.892 70.277 219.507 70.277ZM219.525 67.5994C220.276 67.5994 220.904 67.3932 221.409 66.9808C221.914 66.5623 222.289 66.0021 222.535 65.3004C222.788 64.5987 222.914 63.817 222.914 62.9553C222.914 62.0874 222.788 61.3026 222.535 60.6009C222.289 59.893 221.914 59.3298 221.409 58.9112C220.904 58.4927 220.276 58.2834 219.525 58.2834C218.756 58.2834 218.116 58.4927 217.605 58.9112C217.1 59.3298 216.722 59.893 216.469 60.6009C216.223 61.3026 216.1 62.0874 216.1 62.9553C216.1 63.817 216.223 64.5987 216.469 65.3004C216.722 66.0021 217.1 66.5623 217.605 66.9808C218.116 67.3932 218.756 67.5994 219.525 67.5994ZM251.275 51.0909V70H248.228L239.319 57.12H239.162V70H235.736V51.0909H238.801L247.702 63.9801H247.868V51.0909H251.275ZM261.138 70.277C259.716 70.277 258.488 69.9815 257.454 69.3906C256.426 68.7936 255.635 67.9503 255.081 66.8608C254.528 65.7652 254.251 64.4756 254.251 62.9922C254.251 61.5334 254.528 60.2531 255.081 59.1513C255.642 58.0433 256.423 57.1816 257.427 56.5661C258.43 55.9444 259.609 55.6335 260.963 55.6335C261.837 55.6335 262.662 55.7751 263.437 56.0582C264.219 56.3352 264.908 56.7661 265.506 57.3509C266.109 57.9356 266.583 58.6804 266.927 59.5852C267.272 60.4839 267.444 61.5549 267.444 62.7983V63.8232H255.82V61.5703H264.241C264.234 60.9302 264.096 60.3608 263.825 59.8622C263.554 59.3575 263.176 58.9605 262.689 58.6712C262.209 58.3819 261.649 58.2372 261.009 58.2372C260.326 58.2372 259.726 58.4034 259.209 58.7358C258.692 59.062 258.288 59.4929 257.999 60.0284C257.716 60.5578 257.571 61.1394 257.565 61.7734V63.7401C257.565 64.5649 257.716 65.2727 258.018 65.8636C258.319 66.4484 258.741 66.8977 259.282 67.2116C259.824 67.5194 260.458 67.6733 261.184 67.6733C261.671 67.6733 262.111 67.6056 262.505 67.4702C262.899 67.3286 263.24 67.1224 263.53 66.8516C263.819 66.5807 264.037 66.2453 264.185 65.8452L267.306 66.196C267.109 67.0208 266.733 67.741 266.18 68.3565C265.632 68.9659 264.93 69.4399 264.074 69.7784C263.219 70.1108 262.24 70.277 261.138 70.277ZM273.123 70L269.116 55.8182H272.523L275.015 65.7898H275.145L277.693 55.8182H281.063L283.611 65.7344H283.75L286.206 55.8182H289.622L285.606 70H282.125L279.466 60.4162H279.272L276.613 70H273.123ZM292.787 62.2905C292.787 59.9822 293.091 57.8617 293.701 55.929C294.316 53.9901 295.23 52.1989 296.443 50.5554H299.591C299.123 51.1648 298.686 51.9126 298.28 52.799C297.874 53.6792 297.52 54.6456 297.218 55.6982C296.923 56.7446 296.689 57.831 296.517 58.9574C296.35 60.0838 296.267 61.1948 296.267 62.2905C296.267 63.7493 296.412 65.2266 296.701 66.7223C296.997 68.218 297.394 69.603 297.892 70.8771C298.397 72.1574 298.963 73.2038 299.591 74.0163H296.443C295.23 72.3729 294.316 70.5848 293.701 68.652C293.091 66.7131 292.787 64.5926 292.787 62.2905ZM308.153 62.2905C308.153 64.5926 307.845 66.7131 307.229 68.652C306.62 70.5848 305.709 72.3729 304.496 74.0163H301.348C301.822 73.407 302.259 72.6622 302.659 71.782C303.065 70.9018 303.416 69.9354 303.711 68.8828C304.013 67.8303 304.247 66.7408 304.413 65.6143C304.586 64.4879 304.672 63.38 304.672 62.2905C304.672 60.8317 304.524 59.3544 304.229 57.8587C303.939 56.3629 303.542 54.9749 303.037 53.6946C302.539 52.4143 301.976 51.3679 301.348 50.5554H304.496C305.709 52.1989 306.62 53.9901 307.229 55.929C307.845 57.8617 308.153 59.9822 308.153 62.2905ZM322.997 70L317.66 51.0909H321.344L324.751 64.9865H324.926L328.564 51.0909H331.916L335.563 64.9957H335.729L339.136 51.0909H342.82L337.483 70H334.104L330.319 56.7322H330.171L326.376 70H322.997ZM349.786 70.277C348.401 70.277 347.201 69.9723 346.185 69.3629C345.17 68.7536 344.382 67.901 343.822 66.8054C343.268 65.7098 342.991 64.4295 342.991 62.9645C342.991 61.4995 343.268 60.2161 343.822 59.1143C344.382 58.0125 345.17 57.157 346.185 56.5476C347.201 55.9382 348.401 55.6335 349.786 55.6335C351.171 55.6335 352.371 55.9382 353.387 56.5476C354.403 57.157 355.188 58.0125 355.741 59.1143C356.302 60.2161 356.582 61.4995 356.582 62.9645C356.582 64.4295 356.302 65.7098 355.741 66.8054C355.188 67.901 354.403 68.7536 353.387 69.3629C352.371 69.9723 351.171 70.277 349.786 70.277ZM349.805 67.5994C350.556 67.5994 351.183 67.3932 351.688 66.9808C352.193 66.5623 352.568 66.0021 352.815 65.3004C353.067 64.5987 353.193 63.817 353.193 62.9553C353.193 62.0874 353.067 61.3026 352.815 60.6009C352.568 59.893 352.193 59.3298 351.688 58.9112C351.183 58.4927 350.556 58.2834 349.805 58.2834C349.035 58.2834 348.395 58.4927 347.884 58.9112C347.379 59.3298 347.001 59.893 346.749 60.6009C346.502 61.3026 346.379 62.0874 346.379 62.9553C346.379 63.817 346.502 64.5987 346.749 65.3004C347.001 66.0021 347.379 66.5623 347.884 66.9808C348.395 67.3932 349.035 67.5994 349.805 67.5994ZM359.419 70V55.8182H362.659V58.1818H362.807C363.066 57.3632 363.509 56.7322 364.137 56.2891C364.771 55.8397 365.494 55.6151 366.306 55.6151C366.491 55.6151 366.697 55.6243 366.925 55.6428C367.159 55.6551 367.353 55.6766 367.507 55.7074V58.782C367.365 58.7327 367.14 58.6896 366.833 58.6527C366.531 58.6096 366.239 58.5881 365.955 58.5881C365.346 58.5881 364.798 58.7204 364.312 58.9851C363.832 59.2436 363.453 59.6037 363.176 60.0653C362.899 60.527 362.761 61.0594 362.761 61.6626V70H359.419ZM373.069 51.0909V70H369.727V51.0909H373.069ZM381.769 70.2493C380.655 70.2493 379.658 69.9631 378.778 69.3906C377.897 68.8182 377.202 67.9872 376.691 66.8977C376.18 65.8082 375.925 64.4848 375.925 62.9276C375.925 61.3518 376.183 60.0223 376.7 58.9389C377.223 57.8494 377.928 57.0277 378.815 56.4737C379.701 55.9136 380.689 55.6335 381.778 55.6335C382.609 55.6335 383.293 55.7751 383.828 56.0582C384.364 56.3352 384.788 56.6707 385.102 57.0646C385.416 57.4524 385.659 57.8187 385.832 58.1634H385.97V51.0909H389.322V70H386.035V67.7656H385.832C385.659 68.1103 385.41 68.4766 385.084 68.8643C384.758 69.246 384.327 69.5722 383.791 69.843C383.256 70.1139 382.582 70.2493 381.769 70.2493ZM382.702 67.5071C383.41 67.5071 384.013 67.3163 384.511 66.9347C385.01 66.5469 385.388 66.0083 385.647 65.3189C385.906 64.6295 386.035 63.8262 386.035 62.9091C386.035 61.992 385.906 61.1948 385.647 60.5178C385.395 59.8407 385.019 59.3144 384.521 58.9389C384.028 58.5634 383.422 58.3757 382.702 58.3757C381.957 58.3757 381.335 58.5696 380.837 58.9574C380.338 59.3452 379.963 59.8807 379.71 60.5639C379.458 61.2472 379.332 62.0289 379.332 62.9091C379.332 63.7955 379.458 64.5864 379.71 65.282C379.969 65.9714 380.347 66.5161 380.846 66.9162C381.351 67.3101 381.969 67.5071 382.702 67.5071ZM414.099 48.212H417.531V72.366H414.099V48.212ZM416.751 57.312H421.015V60.172H416.751V57.312ZM399.643 63.942H401.671C405.753 63.942 408.925 63.812 412.461 63.188L412.799 65.97C409.159 66.62 405.857 66.776 401.671 66.776H399.643V63.942ZM399.617 50.266H410.693V59.6H403.075V65.008H399.643V56.844H407.261V53.022H399.617V50.266ZM425.277 54.738H441.969V57.468H425.277V54.738ZM422.573 59.964H444.387V62.72H422.573V59.964ZM425.277 49.096H428.709V56.09H425.277V49.096ZM425.043 69.038H442.099V71.794H425.043V69.038ZM425.043 64.644H428.501V69.766H425.043V64.644ZM127.434 79.238H130.71V103.314H127.434V79.238ZM124.21 88.494H128.214V91.276H124.21V88.494ZM122.052 79.654H125.25V102.17H122.052V79.654ZM110.716 95.046H112.406C115.37 95.046 117.84 94.942 120.7 94.422L120.96 97.23C118.048 97.802 115.5 97.88 112.406 97.88H110.716V95.046ZM110.716 82.02H119.608V84.802H114.148V96.398H110.716V82.02ZM140.068 93.876H143.526V97.776H140.068V93.876ZM150.598 79.238H154.056V103.314H150.598V79.238ZM134.504 99.31L134.088 96.528C138.456 96.502 144.28 96.502 149.35 95.826L149.584 98.322C144.358 99.284 138.768 99.31 134.504 99.31ZM134.556 81.89H149.038V84.594H134.556V81.89ZM141.784 85.556C145.346 85.556 147.816 87.376 147.816 90.054C147.816 92.758 145.346 94.578 141.784 94.578C138.274 94.578 135.804 92.758 135.804 90.054C135.804 87.376 138.274 85.556 141.784 85.556ZM141.784 88.156C140.224 88.156 139.106 88.832 139.106 90.054C139.106 91.302 140.224 91.978 141.784 91.978C143.396 91.978 144.514 91.302 144.514 90.054C144.514 88.832 143.396 88.156 141.784 88.156ZM140.068 79.342H143.526V83.45H140.068V79.342ZM173.268 79.212H176.752V103.288H173.268V79.212ZM175.842 88.416H180.08V91.25H175.842V88.416ZM166.95 81.708H170.33C170.33 88.936 167.574 95.124 159.566 99.154L157.642 96.528C163.96 93.252 166.95 88.832 166.95 82.306V81.708ZM158.968 81.708H168.718V84.49H158.968V81.708ZM193.651 93.85H196.251V94.656C196.251 98.296 194.639 101.624 190.869 102.976L189.179 100.454C192.325 99.388 193.651 96.996 193.651 94.656V93.85ZM194.535 93.85H197.005V94.656C197.005 96.996 198.175 99.44 201.113 100.662L199.735 103.21C195.913 101.78 194.535 98.192 194.535 94.656V93.85ZM202.439 93.85H204.909V94.656C204.909 97.984 203.479 101.728 199.735 103.21L198.305 100.662C201.243 99.336 202.439 96.788 202.439 94.656V93.85ZM203.245 93.85H205.845V94.656C205.845 97.152 207.145 99.466 210.317 100.454L208.627 102.976C204.805 101.676 203.245 98.452 203.245 94.656V93.85ZM204.779 79.264H208.263V92.862H204.779V79.264ZM195.159 80.486C198.903 80.486 201.685 82.878 201.685 86.258C201.685 89.612 198.903 92.004 195.159 92.004C191.415 92.004 188.607 89.612 188.607 86.258C188.607 82.878 191.415 80.486 195.159 80.486ZM195.159 83.346C193.339 83.346 191.987 84.412 191.987 86.258C191.987 88.078 193.339 89.144 195.159 89.144C196.979 89.144 198.305 88.078 198.305 86.258C198.305 84.412 196.979 83.346 195.159 83.346ZM214.865 85.738H231.557V88.468H214.865V85.738ZM212.161 90.964H233.975V93.72H212.161V90.964ZM214.865 80.096H218.297V87.09H214.865V80.096ZM214.631 100.038H231.687V102.794H214.631V100.038ZM214.631 95.644H218.089V100.766H214.631V95.644ZM253.473 79.238H256.775V103.314H253.473V79.238ZM244.321 88.026H249.911V90.808H244.321V88.026ZM248.507 79.654H251.731V102.248H248.507V79.654ZM236.781 95.124H238.445C241.851 95.124 244.113 95.046 246.765 94.526L247.025 97.334C244.347 97.88 241.955 97.984 238.445 97.984H236.781V95.124ZM236.781 81.942H245.959V84.698H240.187V96.32H236.781V81.942ZM125.536 110.238H128.994V124.746H125.536V110.238ZM128.032 116.166H132.192V119H128.032V116.166ZM113.342 125.786H128.994V134.054H113.342V125.786ZM125.614 128.516H116.748V131.324H125.614V128.516ZM110.04 112.396H124.21V115.126H110.04V112.396ZM117.138 115.828C120.622 115.828 123.04 117.596 123.04 120.17C123.04 122.77 120.622 124.486 117.138 124.486C113.628 124.486 111.21 122.77 111.21 120.17C111.21 117.596 113.628 115.828 117.138 115.828ZM117.138 118.402C115.578 118.402 114.538 119 114.538 120.17C114.538 121.34 115.578 121.964 117.138 121.964C118.672 121.964 119.738 121.34 119.738 120.17C119.738 119 118.672 118.402 117.138 118.402ZM115.396 110.082H118.854V113.878H115.396V110.082ZM136.896 112.968H139.808C139.808 119.078 139.236 124.46 136.246 129.244L133.594 127.814C136.402 123.394 136.896 119.208 136.896 113.254V112.968ZM134.374 112.968H138.742V115.75H134.374V112.968ZM142.278 112.968H145.19C145.19 119.26 144.826 125.266 141.602 130.414L138.95 128.958C142.018 124.174 142.278 119.286 142.278 113.28V112.968ZM140.536 112.968H144.228V115.75H140.536V112.968ZM151.56 110.238H154.862V134.314H151.56V110.238ZM144.02 119.26H147.426V122.042H144.02V119.26ZM146.906 110.758H150.13V133.248H146.906V110.758ZM182.291 119.338H186.529V122.172H182.291V119.338ZM179.717 110.212H183.201V134.288H179.717V110.212ZM165.053 112.526H168.511V127.476H165.053V112.526ZM165.053 125.552H167.133C170.565 125.552 174.283 125.318 178.157 124.538L178.521 127.372C174.543 128.204 170.669 128.412 167.133 128.412H165.053V125.552ZM203.635 110.212H207.119V134.288H203.635V110.212ZM206.209 119.416H210.447V122.25H206.209V119.416ZM197.317 112.708H200.697C200.697 119.936 197.941 126.124 189.933 130.154L188.009 127.528C194.327 124.252 197.317 119.832 197.317 113.306V112.708ZM189.335 112.708H199.085V115.49H189.335V112.708ZM217.959 114.034H220.715V116.738C220.715 122.302 218.453 127.736 213.929 129.79L211.979 127.06C216.009 125.266 217.959 120.82 217.959 116.738V114.034ZM218.739 114.034H221.469V116.738C221.469 120.638 223.393 124.798 227.423 126.462L225.551 129.192C220.975 127.216 218.739 122.094 218.739 116.738V114.034ZM212.941 112.552H226.435V115.386H212.941V112.552ZM228.671 110.238H232.155V134.314H228.671V110.238ZM249.106 111.382C252.798 111.382 255.528 113.722 255.528 116.998C255.528 120.3 252.798 122.64 249.106 122.64C245.44 122.64 242.684 120.3 242.684 116.998C242.684 113.722 245.44 111.382 249.106 111.382ZM249.106 114.19C247.364 114.19 246.038 115.256 246.038 116.998C246.038 118.766 247.364 119.832 249.106 119.832C250.874 119.832 252.2 118.766 252.2 116.998C252.2 115.256 250.874 114.19 249.106 114.19ZM258.024 110.238H261.482V122.094H258.024V110.238ZM260.104 115.23H264.68V118.038H260.104V115.23ZM244.66 130.934H245.986C248.092 130.934 249.938 130.778 251.706 130.18L252.226 132.884C250.224 133.586 248.352 133.69 245.986 133.69H244.66V130.934ZM244.66 124.408H248.014V131.766H244.66V124.408ZM251.368 124.486H263.406V126.956H251.368V124.486ZM257.4 127.554C260.13 127.554 262.028 128.88 262.028 130.96C262.028 133.04 260.13 134.34 257.4 134.34C254.644 134.34 252.746 133.04 252.746 130.96C252.746 128.88 254.644 127.554 257.4 127.554ZM257.4 129.92C256.464 129.92 255.814 130.258 255.814 130.96C255.814 131.662 256.464 132 257.4 132C258.284 132 258.96 131.662 258.96 130.96C258.96 130.258 258.284 129.92 257.4 129.92ZM255.736 122.77H259.09V126.332H255.736V122.77ZM277.34 110.576C282.826 110.576 286.05 112.032 286.05 114.684C286.05 117.336 282.826 118.792 277.34 118.792C271.828 118.792 268.63 117.336 268.63 114.684C268.63 112.032 271.828 110.576 277.34 110.576ZM277.34 113.098C273.856 113.098 272.218 113.618 272.218 114.684C272.218 115.802 273.856 116.27 277.34 116.27C280.824 116.27 282.462 115.802 282.462 114.684C282.462 113.618 280.824 113.098 277.34 113.098ZM266.446 119.91H288.208V122.64H266.446V119.91ZM268.942 123.992H285.582V130.18H272.374V132.312H268.968V127.788H282.176V126.566H268.942V123.992ZM268.968 131.558H286.206V134.158H268.968V131.558ZM291.014 126.15H292.704C295.564 126.15 298.086 126.098 301.05 125.63L301.31 128.412C298.242 128.932 295.642 129.01 292.704 129.01H291.014V126.15ZM290.988 112.578H300.114V121.886H294.368V127.19H291.014V119.156H296.76V115.334H290.988V112.578ZM307.758 110.238H311.034V134.314H307.758V110.238ZM304.534 119.338H308.538V122.094H304.534V119.338ZM302.376 110.654H305.574V133.17H302.376V110.654ZM318.154 126.442V126.202C318.16 125.088 318.265 124.201 318.468 123.543C318.677 122.884 318.973 122.355 319.354 121.955C319.736 121.548 320.201 121.176 320.749 120.837C321.124 120.603 321.46 120.348 321.755 120.071C322.057 119.788 322.294 119.474 322.466 119.129C322.638 118.778 322.724 118.388 322.724 117.957C322.724 117.47 322.611 117.049 322.383 116.692C322.155 116.335 321.847 116.058 321.46 115.861C321.078 115.664 320.65 115.565 320.176 115.565C319.739 115.565 319.324 115.661 318.93 115.852C318.542 116.036 318.219 116.319 317.96 116.701C317.708 117.076 317.566 117.554 317.536 118.132H314.249C314.279 116.963 314.563 115.984 315.098 115.196C315.64 114.408 316.354 113.817 317.24 113.423C318.133 113.029 319.117 112.832 320.195 112.832C321.37 112.832 322.404 113.039 323.297 113.451C324.196 113.863 324.894 114.451 325.393 115.214C325.897 115.972 326.15 116.87 326.15 117.911C326.15 118.612 326.036 119.24 325.808 119.794C325.587 120.348 325.27 120.84 324.857 121.271C324.445 121.702 323.955 122.087 323.389 122.425C322.891 122.733 322.481 123.053 322.161 123.386C321.847 123.718 321.613 124.109 321.46 124.558C321.312 125.001 321.235 125.549 321.229 126.202V126.442H318.154ZM319.761 132.203C319.207 132.203 318.73 132.006 318.33 131.612C317.929 131.218 317.729 130.738 317.729 130.172C317.729 129.618 317.929 129.144 318.33 128.75C318.73 128.356 319.207 128.159 319.761 128.159C320.308 128.159 320.782 128.356 321.183 128.75C321.589 129.144 321.792 129.618 321.792 130.172C321.792 130.547 321.696 130.889 321.506 131.197C321.321 131.504 321.075 131.751 320.767 131.935C320.465 132.114 320.13 132.203 319.761 132.203Z" fill="white"/>
</svg>
