<svg width="528" height="153" viewBox="0 0 528 153" fill="none" xmlns="http://www.w3.org/2000/svg">
<rect width="478.462" height="153" rx="30" transform="matrix(-1 0 0 1 478.462 0)" fill="#5AA7FC"/>
<path d="M498.838 112.873C509.48 108.42 509.48 93.3429 498.838 88.8892L482.592 82.0897C474.026 78.5048 464.573 84.7964 464.573 94.0817V107.681C464.573 116.966 474.026 123.258 482.592 119.673L498.838 112.873Z" fill="#5AA7FC"/>
<path d="M92.1075 55.824H95.5655V65.886H92.1075V55.824ZM92.1075 64.794H94.1615C97.4115 64.794 100.999 64.586 104.795 63.832L105.185 66.614C101.285 67.42 97.5675 67.628 94.1615 67.628H92.1075V64.794ZM106.641 54.264H110.099V71.554H106.641V54.264ZM109.111 60.972H113.297V63.884H109.111V60.972ZM94.6035 75.142H110.879V77.898H94.6035V75.142ZM94.6035 69.942H98.0615V76.676H94.6035V69.942ZM135.397 58.112H140.181V60.842H135.397V58.112ZM135.397 62.636H140.181V65.392H135.397V62.636ZM122.111 55.824H134.825V58.58H122.111V55.824ZM121.851 68.07L121.513 65.262C125.387 65.262 130.795 65.21 135.137 64.716L135.319 67.238C130.847 67.992 125.673 68.07 121.851 68.07ZM124.009 58.138H127.337V66.276H124.009V58.138ZM129.599 58.138H132.901V66.276H129.599V58.138ZM138.205 54.238H141.663V68.954H138.205V54.238ZM133.499 69.318C138.621 69.318 141.741 70.956 141.741 73.842C141.741 76.676 138.621 78.314 133.499 78.314C128.377 78.314 125.257 76.676 125.257 73.842C125.257 70.956 128.377 69.318 133.499 69.318ZM133.499 71.944C130.353 71.944 128.715 72.542 128.715 73.842C128.715 75.09 130.353 75.714 133.499 75.714C136.671 75.714 138.309 75.09 138.309 73.842C138.309 72.542 136.671 71.944 133.499 71.944ZM145.457 72.672H167.245V75.506H145.457V72.672ZM154.505 67.316H157.937V73.426H154.505V67.316ZM154.375 55.564H157.391V57.306C157.391 62.428 153.673 66.952 147.381 68.096L145.951 65.21C151.437 64.326 154.375 60.634 154.375 57.306V55.564ZM155.051 55.564H158.067V57.306C158.067 60.712 161.005 64.326 166.517 65.21L165.087 68.096C158.769 66.926 155.051 62.506 155.051 57.306V55.564ZM181.206 56.084H184.014V59.594C184.014 65.548 181.934 71.138 177.384 73.374L175.304 70.592C179.36 68.694 181.206 64.066 181.206 59.594V56.084ZM181.908 56.084H184.664V59.594C184.664 63.91 186.38 68.304 190.228 70.176L188.148 72.932C183.806 70.722 181.908 65.366 181.908 59.594V56.084ZM191.19 54.238H194.674V78.314H191.19V54.238ZM193.894 63.494H198.158V66.38H193.894V63.494ZM205.826 68.876H209.284V72.776H205.826V68.876ZM216.356 54.238H219.814V78.314H216.356V54.238ZM200.262 74.31L199.846 71.528C204.214 71.502 210.038 71.502 215.108 70.826L215.342 73.322C210.116 74.284 204.526 74.31 200.262 74.31ZM200.314 56.89H214.796V59.594H200.314V56.89ZM207.542 60.556C211.104 60.556 213.574 62.376 213.574 65.054C213.574 67.758 211.104 69.578 207.542 69.578C204.032 69.578 201.562 67.758 201.562 65.054C201.562 62.376 204.032 60.556 207.542 60.556ZM207.542 63.156C205.982 63.156 204.864 63.832 204.864 65.054C204.864 66.302 205.982 66.978 207.542 66.978C209.154 66.978 210.272 66.302 210.272 65.054C210.272 63.832 209.154 63.156 207.542 63.156ZM205.826 54.342H209.284V58.45H205.826V54.342ZM229.198 56.63H232.006V58.164C232.006 62.688 229.874 66.874 225.246 68.382L223.504 65.652C227.482 64.352 229.198 61.18 229.198 58.164V56.63ZM229.926 56.63H232.708V58.164C232.708 60.972 234.346 63.936 238.142 65.21L236.452 67.914C231.98 66.432 229.926 62.428 229.926 58.164V56.63ZM236.738 59.984H241.314V62.792H236.738V59.984ZM224.44 55.564H237.388V58.294H224.44V55.564ZM227.378 69.656H243.784V78.314H240.326V72.412H227.378V69.656ZM240.326 54.238H243.784V68.564H240.326V54.238ZM264.14 54.238H267.624V78.314H264.14V54.238ZM257.042 56.734H260.474C260.474 64.092 257.978 70.124 249.424 74.258L247.63 71.502C254.546 68.174 257.042 63.806 257.042 57.358V56.734ZM248.904 56.734H258.68V59.464H248.904V56.734ZM283.638 59.542H289.67V62.324H283.638V59.542ZM278.126 55.226C281.74 55.226 284.47 57.644 284.47 60.972C284.47 64.326 281.74 66.718 278.126 66.718C274.486 66.718 271.756 64.326 271.756 60.972C271.756 57.644 274.486 55.226 278.126 55.226ZM278.126 58.112C276.358 58.112 275.058 59.178 275.058 60.972C275.058 62.766 276.358 63.858 278.126 63.858C279.894 63.858 281.168 62.766 281.168 60.972C281.168 59.178 279.894 58.112 278.126 58.112ZM288.162 54.238H291.62V67.186H288.162V54.238ZM275.63 68.226H279.062V70.514H288.188V68.226H291.62V78.054H275.63V68.226ZM279.062 73.166V75.298H288.188V73.166H279.062ZM305.008 63.104H308.96V65.886H305.008V63.104ZM312.782 54.238H316.084V78.314H312.782V54.238ZM307.868 54.602H311.118V77.222H307.868V54.602ZM300.796 55.928C303.994 55.928 306.048 59.23 306.048 64.664C306.048 70.124 303.994 73.426 300.796 73.426C297.624 73.426 295.596 70.124 295.596 64.664C295.596 59.23 297.624 55.928 300.796 55.928ZM300.796 59.178C299.496 59.178 298.742 60.998 298.742 64.664C298.742 68.356 299.496 70.15 300.796 70.15C302.148 70.15 302.902 68.356 302.902 64.664C302.902 60.998 302.148 59.178 300.796 59.178ZM343.149 54.238H346.425V78.314H343.149V54.238ZM339.925 63.494H343.929V66.276H339.925V63.494ZM337.767 54.654H340.965V77.17H337.767V54.654ZM326.431 70.046H328.121C331.085 70.046 333.555 69.942 336.415 69.422L336.675 72.23C333.763 72.802 331.215 72.88 328.121 72.88H326.431V70.046ZM326.431 57.02H335.323V59.802H329.863V71.398H326.431V57.02ZM365.169 54.264H368.627V72.256H365.169V54.264ZM367.639 61.596H371.825V64.43H367.639V61.596ZM349.673 56.76H363.843V59.464H349.673V56.76ZM356.771 60.322C360.229 60.322 362.673 62.22 362.673 64.976C362.673 67.732 360.229 69.604 356.771 69.604C353.287 69.604 350.843 67.732 350.843 64.976C350.843 62.22 353.287 60.322 356.771 60.322ZM356.771 62.948C355.237 62.948 354.171 63.676 354.171 64.976C354.171 66.276 355.237 66.978 356.771 66.978C358.305 66.978 359.371 66.276 359.371 64.976C359.371 63.676 358.305 62.948 356.771 62.948ZM355.029 54.212H358.487V58.086H355.029V54.212ZM353.105 75.142H369.485V77.898H353.105V75.142ZM353.105 70.904H356.563V76.338H353.105V70.904ZM81.1919 86.98H91.4879V89.762H81.1919V86.98ZM84.1559 92.596H87.5879V98.628H84.1559V92.596ZM90.1359 86.98H93.5419V88.488C93.5419 90.178 93.5419 92.57 92.9699 95.56L89.6159 95.196C90.1359 92.232 90.1359 90.152 90.1359 88.488V86.98ZM95.8819 85.238H99.3659V103.256H95.8819V85.238ZM97.9879 92.57H102.226V95.404H97.9879V92.57ZM83.2979 106.142H100.12V108.898H83.2979V106.142ZM83.2979 101.644H86.7559V107H83.2979V101.644ZM80.0999 100.032L79.7879 97.302C83.9479 97.302 89.7459 97.224 94.5819 96.548L94.7899 98.992C89.8239 99.928 84.2339 100.032 80.0999 100.032ZM120.58 85.264H124.064V98.836H120.58V85.264ZM108.048 99.954H124.064V109.054H108.048V99.954ZM120.658 102.658H111.428V106.324H120.658V102.658ZM109.686 86.122H112.546V88.436C112.546 92.908 110.31 96.964 105.604 98.446L103.94 95.716C107.97 94.468 109.686 91.4 109.686 88.436V86.122ZM110.388 86.122H113.222V88.436C113.222 91.348 114.912 94.156 118.812 95.326L117.148 98.004C112.546 96.626 110.388 92.856 110.388 88.436V86.122ZM144.472 85.212H147.956V109.366H144.472V85.212ZM134.982 86.902C138.622 86.902 141.3 90.23 141.3 95.482C141.3 100.786 138.622 104.114 134.982 104.114C131.342 104.114 128.664 100.786 128.664 95.482C128.664 90.23 131.342 86.902 134.982 86.902ZM134.982 90.048C133.188 90.048 131.966 91.946 131.966 95.482C131.966 99.07 133.188 100.994 134.982 100.994C136.776 100.994 137.972 99.07 137.972 95.482C137.972 91.946 136.776 90.048 134.982 90.048ZM174.917 85.238H178.401V97.562H174.917V85.238ZM162.099 98.524H178.401V105.024H165.557V107.936H162.151V102.554H174.969V101.176H162.099V98.524ZM162.151 106.48H179.051V109.158H162.151V106.48ZM159.369 86.694H172.343V89.346H159.369V86.694ZM159.083 97.146L158.745 94.416C162.957 94.416 168.573 94.338 173.227 93.766L173.409 96.236C168.651 97.016 163.243 97.12 159.083 97.146ZM161.267 87.89H164.569V95.768H161.267V87.89ZM167.091 87.89H170.445V95.768H167.091V87.89ZM187.057 97.458H190.489V104.218H187.057V97.458ZM195.793 97.458H199.251V104.218H195.793V97.458ZM182.273 103.724H204.061V106.532H182.273V103.724ZM193.141 86.408C198.315 86.408 202.137 88.956 202.137 92.882C202.137 96.808 198.315 99.33 193.141 99.33C187.941 99.33 184.145 96.808 184.145 92.882C184.145 88.956 187.941 86.408 193.141 86.408ZM193.141 89.112C189.787 89.112 187.551 90.49 187.551 92.882C187.551 95.248 189.787 96.652 193.141 96.652C196.495 96.652 198.731 95.248 198.731 92.882C198.731 90.49 196.495 89.112 193.141 89.112ZM221.609 85.238H225.041V109.314H221.609V85.238ZM224.261 94.624H228.525V97.51H224.261V94.624ZM206.061 88.8H220.075V91.556H206.061V88.8ZM213.107 92.908C216.617 92.908 219.217 95.3 219.217 98.654C219.217 102.008 216.617 104.4 213.107 104.4C209.597 104.4 206.997 102.008 206.997 98.654C206.997 95.3 209.597 92.908 213.107 92.908ZM213.107 95.716C211.469 95.716 210.299 96.808 210.299 98.654C210.299 100.5 211.469 101.592 213.107 101.592C214.745 101.592 215.915 100.5 215.915 98.654C215.915 96.808 214.745 95.716 213.107 95.716ZM211.365 85.628H214.823V89.84H211.365V85.628ZM245.475 85.212H248.959V109.366H245.475V85.212ZM248.179 94.13H252.443V96.964H248.179V94.13ZM231.019 100.708H233.047C237.103 100.708 240.301 100.578 243.837 99.954L244.175 102.814C240.535 103.464 237.233 103.568 233.047 103.568H231.019V100.708ZM231.019 87.448H242.251V90.23H234.451V102.086H231.019V87.448ZM256.237 87.266H271.499V90.048H256.237V87.266ZM254.027 103.62H275.789V106.428H254.027V103.62ZM261.723 95.352H265.181V104.998H261.723V95.352ZM270.251 87.266H273.709V89.58C273.709 92.596 273.709 95.976 272.747 101.124L269.289 100.734C270.251 95.95 270.251 92.466 270.251 89.58V87.266ZM288.71 86.694H291.414V89.476C291.414 93.558 289.776 97.64 285.85 99.304L284.03 96.626C287.384 95.144 288.71 92.18 288.71 89.476V86.694ZM289.334 86.694H292.038V89.476C292.038 92.05 293.338 94.65 296.51 95.898L294.664 98.524C290.92 97.042 289.334 93.402 289.334 89.476V86.694ZM301.606 85.264H304.882V99.954H301.606V85.264ZM298.72 91.088H302.542V93.87H298.72V91.088ZM296.51 85.706H299.734V99.2H296.51V85.706ZM296.718 100.292C301.762 100.292 305.012 101.982 305.012 104.816C305.012 107.624 301.762 109.314 296.718 109.314C291.648 109.314 288.45 107.624 288.45 104.816C288.45 101.982 291.648 100.292 296.718 100.292ZM296.718 102.892C293.624 102.892 291.882 103.542 291.882 104.816C291.882 106.09 293.624 106.714 296.718 106.714C299.812 106.714 301.528 106.09 301.528 104.816C301.528 103.542 299.812 102.892 296.718 102.892ZM323.782 85.238H327.24V99.2H323.782V85.238ZM326.278 90.828H330.438V93.688H326.278V90.828ZM316.866 86.59H320.532C320.532 93.012 316.528 97.354 309.378 99.2L307.974 96.548C313.902 95.04 316.866 91.946 316.866 88.306V86.59ZM309.17 86.59H318.946V89.32H309.17V86.59ZM311.172 100.214H327.24V109.314H323.782V102.944H311.172V100.214ZM349.442 85.264H352.718V100.058H349.442V85.264ZM346.504 91.4H350.352V94.182H346.504V91.4ZM344.476 85.576H347.7V99.824H344.476V85.576ZM332.1 87.552H343.774V90.23H332.1V87.552ZM337.976 90.958C340.992 90.958 343.176 92.674 343.176 95.17C343.176 97.666 340.992 99.382 337.976 99.382C334.96 99.382 332.776 97.666 332.776 95.17C332.776 92.674 334.96 90.958 337.976 90.958ZM337.976 93.454C336.702 93.454 335.844 94.052 335.844 95.17C335.844 96.288 336.702 96.912 337.976 96.912C339.224 96.912 340.082 96.288 340.082 95.17C340.082 94.052 339.224 93.454 337.976 93.454ZM336.234 85.394H339.64V89.45H336.234V85.394ZM338.002 100.838H340.602V101.306C340.602 104.712 338.938 107.806 335.142 109.028L333.556 106.48C336.65 105.57 338.002 103.412 338.002 101.306V100.838ZM338.912 100.838H341.382V101.306C341.382 103.438 342.526 105.648 345.412 106.714L344.034 109.262C340.29 107.962 338.912 104.608 338.912 101.306V100.838ZM346.686 100.838H349.156V101.306C349.156 104.4 347.752 107.91 344.034 109.262L342.682 106.714C345.49 105.544 346.686 103.256 346.686 101.306V100.838ZM347.544 100.838H350.118V101.306C350.118 103.542 351.444 105.648 354.59 106.48L352.978 109.028C349.13 107.858 347.544 104.842 347.544 101.306V100.838ZM362.726 86.902C366.314 86.902 368.94 90.23 368.94 95.482C368.94 100.786 366.314 104.114 362.726 104.114C359.112 104.114 356.512 100.786 356.512 95.482C356.512 90.23 359.112 86.902 362.726 86.902ZM362.726 90.048C360.984 90.048 359.814 91.946 359.814 95.482C359.814 99.07 360.984 100.994 362.726 100.994C364.494 100.994 365.638 99.07 365.638 95.482C365.638 91.946 364.494 90.048 362.726 90.048ZM372.892 85.212H376.324V109.366H372.892V85.212ZM367.926 93.896H374.348V96.678H367.926V93.896Z" fill="white"/>
</svg>
