<svg width="93" height="79" viewBox="0 0 93 79" fill="none" xmlns="http://www.w3.org/2000/svg">
<path d="M27.9028 37.1765C32.8363 37.1765 37.5678 35.2181 41.0563 31.7321C44.5448 28.2461 46.5047 23.5181 46.5047 18.5882C46.5047 13.6583 44.5448 8.93034 41.0563 5.44437C37.5678 1.9584 32.8363 0 27.9028 0C22.9693 0 18.2378 1.9584 14.7493 5.44437C11.2608 8.93034 9.30093 13.6583 9.30093 18.5882C9.30093 23.5181 11.2608 28.2461 14.7493 31.7321C18.2378 35.2181 22.9693 37.1765 27.9028 37.1765ZM69.757 37.1765C73.4571 37.1765 77.0057 35.7077 79.6221 33.0932C82.2385 30.4787 83.7084 26.9327 83.7084 23.2353C83.7084 19.5379 82.2385 15.9919 79.6221 13.3774C77.0057 10.7629 73.4571 9.29412 69.757 9.29412C66.0568 9.29412 62.5082 10.7629 59.8918 13.3774C57.2755 15.9919 55.8056 19.5379 55.8056 23.2353C55.8056 26.9327 57.2755 30.4787 59.8918 33.0932C62.5082 35.7077 66.0568 37.1765 69.757 37.1765ZM11.6262 46.4706C5.20852 46.4706 0 51.6753 0 58.0882C0 58.0882 0 79 27.9028 79C50.0204 79 54.6058 65.8581 55.5545 60.4118C55.8056 58.9898 55.8056 58.0882 55.8056 58.0882C55.8056 51.6753 50.5971 46.4706 44.1794 46.4706H11.6262ZM65.0693 61.3412C64.9622 63.026 64.6817 64.6954 64.2322 66.3228C63.6463 68.3954 62.679 70.8769 61.0513 73.4328C63.9052 74.0718 66.8232 74.3805 69.7477 74.3529C93 74.3529 93 58.0882 93 58.0882C93 51.6753 87.7915 46.4706 81.3738 46.4706H61.5722C63.8044 49.7979 65.0972 53.7851 65.0972 58.0882V60.4118L65.0693 61.3412Z" fill="#076CDB"/>
</svg>
