<svg width="99" height="30" viewBox="0 0 99 30" fill="none" xmlns="http://www.w3.org/2000/svg">
<circle cx="15" cy="15" r="15" fill="#3292FB"/>
<circle cx="15" cy="15.0001" r="11.7857" fill="#83BDFD"/>
<path fill-rule="evenodd" clip-rule="evenodd" d="M15 30V0C23.2843 0 30 6.71573 30 15C30 23.2843 23.2843 30 15 30Z" fill="#097CFA"/>
<path fill-rule="evenodd" clip-rule="evenodd" d="M15 26.7858C21.5091 26.7858 26.7857 21.5091 26.7857 15.0001C26.7857 8.491 21.5091 3.21436 15 3.21436V26.7858Z" fill="#5AA7FC"/>
<rect x="10.5" y="10.7144" width="2.14286" height="3.42857" fill="#5AA7FC"/>
<rect x="17.5714" y="10.7144" width="2.14286" height="3.42857" fill="#3292FB"/>
<path fill-rule="evenodd" clip-rule="evenodd" d="M8.57144 17.1431C8.57144 17.1431 8.57144 17.1431 8.57144 17.1431C8.57144 20.6935 11.4496 23.5716 15 23.5716C18.5504 23.5716 21.4286 20.6935 21.4286 17.1431L8.57144 17.1431Z" fill="#5AA7FC"/>
<path fill-rule="evenodd" clip-rule="evenodd" d="M15 23.5716C18.5504 23.5716 21.4286 20.6935 21.4286 17.1431L15 17.1431V23.5716Z" fill="#3292FB"/>
<path d="M55.5692 8.72727V24H52.8026V11.4194H52.7131L49.141 13.7013V11.1658L52.9368 8.72727H55.5692ZM59.4471 24V22.0014L64.7493 16.8036C65.2564 16.2915 65.679 15.8366 66.017 15.4389C66.3551 15.0412 66.6087 14.6559 66.7777 14.283C66.9467 13.9102 67.0312 13.5124 67.0312 13.0898C67.0312 12.6076 66.9219 12.195 66.7031 11.8519C66.4844 11.5039 66.1836 11.2354 65.8008 11.0465C65.418 10.8576 64.983 10.7631 64.4957 10.7631C63.9936 10.7631 63.5536 10.8675 63.1758 11.0763C62.7979 11.2802 62.5046 11.571 62.2958 11.9489C62.092 12.3267 61.9901 12.7766 61.9901 13.2987H59.3576C59.3576 12.3292 59.5788 11.4865 60.0213 10.7706C60.4638 10.0547 61.0728 9.50035 61.8484 9.1076C62.6289 8.71484 63.5238 8.51847 64.533 8.51847C65.5572 8.51847 66.457 8.70987 67.2326 9.09268C68.0082 9.4755 68.6097 10 69.0373 10.6662C69.4698 11.3324 69.6861 12.093 69.6861 12.9482C69.6861 13.5199 69.5767 14.0817 69.358 14.6335C69.1392 15.1854 68.7539 15.7969 68.2021 16.468C67.6552 17.1392 66.8871 17.9521 65.8977 18.9066L63.2653 21.5838V21.6882H69.9173V24H59.4471ZM78.1353 24.2908C76.9073 24.2908 75.8533 23.9801 74.9734 23.3587C74.0984 22.7322 73.4247 21.8299 72.9524 20.6516C72.4851 19.4684 72.2514 18.044 72.2514 16.3786C72.2564 14.7131 72.4925 13.2962 72.9599 12.1278C73.4322 10.9545 74.1058 10.0597 74.9808 9.44318C75.8608 8.8267 76.9123 8.51847 78.1353 8.51847C79.3583 8.51847 80.4098 8.8267 81.2898 9.44318C82.1697 10.0597 82.8434 10.9545 83.3107 12.1278C83.783 13.3011 84.0192 14.718 84.0192 16.3786C84.0192 18.049 83.783 19.4759 83.3107 20.6591C82.8434 21.8374 82.1697 22.7372 81.2898 23.3587C80.4148 23.9801 79.3633 24.2908 78.1353 24.2908ZM78.1353 21.9567C79.0898 21.9567 79.843 21.4869 80.3949 20.5472C80.9517 19.6026 81.2301 18.2131 81.2301 16.3786C81.2301 15.1655 81.1033 14.1463 80.8498 13.321C80.5962 12.4957 80.2383 11.8743 79.7759 11.4567C79.3136 11.0341 78.7667 10.8228 78.1353 10.8228C77.1857 10.8228 76.435 11.2951 75.8832 12.2397C75.3313 13.1793 75.0529 14.5589 75.0479 16.3786C75.043 17.5966 75.1648 18.6207 75.4134 19.451C75.6669 20.2812 76.0249 20.9077 76.4872 21.3303C76.9496 21.7479 77.4989 21.9567 78.1353 21.9567ZM86.646 24V8.72727H92.3733C93.5466 8.72727 94.531 8.94602 95.3264 9.38352C96.1269 9.82102 96.7309 10.4226 97.1386 11.1882C97.5512 11.9489 97.7575 12.8139 97.7575 13.7834C97.7575 14.7628 97.5512 15.6328 97.1386 16.3935C96.7259 17.1541 96.1169 17.7532 95.3115 18.1907C94.5061 18.6232 93.5143 18.8395 92.336 18.8395H88.5402V16.565H91.9632C92.6492 16.565 93.211 16.4457 93.6485 16.207C94.086 15.9684 94.4092 15.6403 94.618 15.2227C94.8318 14.805 94.9387 14.3253 94.9387 13.7834C94.9387 13.2415 94.8318 12.7642 94.618 12.3516C94.4092 11.9389 94.0835 11.6183 93.6411 11.3896C93.2036 11.1559 92.6393 11.0391 91.9482 11.0391H89.4127V24H86.646Z" fill="black"/>
</svg>
