<svg width="486" height="177" viewBox="0 0 486 177" fill="none" xmlns="http://www.w3.org/2000/svg">
<rect x="58.6957" width="427.304" height="177" rx="30" fill="#83BDFD"/>
<path d="M34.0736 127.071C22.0927 122.475 22.0927 105.525 34.0736 100.929L69.0291 87.5192C78.1974 84.0021 88.0435 90.7707 88.0435 100.59V127.41C88.0435 137.229 78.1974 143.998 69.0291 140.481L34.0736 127.071Z" fill="#83BDFD"/>
<path d="M140.45 57.89H144.26V74.99H140.45V57.89ZM135.14 58.37H138.89V74.93H135.14V58.37ZM131.06 71.45H136.64V74.09H131.06V71.45ZM125.48 69.5H129.26V74.81H125.48V69.5ZM120.38 71.12L120.02 68.15C123.62 68.15 129.62 68.09 134.03 67.4L134.3 70.04C129.77 71.06 124.01 71.12 120.38 71.12ZM124.49 75.89H128.45V77.69H140.3V75.89H144.26V85.37H124.49V75.89ZM128.45 80.66V82.31H140.3V80.66H128.45ZM127.25 58.82C130.85 58.82 133.31 60.44 133.31 62.96C133.31 65.51 130.85 67.16 127.25 67.16C123.62 67.16 121.16 65.51 121.16 62.96C121.16 60.44 123.62 58.82 127.25 58.82ZM127.25 61.55C125.69 61.55 124.73 62 124.73 62.96C124.73 63.98 125.69 64.4 127.25 64.4C128.78 64.4 129.77 63.98 129.77 62.96C129.77 62 128.78 61.55 127.25 61.55ZM164.927 60.1591L157.896 86.2812H154.518L161.55 60.1591H164.927ZM193.098 57.89H197.118V85.76H193.098V57.89ZM175.728 75.8H178.128C183.978 75.8 187.278 75.68 190.998 74.99L191.358 78.26C187.608 79.01 184.098 79.13 178.128 79.13H175.728V75.8ZM175.728 60.35H189.138V63.56H179.688V77.06H175.728V60.35ZM207.885 62.27H211.035V65.39C211.035 71.66 208.395 78.05 203.295 80.45L201.045 77.3C205.635 75.14 207.885 69.95 207.885 65.39V62.27ZM208.725 62.27H211.875V65.39C211.875 69.59 214.035 74.51 218.595 76.61L216.405 79.76C211.305 77.39 208.725 71.3 208.725 65.39V62.27ZM202.125 60.56H217.365V63.83H202.125V60.56ZM219.405 57.89H223.425V85.67H219.405V57.89ZM222.525 68.48H227.445V71.78H222.525V68.48ZM248.323 57.92H252.343V77.87H248.323V57.92ZM233.833 82.01H253.033V85.19H233.833V82.01ZM233.833 75.86H237.823V83.3H233.833V75.86ZM237.223 59.66C241.483 59.66 244.753 62.6 244.753 66.71C244.753 70.79 241.483 73.76 237.223 73.76C232.963 73.76 229.663 70.79 229.663 66.71C229.663 62.6 232.963 59.66 237.223 59.66ZM237.223 63.11C235.153 63.11 233.563 64.43 233.563 66.71C233.563 68.96 235.153 70.28 237.223 70.28C239.263 70.28 240.853 68.96 240.853 66.71C240.853 64.43 239.263 63.11 237.223 63.11Z" fill="#076CDB"/>
<path d="M348.112 58.84H352.112V65.496H355.888V58.84H359.824V78.84H348.112V58.84ZM352.112 68.824V75.448H355.888V68.824H352.112ZM368.688 56.216H372.752V85.848H368.688V56.216ZM365.04 67.512H369.968V70.936H365.04V67.512ZM362.192 56.664H366.192V84.504H362.192V56.664ZM381.902 64.408H385.102V65.176C385.102 71.32 383.31 77.496 378.574 80.216L376.174 77.016C380.398 74.552 381.902 69.72 381.902 65.176V64.408ZM382.734 64.408H385.934V65.176C385.934 69.624 387.47 74.136 391.662 76.376L389.358 79.512C384.558 77.016 382.734 71.224 382.734 65.176V64.408ZM377.166 61.208H390.638V64.632H377.166V61.208ZM381.902 57.208H385.934V63.96H381.902V57.208ZM398.35 56.216H402.382V85.848H398.35V56.216ZM394.798 67.576H399.726V71.032H394.798V67.576ZM391.982 56.664H395.95V84.504H391.982V56.664ZM426.635 56.216H430.891V85.848H426.635V56.216ZM406.827 80.792L406.315 77.304C411.723 77.304 418.859 77.368 425.099 76.504L425.387 79.608C418.859 80.792 412.107 80.824 406.827 80.792ZM406.891 59.768H424.715V63.128H406.891V59.768ZM415.787 64.248C420.107 64.248 423.115 66.52 423.115 69.912C423.115 73.24 420.107 75.512 415.787 75.512C411.531 75.512 408.523 73.24 408.523 69.912C408.523 66.52 411.531 64.248 415.787 64.248ZM415.787 67.512C413.867 67.512 412.555 68.344 412.555 69.912C412.555 71.448 413.867 72.312 415.787 72.312C417.739 72.312 419.051 71.448 419.051 69.912C419.051 68.344 417.739 67.512 415.787 67.512ZM413.643 56.536H417.931V62.008H413.643V56.536Z" fill="white"/>
<path d="M132.692 131.115C130.455 131.115 128.467 130.81 126.727 130.199C124.994 129.595 123.531 128.704 122.337 127.525C121.144 126.353 120.239 124.922 119.621 123.232C119.003 121.541 118.69 119.609 118.683 117.436C118.69 115.312 119.006 113.398 119.631 111.694C120.256 109.982 121.169 108.519 122.369 107.305C123.57 106.083 125.036 105.146 126.769 104.492C128.502 103.839 130.473 103.512 132.682 103.512C134.763 103.512 136.606 103.828 138.211 104.46C139.823 105.092 141.183 105.973 142.291 107.102C143.406 108.224 144.248 109.538 144.816 111.044C145.391 112.543 145.679 114.169 145.679 115.923C145.679 117.138 145.587 118.288 145.402 119.375C145.217 120.455 144.901 121.413 144.454 122.251C144.013 123.089 143.413 123.757 142.653 124.254C141.893 124.744 140.942 125.011 139.798 125.053C139.081 125.089 138.452 125.021 137.913 124.851C137.373 124.68 136.936 124.414 136.602 124.052C136.276 123.683 136.07 123.232 135.984 122.699H135.857C135.693 123.125 135.384 123.516 134.93 123.871C134.482 124.219 133.928 124.492 133.268 124.691C132.607 124.883 131.872 124.961 131.062 124.925C130.196 124.883 129.393 124.684 128.655 124.329C127.923 123.967 127.284 123.462 126.737 122.816C126.197 122.163 125.778 121.374 125.48 120.451C125.182 119.528 125.033 118.48 125.033 117.308C125.033 116.165 125.196 115.156 125.523 114.283C125.849 113.409 126.286 112.663 126.833 112.045C127.387 111.428 128.012 110.945 128.708 110.597C129.404 110.241 130.121 110.014 130.86 109.915C131.627 109.808 132.348 109.819 133.023 109.947C133.697 110.075 134.259 110.27 134.706 110.533C135.161 110.795 135.445 111.083 135.558 111.396H135.707V110.202H138.68V120.344C138.687 120.877 138.815 121.307 139.063 121.634C139.319 121.96 139.674 122.124 140.129 122.124C140.697 122.124 141.155 121.9 141.503 121.452C141.858 120.998 142.114 120.302 142.27 119.364C142.433 118.42 142.511 117.212 142.504 115.742C142.511 114.535 142.352 113.441 142.025 112.461C141.705 111.474 141.251 110.607 140.661 109.862C140.072 109.116 139.365 108.494 138.541 107.997C137.724 107.493 136.815 107.113 135.814 106.857C134.813 106.602 133.744 106.474 132.607 106.474C130.867 106.474 129.337 106.74 128.016 107.273C126.695 107.798 125.587 108.548 124.692 109.521C123.804 110.494 123.133 111.648 122.678 112.983C122.231 114.311 122.007 115.781 122.007 117.393C122.007 119.119 122.241 120.65 122.71 121.985C123.186 123.313 123.882 124.432 124.798 125.341C125.714 126.25 126.847 126.939 128.197 127.408C129.553 127.876 131.112 128.111 132.874 128.111C133.683 128.111 134.475 128.047 135.249 127.919C136.023 127.791 136.719 127.642 137.337 127.472C137.955 127.301 138.431 127.152 138.765 127.024L139.67 129.73C139.23 129.957 138.634 130.178 137.881 130.391C137.135 130.604 136.311 130.778 135.409 130.913C134.514 131.048 133.609 131.115 132.692 131.115ZM131.947 121.868C132.849 121.868 133.57 121.694 134.109 121.346C134.649 120.991 135.036 120.465 135.271 119.769C135.505 119.073 135.619 118.207 135.612 117.17C135.612 116.204 135.491 115.412 135.249 114.794C135.008 114.176 134.621 113.718 134.088 113.42C133.555 113.121 132.849 112.972 131.968 112.972C131.173 112.972 130.494 113.153 129.933 113.516C129.379 113.878 128.953 114.379 128.655 115.018C128.364 115.65 128.218 116.371 128.218 117.18C128.218 117.99 128.335 118.754 128.57 119.471C128.811 120.181 129.202 120.76 129.741 121.207C130.288 121.648 131.023 121.868 131.947 121.868ZM152.329 125L147.706 108.636H151.637L154.513 120.142H154.662L157.603 108.636H161.491L164.432 120.078H164.591L167.425 108.636H171.367L166.733 125H162.716L159.648 113.942H159.425L156.356 125H152.329ZM177.916 115.412V125H174.06V103.182H177.831V111.417H178.023C178.406 110.494 178.999 109.766 179.802 109.233C180.612 108.693 181.641 108.423 182.891 108.423C184.028 108.423 185.018 108.661 185.864 109.137C186.709 109.613 187.362 110.309 187.824 111.225C188.293 112.141 188.527 113.26 188.527 114.581V125H184.67V115.178C184.67 114.077 184.386 113.221 183.818 112.61C183.257 111.992 182.469 111.683 181.453 111.683C180.771 111.683 180.161 111.832 179.621 112.131C179.088 112.422 178.669 112.844 178.364 113.398C178.065 113.952 177.916 114.624 177.916 115.412ZM194.269 131.136C193.744 131.136 193.257 131.094 192.81 131.009C192.369 130.93 192.018 130.838 191.755 130.732L192.65 127.727C193.211 127.891 193.712 127.969 194.152 127.962C194.592 127.955 194.979 127.816 195.313 127.546C195.654 127.283 195.942 126.843 196.176 126.225L196.506 125.341L190.572 108.636H194.663L198.435 120.994H198.605L202.387 108.636H206.489L199.937 126.982C199.631 127.848 199.227 128.59 198.722 129.208C198.218 129.833 197.6 130.309 196.869 130.636C196.144 130.969 195.278 131.136 194.269 131.136ZM212.534 125L207.911 108.636H211.842L214.718 120.142H214.868L217.808 108.636H221.696L224.637 120.078H224.797L227.63 108.636H231.572L226.938 125H222.922L219.853 113.942H219.63L216.561 125H212.534ZM237.642 125L233.018 108.636H236.949L239.826 120.142H239.975L242.915 108.636H246.804L249.744 120.078H249.904L252.738 108.636H256.68L252.045 125H248.029L244.961 113.942H244.737L241.669 125H237.642ZM263.229 115.412V125H259.372V103.182H263.143V111.417H263.335C263.719 110.494 264.312 109.766 265.114 109.233C265.924 108.693 266.954 108.423 268.204 108.423C269.34 108.423 270.331 108.661 271.176 109.137C272.021 109.613 272.675 110.309 273.136 111.225C273.605 112.141 273.839 113.26 273.839 114.581V125H269.983V115.178C269.983 114.077 269.699 113.221 269.131 112.61C268.57 111.992 267.781 111.683 266.766 111.683C266.084 111.683 265.473 111.832 264.933 112.131C264.401 112.422 263.982 112.844 263.676 113.398C263.378 113.952 263.229 114.624 263.229 115.412ZM279.582 131.136C279.056 131.136 278.57 131.094 278.122 131.009C277.682 130.93 277.33 130.838 277.067 130.732L277.962 127.727C278.523 127.891 279.024 127.969 279.464 127.962C279.905 127.955 280.292 127.816 280.626 127.546C280.967 127.283 281.254 126.843 281.489 126.225L281.819 125.341L275.885 108.636H279.976L283.747 120.994H283.918L287.7 108.636H291.801L285.249 126.982C284.944 127.848 284.539 128.59 284.035 129.208C283.531 129.833 282.913 130.309 282.181 130.636C281.457 130.969 280.59 131.136 279.582 131.136Z" fill="#5AA7FC"/>
</svg>
