<svg width="474" height="153" viewBox="0 0 474 153" fill="none" xmlns="http://www.w3.org/2000/svg">
<rect width="420" height="153" rx="30" transform="matrix(-1 0 0 1 420 0)" fill="#097CFA"/>
<path d="M441.852 113.019C452.977 108.751 452.977 93.0115 441.852 88.7438L422.504 81.3215C413.99 78.0556 404.848 84.3407 404.848 93.459V108.304C404.848 117.422 413.99 123.707 422.504 120.441L441.852 113.019Z" fill="#097CFA"/>
<path d="M110.288 50.084H113.096V53.594C113.096 59.548 111.016 65.138 106.466 67.374L104.386 64.592C108.442 62.694 110.288 58.066 110.288 53.594V50.084ZM110.99 50.084H113.746V53.594C113.746 57.91 115.462 62.304 119.31 64.176L117.23 66.932C112.888 64.722 110.99 59.366 110.99 53.594V50.084ZM120.272 48.238H123.756V72.314H120.272V48.238ZM122.976 57.494H127.24V60.38H122.976V57.494ZM134.908 62.876H138.366V66.776H134.908V62.876ZM145.438 48.238H148.896V72.314H145.438V48.238ZM129.344 68.31L128.928 65.528C133.296 65.502 139.12 65.502 144.19 64.826L144.424 67.322C139.198 68.284 133.608 68.31 129.344 68.31ZM129.396 50.89H143.878V53.594H129.396V50.89ZM136.624 54.556C140.186 54.556 142.656 56.376 142.656 59.054C142.656 61.758 140.186 63.578 136.624 63.578C133.114 63.578 130.644 61.758 130.644 59.054C130.644 56.376 133.114 54.556 136.624 54.556ZM136.624 57.156C135.064 57.156 133.946 57.832 133.946 59.054C133.946 60.302 135.064 60.978 136.624 60.978C138.236 60.978 139.354 60.302 139.354 59.054C139.354 57.832 138.236 57.156 136.624 57.156ZM134.908 48.342H138.366V52.45H134.908V48.342ZM158.28 50.63H161.088V52.164C161.088 56.688 158.956 60.874 154.328 62.382L152.586 59.652C156.564 58.352 158.28 55.18 158.28 52.164V50.63ZM159.008 50.63H161.79V52.164C161.79 54.972 163.428 57.936 167.224 59.21L165.534 61.914C161.062 60.432 159.008 56.428 159.008 52.164V50.63ZM165.82 53.984H170.396V56.792H165.82V53.984ZM153.522 49.564H166.47V52.294H153.522V49.564ZM156.46 63.656H172.866V72.314H169.408V66.412H156.46V63.656ZM169.408 48.238H172.866V62.564H169.408V48.238ZM193.222 48.238H196.706V72.314H193.222V48.238ZM186.124 50.734H189.556C189.556 58.092 187.06 64.124 178.506 68.258L176.712 65.502C183.628 62.174 186.124 57.806 186.124 51.358V50.734ZM177.986 50.734H187.762V53.464H177.986V50.734ZM212.72 53.542H218.752V56.324H212.72V53.542ZM207.208 49.226C210.822 49.226 213.552 51.644 213.552 54.972C213.552 58.326 210.822 60.718 207.208 60.718C203.568 60.718 200.838 58.326 200.838 54.972C200.838 51.644 203.568 49.226 207.208 49.226ZM207.208 52.112C205.44 52.112 204.14 53.178 204.14 54.972C204.14 56.766 205.44 57.858 207.208 57.858C208.976 57.858 210.25 56.766 210.25 54.972C210.25 53.178 208.976 52.112 207.208 52.112ZM217.244 48.238H220.702V61.186H217.244V48.238ZM204.712 62.226H208.144V64.514H217.27V62.226H220.702V72.054H204.712V62.226ZM208.144 67.166V69.298H217.27V67.166H208.144ZM232.218 49.824C236.014 49.824 238.848 52.294 238.848 55.752C238.848 59.236 236.014 61.706 232.218 61.706C228.448 61.706 225.562 59.236 225.562 55.752C225.562 52.294 228.448 49.824 232.218 49.824ZM232.218 52.788C230.372 52.788 228.968 53.88 228.968 55.752C228.968 57.65 230.372 58.742 232.218 58.742C234.064 58.742 235.468 57.65 235.468 55.752C235.468 53.88 234.064 52.788 232.218 52.788ZM241.11 48.212H244.568V72.366H241.11V48.212ZM224.99 67.478L224.574 64.696C228.812 64.696 234.714 64.644 239.784 63.89L240.044 66.386C234.818 67.426 229.15 67.478 224.99 67.478ZM254.863 66.672H276.651V69.506H254.863V66.672ZM263.911 61.316H267.343V67.426H263.911V61.316ZM263.781 49.564H266.797V51.306C266.797 56.428 263.079 60.952 256.787 62.096L255.357 59.21C260.843 58.326 263.781 54.634 263.781 51.306V49.564ZM264.457 49.564H267.473V51.306C267.473 54.712 270.411 58.326 275.923 59.21L274.493 62.096C268.175 60.926 264.457 56.506 264.457 51.306V49.564ZM295.265 48.212H298.749V72.366H295.265V48.212ZM279.951 50.136H283.383V55.986H288.349V50.136H291.781V66.75H279.951V50.136ZM283.383 58.664V63.968H288.349V58.664H283.383ZM302.673 59.028H324.487V61.55H302.673V59.028ZM305.117 62.746H321.887V68.466H308.601V70.52H305.169V66.282H318.481V65.086H305.117V62.746ZM305.169 69.792H322.563V72.132H305.169V69.792ZM305.351 48.654H321.835V54.322H308.809V56.298H305.377V52.164H318.429V50.968H305.351V48.654ZM305.377 55.57H322.277V57.91H305.377V55.57ZM90.7373 91.692H112.499V94.396H90.7373V91.692ZM99.8893 89.248H103.321V92.784H99.8893V89.248ZM93.1553 96.008H109.873V103.314H106.415V98.738H93.1553V96.008ZM99.8893 79.264H103.321V82.8H99.8893V79.264ZM99.6813 83.138H102.723V83.632C102.723 87.272 99.2393 89.846 92.6873 90.314L91.6473 87.714C97.4453 87.35 99.6813 85.478 99.6813 83.632V83.138ZM100.487 83.138H103.529V83.632C103.529 85.478 105.765 87.35 111.563 87.714L110.523 90.314C103.945 89.846 100.487 87.272 100.487 83.632V83.138ZM92.8173 81.422H110.419V84.1H92.8173V81.422ZM117.151 80.642H132.257V83.372H117.151V80.642ZM114.681 90.886H136.443V93.668H114.681V90.886ZM123.703 92.836H127.187V103.34H123.703V92.836ZM130.489 80.642H133.895V82.774C133.895 85.374 133.895 88.286 132.959 92.55L129.553 92.16C130.489 88.13 130.489 85.27 130.489 82.774V80.642ZM154.017 79.238H157.449V103.314H154.017V79.238ZM156.669 88.624H160.933V91.51H156.669V88.624ZM138.469 82.8H152.483V85.556H138.469V82.8ZM145.515 86.908C149.025 86.908 151.625 89.3 151.625 92.654C151.625 96.008 149.025 98.4 145.515 98.4C142.005 98.4 139.405 96.008 139.405 92.654C139.405 89.3 142.005 86.908 145.515 86.908ZM145.515 89.716C143.877 89.716 142.707 90.808 142.707 92.654C142.707 94.5 143.877 95.592 145.515 95.592C147.153 95.592 148.323 94.5 148.323 92.654C148.323 90.808 147.153 89.716 145.515 89.716ZM143.773 79.628H147.231V83.84H143.773V79.628ZM165.195 85.738H181.887V88.468H165.195V85.738ZM162.491 90.964H184.305V93.72H162.491V90.964ZM165.195 80.096H168.627V87.09H165.195V80.096ZM164.961 100.038H182.017V102.794H164.961V100.038ZM164.961 95.644H168.419V100.766H164.961V95.644ZM198.448 80.538C201.646 80.538 203.96 82.826 203.96 86.128C203.96 89.43 201.646 91.718 198.448 91.718C195.224 91.718 192.936 89.43 192.936 86.128C192.936 82.826 195.224 80.538 198.448 80.538ZM198.448 83.32C197.044 83.32 196.056 84.334 196.056 86.128C196.056 87.896 197.044 88.91 198.448 88.91C199.826 88.91 200.84 87.896 200.84 86.128C200.84 84.334 199.826 83.32 198.448 83.32ZM210.096 79.264H213.372V92.316H210.096V79.264ZM207.288 84.256H211.11V87.038H207.288V84.256ZM205 79.706H208.224V92.16H205V79.706ZM197.044 93.33H200.45V95.488H209.992V93.33H213.372V103.054H197.044V93.33ZM200.45 98.166V100.298H209.992V98.166H200.45ZM216.776 91.51H238.538V94.266H216.776V91.51ZM219.402 100.142H236.094V102.898H219.402V100.142ZM219.402 95.878H222.86V101.026H219.402V95.878ZM227.67 79.94C232.896 79.94 236.38 81.838 236.38 84.906C236.38 87.974 232.896 89.872 227.67 89.872C222.418 89.872 218.96 87.974 218.96 84.906C218.96 81.838 222.418 79.94 227.67 79.94ZM227.67 82.696C224.42 82.696 222.522 83.45 222.522 84.906C222.522 86.388 224.42 87.116 227.67 87.116C230.92 87.116 232.818 86.388 232.818 84.906C232.818 83.45 230.92 82.696 227.67 82.696ZM253.748 80.902C257.336 80.902 259.962 84.23 259.962 89.482C259.962 94.786 257.336 98.114 253.748 98.114C250.134 98.114 247.534 94.786 247.534 89.482C247.534 84.23 250.134 80.902 253.748 80.902ZM253.748 84.048C252.006 84.048 250.836 85.946 250.836 89.482C250.836 93.07 252.006 94.994 253.748 94.994C255.516 94.994 256.66 93.07 256.66 89.482C256.66 85.946 255.516 84.048 253.748 84.048ZM263.914 79.212H267.346V103.366H263.914V79.212ZM258.948 87.896H265.37V90.678H258.948V87.896ZM271.399 88.234H272.621C274.597 88.234 276.079 88.182 277.925 87.818L278.185 90.496C276.209 90.86 274.701 90.886 272.621 90.886H271.399V88.234ZM271.399 80.382H277.691V83.06H274.805V90.002H271.399V80.382ZM278.861 88.234H280.161C283.203 88.234 284.529 88.182 286.115 87.792L286.375 90.47C284.711 90.86 283.333 90.886 280.161 90.886H278.861V88.234ZM278.861 80.382H285.543V83.06H282.241V90.002H278.861V80.382ZM274.623 92.42H291.445V98.894H278.159V101.676H274.649V96.424H287.987V95.072H274.623V92.42ZM274.649 100.376H292.121V103.054H274.649V100.376ZM288.013 79.238H291.445V91.458H288.013V79.238ZM284.633 84.152H290.743V86.7H284.633V84.152ZM310.657 79.238H314.115V103.314H310.657V79.238ZM313.049 88.65H317.235V91.51H313.049V88.65ZM298.853 81.682H302.077C302.077 88.364 301.453 93.486 297.189 98.27L294.485 96.32C298.203 92.212 298.853 88.208 298.853 82.098V81.682ZM295.551 81.682H300.205V84.49H295.551V81.682ZM305.483 81.682H308.707C308.707 88.676 308.135 94.578 303.949 99.804L301.245 97.88C304.885 93.278 305.483 88.65 305.483 82.072V81.682ZM302.883 81.682H306.913V84.49H302.883V81.682ZM322.769 95.4418V95.2017C322.776 94.0876 322.88 93.2012 323.083 92.5426C323.293 91.884 323.588 91.3546 323.97 90.9545C324.351 90.5483 324.816 90.1759 325.364 89.8374C325.739 89.6035 326.075 89.348 326.37 89.071C326.672 88.7879 326.909 88.474 327.081 88.1293C327.253 87.7784 327.34 87.3875 327.34 86.9567C327.34 86.4704 327.226 86.0488 326.998 85.6918C326.77 85.3348 326.463 85.0578 326.075 84.8608C325.693 84.6638 325.265 84.5653 324.791 84.5653C324.354 84.5653 323.939 84.6607 323.545 84.8516C323.157 85.0362 322.834 85.3194 322.575 85.701C322.323 86.0765 322.182 86.5535 322.151 87.1321H318.864C318.895 85.9626 319.178 84.9839 319.713 84.196C320.255 83.4081 320.969 82.8172 321.855 82.4233C322.748 82.0294 323.733 81.8324 324.81 81.8324C325.985 81.8324 327.02 82.0386 327.912 82.451C328.811 82.8634 329.509 83.4512 330.008 84.2145C330.513 84.9716 330.765 85.8703 330.765 86.9105C330.765 87.6122 330.651 88.2401 330.423 88.794C330.202 89.348 329.885 89.8404 329.472 90.2713C329.06 90.7022 328.571 91.0869 328.004 91.4254C327.506 91.7332 327.097 92.0533 326.776 92.3857C326.463 92.718 326.229 93.1089 326.075 93.5582C325.927 94.0014 325.85 94.5492 325.844 95.2017V95.4418H322.769ZM324.376 101.203C323.822 101.203 323.345 101.006 322.945 100.612C322.545 100.218 322.345 99.7382 322.345 99.1719C322.345 98.6179 322.545 98.1439 322.945 97.75C323.345 97.3561 323.822 97.1591 324.376 97.1591C324.924 97.1591 325.398 97.3561 325.798 97.75C326.204 98.1439 326.407 98.6179 326.407 99.1719C326.407 99.5473 326.312 99.889 326.121 100.197C325.936 100.504 325.69 100.751 325.382 100.935C325.081 101.114 324.745 101.203 324.376 101.203Z" fill="white"/>
</svg>
